<?xml version="1.0" encoding="UTF-8" standalone="no"?><svg xmlns="http://www.w3.org/2000/svg" xmlns:xlink="http://www.w3.org/1999/xlink" clip-rule="evenodd" stroke-miterlimit="10" viewBox="0 0 1024 768"><desc>SVG generated by Keynote</desc><defs></defs><g transform="matrix(1.00, 0.00, -0.00, -1.00, 0.0, 768.0)"><path d="M 0.0 768.0 L 1024.0 768.0 L 1024.0 0.0 L 0.0 0.0 Z M 0.0 768.0 " fill="#FEFFFF"></path><g><clipPath id="clip0x7fbcfa4b7710"><path d="M 588.0 372.0 L 947.0 372.0 L 947.0 170.0 L 588.0 170.0 Z M 588.1 371.7 "></path></clipPath><g clip-path="url(#clip0x7fbcfa4b7710)"><g><clipPath id="clip0x7fbcfa4b66e0"><path d="M 849.0 371.7 C 836.3 371.8 826.6 369.6 816.3 364.6 C 805.8 359.5 796.1 350.0 791.2 340.2 C 787.7 333.0 784.5 320.7 784.5 314.3 C 784.5 312.3 784.0 310.5 783.4 310.1 C 782.7 309.7 782.7 308.7 783.3 307.6 C 783.8 306.5 785.1 301.3 786.0 295.9 C 787.3 289.0 789.3 283.1 792.6 276.4 L 797.4 266.8 L 795.1 260.0 C 791.8 250.3 791.9 219.9 795.1 204.0 C 796.4 198.0 797.2 192.7 796.9 192.2 C 796.2 191.1 779.6 191.2 778.4 192.5 C 777.8 193.0 773.3 195.0 768.3 196.8 L 759.3 200.1 L 739.2 199.1 C 728.2 198.5 712.6 198.0 704.6 198.0 C 688.7 198.0 687.4 198.5 689.9 204.1 L 691.2 207.0 L 715.0 207.0 L 739.0 207.0 L 743.9 212.9 C 746.6 216.3 748.7 219.6 748.6 220.3 C 748.5 221.0 743.8 246.0 738.2 275.9 L 728.1 330.0 L 675.4 330.0 L 622.7 330.0 L 616.9 324.6 L 611.0 318.9 L 611.0 309.1 C 611.0 300.3 611.4 299.0 613.7 296.5 C 615.8 294.2 617.9 286.7 624.8 257.9 L 633.2 222.2 L 631.5 208.2 C 630.5 200.5 629.1 193.6 628.5 192.8 C 627.6 191.8 622.3 191.0 607.7 191.0 L 588.0 191.0 L 588.0 180.5 L 588.0 170.0 L 767.5 170.0 L 947.0 170.0 L 947.0 180.5 L 947.0 191.0 L 927.9 192.0 L 909.0 192.0 L 908.0 202.9 C 906.9 218.4 903.0 233.6 896.1 247.3 L 890.3 258.9 L 897.8 266.9 C 912.5 282.5 920.9 308.6 917.3 327.5 C 912.4 353.8 889.6 369.8 854.7 371.5 C 852.7 371.6 850.9 371.7 849.0 371.7 Z M 800.0 262.4 C 801.2 262.5 802.9 261.0 806.0 258.3 C 812.9 252.1 822.8 247.0 831.5 245.0 C 837.4 243.6 854.4 244.0 858.2 245.5 C 859.4 246.0 860.4 245.5 861.3 243.9 C 863.0 240.6 861.3 238.4 843.2 220.4 C 833.0 210.2 824.4 202.7 817.6 198.2 C 807.5 191.5 803.3 190.1 801.2 192.8 C 797.0 197.9 793.8 239.3 796.5 252.9 C 797.8 259.4 798.4 262.3 800.0 262.4 Z M 887.0 257.0 C 887.3 257.0 888.7 255.0 890.2 252.4 L 893.0 247.7 L 891.4 234.1 C 889.6 218.8 886.4 204.4 883.3 197.4 C 880.0 190.0 877.7 189.8 877.7 197.0 C 877.7 203.8 874.5 218.6 870.5 229.6 C 868.5 235.4 866.8 240.4 866.8 240.8 C 866.8 243.0 874.4 250.3 880.0 253.4 C 883.6 255.4 886.8 257.0 887.0 257.0 Z M 895.8 239.2 C 899.4 238.6 908.2 199.2 905.9 193.2 C 905.3 191.7 903.4 191.4 895.4 191.4 C 890.0 191.4 885.3 191.9 884.9 192.4 C 884.6 192.9 885.3 195.5 886.4 198.1 C 888.7 203.3 892.5 220.7 893.7 231.6 C 894.1 235.4 894.9 238.8 895.4 239.1 C 895.6 239.2 895.7 239.2 895.8 239.2 Z M 864.5 237.6 L 866.8 232.3 C 870.4 224.1 874.7 207.0 875.0 199.1 L 875.0 192.0 L 846.3 192.0 C 830.0 191.8 817.3 191.8 816.9 192.4 C 816.6 192.9 820.1 196.2 824.8 199.6 C 829.5 203.1 840.3 213.0 848.9 221.7 L 864.5 237.6 Z M 864.5 237.6 "></path></clipPath><g clip-path="url(#clip0x7fbcfa4b66e0)"><image xlink:href="../../37C8BF0A-2A12-4B15-9A67-C007327DFA8E/assets/FDF0D5FFD448EBA94CC13D24D2797038.jpeg" width="960.00" height="557.00" transform="matrix(0.38, 0.00, -0.00, -0.38, 584.0, 378.0)"></image></g></g></g></g><image xlink:href="../../51B189B3-CAC3-49A5-B13C-8D46FE9A674A/assets/775E664A00C1A11B703472068ED6C159.png" width="1334.00" height="213.00" transform="matrix(0.77, 0.00, -0.00, -0.77, 0.0, 629.0)"></image><path d="M 5.0 -0.3 C 2.2 0.0 -0.3 2.2 -0.3 5.0 L -0.3 53.3 C -0.3 56.1 2.2 58.7 5.0 58.7 L 212.8 58.7 L 227.6 73.2 L 220.7 50.0 L 220.7 5.0 C 220.7 2.2 218.7 -0.3 215.9 -0.3 L 5.0 -0.3 Z M 5.0 0.0 " fill="none" stroke="#000000" stroke-width="3.00" stroke-dasharray="18.0, 18.0" transform="matrix(1.00, 0.00, 0.00, -1.00, 579.8, 440.2)"></path><g><clipPath id="clip0x7fbcfa381890"><path d="M 577.8 381.9 L 802.8 381.9 L 802.8 440.2 L 577.8 440.2 Z M 577.8 381.9 "></path></clipPath><g clip-path="url(#clip0x7fbcfa381890)"><text xml:space="preserve" font-family="Chalkboard,Chalkboard" font-size="24.0" fill="#000000" transform="matrix(1.00, 0.00, -0.00, -1.00, 603.2, 402.8)">a</text><text xml:space="preserve" font-family="Chalkboard,Chalkboard" font-size="24.0" fill="#000000" transform="matrix(1.00, 0.00, -0.00, -1.00, 616.0, 402.8)"> </text><text xml:space="preserve" font-family="Chalkboard,Chalkboard" font-size="24.0" fill="#000000" transform="matrix(1.00, 0.00, -0.00, -1.00, 625.2, 402.8)">d</text><text xml:space="preserve" font-family="Chalkboard,Chalkboard" font-size="24.0" fill="#000000" transform="matrix(1.00, 0.00, -0.00, -1.00, 637.5, 402.8)">i</text><text xml:space="preserve" font-family="Chalkboard,Chalkboard" font-size="24.0" fill="#000000" transform="matrix(1.00, 0.00, -0.00, -1.00, 642.4, 402.8)">f</text><text xml:space="preserve" font-family="Chalkboard,Chalkboard" font-size="24.0" fill="#000000" transform="matrix(1.00, 0.00, -0.00, -1.00, 652.0, 402.8)">f</text><text xml:space="preserve" font-family="Chalkboard,Chalkboard" font-size="24.0" fill="#000000" transform="matrix(1.00, 0.00, -0.00, -1.00, 661.8, 402.8)">e</text><text xml:space="preserve" font-family="Chalkboard,Chalkboard" font-size="24.0" fill="#000000" transform="matrix(1.00, 0.00, -0.00, -1.00, 675.0, 402.8)">r</text><text xml:space="preserve" font-family="Chalkboard,Chalkboard" font-size="24.0" fill="#000000" transform="matrix(1.00, 0.00, -0.00, -1.00, 685.0, 402.8)">e</text><text xml:space="preserve" font-family="Chalkboard,Chalkboard" font-size="24.0" fill="#000000" transform="matrix(1.00, 0.00, -0.00, -1.00, 697.6, 402.8)">n</text><text xml:space="preserve" font-family="Chalkboard,Chalkboard" font-size="24.0" fill="#000000" transform="matrix(1.00, 0.00, -0.00, -1.00, 708.9, 402.8)">t</text><text xml:space="preserve" font-family="Chalkboard,Chalkboard" font-size="24.0" fill="#000000" transform="matrix(1.00, 0.00, -0.00, -1.00, 719.9, 402.8)"> </text><text xml:space="preserve" font-family="Chalkboard,Chalkboard" font-size="24.0" fill="#000000" transform="matrix(1.00, 0.00, -0.00, -1.00, 729.1, 402.8)">o</text><text xml:space="preserve" font-family="Chalkboard,Chalkboard" font-size="24.0" fill="#000000" transform="matrix(1.00, 0.00, -0.00, -1.00, 741.4, 402.8)">n</text><text xml:space="preserve" font-family="Chalkboard,Chalkboard" font-size="24.0" fill="#000000" transform="matrix(1.00, 0.00, -0.00, -1.00, 754.1, 402.8)">e</text><text xml:space="preserve" font-family="Chalkboard,Chalkboard" font-size="24.0" fill="#000000" transform="matrix(1.00, 0.00, -0.00, -1.00, 766.7, 402.8)">?</text></g></g></g></svg>