<?xml version="1.0" encoding="UTF-8" standalone="no"?><svg xmlns="http://www.w3.org/2000/svg" xmlns:xlink="http://www.w3.org/1999/xlink" clip-rule="evenodd" stroke-miterlimit="10" viewBox="0 0 1024 768"><desc>SVG generated by Keynote</desc><defs></defs><g transform="matrix(1.00, 0.00, -0.00, -1.00, 0.0, 768.0)"><path d="M 0.0 768.0 L 1024.0 768.0 L 1024.0 0.0 L 0.0 0.0 Z M 0.0 768.0 " fill="#FEFFFF"></path><image xlink:href="../../41C1A923-930B-4274-8DA4-53E145785687/assets/746CADD5F6EA378AA7F1AFDE11A32B42.png" width="730.00" height="737.00" transform="matrix(1.00, 0.00, -0.00, -1.00, 48.0, 761.0)"></image><g opacity="0.21"><g><clipPath id="clip0x7fbcfa711dd0"><path d="M 0.0 0.0 L 1024.0 0.0 L 1024.0 768.0 L 0.0 768.0 Z M 0.0 0.0 "></path></clipPath><g clip-path="url(#clip0x7fbcfa711dd0)"><image xlink:href="../../ABBF0EA5-5FFE-4F06-AC2F-257BA27E0681/assets/6DDF37D49595222A9A7A5CF66FF72906.png" width="1039.00" height="778.00" transform="matrix(1.00, 0.00, -0.00, -1.00, -8.8, 773.2)" opacity="0.50"></image><path d="M -6.0 769.0 L 1025.0 769.0 L 1025.0 -1.0 L -6.0 -1.0 Z M -5.8 769.2 " fill="#000000"></path></g></g></g><g><clipPath id="clip0x7fbcfa7117e0"><path d="M 588.0 372.0 L 947.0 372.0 L 947.0 170.0 L 588.0 170.0 Z M 588.1 371.7 "></path></clipPath><g clip-path="url(#clip0x7fbcfa7117e0)"><g><clipPath id="clip0x7fbcfa3f68c0"><path d="M 849.0 371.7 C 836.3 371.8 826.6 369.6 816.3 364.6 C 805.8 359.5 796.1 350.0 791.2 340.2 C 787.7 333.0 784.5 320.7 784.5 314.3 C 784.5 312.3 784.0 310.5 783.4 310.1 C 782.7 309.7 782.7 308.7 783.3 307.6 C 783.8 306.5 785.1 301.3 786.0 295.9 C 787.3 289.0 789.3 283.1 792.6 276.4 L 797.4 266.8 L 795.1 260.0 C 791.8 250.3 791.9 219.9 795.1 204.0 C 796.4 198.0 797.2 192.7 796.9 192.2 C 796.2 191.1 779.6 191.2 778.4 192.5 C 777.8 193.0 773.3 195.0 768.3 196.8 L 759.3 200.1 L 739.2 199.1 C 728.2 198.5 712.6 198.0 704.6 198.0 C 688.7 198.0 687.4 198.5 689.9 204.1 L 691.2 207.0 L 715.0 207.0 L 739.0 207.0 L 743.9 212.9 C 746.6 216.3 748.7 219.6 748.6 220.3 C 748.5 221.0 743.8 246.0 738.2 275.9 L 728.1 330.0 L 675.4 330.0 L 622.7 330.0 L 616.9 324.6 L 611.0 318.9 L 611.0 309.1 C 611.0 300.3 611.4 299.0 613.7 296.5 C 615.8 294.2 617.9 286.7 624.8 257.9 L 633.2 222.2 L 631.5 208.2 C 630.5 200.5 629.1 193.6 628.5 192.8 C 627.6 191.8 622.3 191.0 607.7 191.0 L 588.0 191.0 L 588.0 180.5 L 588.0 170.0 L 767.5 170.0 L 947.0 170.0 L 947.0 180.5 L 947.0 191.0 L 927.9 192.0 L 909.0 192.0 L 908.0 202.9 C 906.9 218.4 903.0 233.6 896.1 247.3 L 890.3 258.9 L 897.8 266.9 C 912.5 282.5 920.9 308.6 917.3 327.5 C 912.4 353.8 889.6 369.8 854.7 371.5 C 852.7 371.6 850.9 371.7 849.0 371.7 Z M 800.0 262.4 C 801.2 262.5 802.9 261.0 806.0 258.3 C 812.9 252.1 822.8 247.0 831.5 245.0 C 837.4 243.6 854.4 244.0 858.2 245.5 C 859.4 246.0 860.4 245.5 861.3 243.9 C 863.0 240.6 861.3 238.4 843.2 220.4 C 833.0 210.2 824.4 202.7 817.6 198.2 C 807.5 191.5 803.3 190.1 801.2 192.8 C 797.0 197.9 793.8 239.3 796.5 252.9 C 797.8 259.4 798.4 262.3 800.0 262.4 Z M 887.0 257.0 C 887.3 257.0 888.7 255.0 890.2 252.4 L 893.0 247.7 L 891.4 234.1 C 889.6 218.8 886.4 204.4 883.3 197.4 C 880.0 190.0 877.7 189.8 877.7 197.0 C 877.7 203.8 874.5 218.6 870.5 229.6 C 868.5 235.4 866.8 240.4 866.8 240.8 C 866.8 243.0 874.4 250.3 880.0 253.4 C 883.6 255.4 886.8 257.0 887.0 257.0 Z M 895.8 239.2 C 899.4 238.6 908.2 199.2 905.9 193.2 C 905.3 191.7 903.4 191.4 895.4 191.4 C 890.0 191.4 885.3 191.9 884.9 192.4 C 884.6 192.9 885.3 195.5 886.4 198.1 C 888.7 203.3 892.5 220.7 893.7 231.6 C 894.1 235.4 894.9 238.8 895.4 239.1 C 895.6 239.2 895.7 239.2 895.8 239.2 Z M 864.5 237.6 L 866.8 232.3 C 870.4 224.1 874.7 207.0 875.0 199.1 L 875.0 192.0 L 846.3 192.0 C 830.0 191.8 817.3 191.8 816.9 192.4 C 816.6 192.9 820.1 196.2 824.8 199.6 C 829.5 203.1 840.3 213.0 848.9 221.7 L 864.5 237.6 Z M 864.5 237.6 "></path></clipPath><g clip-path="url(#clip0x7fbcfa3f68c0)"><image xlink:href="../../37C8BF0A-2A12-4B15-9A67-C007327DFA8E/assets/FDF0D5FFD448EBA94CC13D24D2797038.jpeg" width="960.00" height="557.00" transform="matrix(0.38, 0.00, -0.00, -0.38, 584.0, 378.0)"></image></g></g></g></g><text xml:space="preserve" font-family="Herculanum,Herculanum" font-size="72.0" fill="#000000" transform="matrix(1.00, 0.00, -0.00, -1.00, 904.9, 384.1)">!</text><g><clipPath id="clip0x7fbcfa3f8c00"><path d="M 374.0 296.0 L 576.0 296.0 L 576.0 265.0 L 374.0 265.0 Z M 374.1 295.8 "></path></clipPath><g clip-path="url(#clip0x7fbcfa3f8c00)"><image xlink:href="../../41C1A923-930B-4274-8DA4-53E145785687/assets/746CADD5F6EA378AA7F1AFDE11A32B42.png" width="730.00" height="737.00" transform="matrix(1.00, 0.00, -0.00, -1.00, 48.0, 761.0)"></image></g></g><path d="M 373.4 294.0 C 373.4 294.2 373.1 294.3 373.0 294.8 C 372.8 295.2 372.8 295.7 373.0 295.6 C 373.3 295.5 373.4 295.4 373.7 295.6 C 374.0 295.8 374.6 296.1 374.8 295.8 C 375.0 295.5 375.5 294.4 375.2 294.0 C 374.9 293.6 374.8 293.5 374.6 293.2 C 374.5 292.9 375.1 293.2 375.1 293.2 C 375.1 293.2 375.1 292.6 375.2 292.1 C 375.2 291.6 375.2 291.1 375.1 291.1 C 375.0 291.0 374.8 290.8 374.8 290.8 C 374.8 290.8 375.1 290.6 375.2 290.3 C 375.2 289.9 375.1 290.0 374.9 290.0 C 374.8 290.1 374.4 290.4 374.4 290.3 C 374.4 290.1 375.0 289.8 375.0 289.6 C 375.1 289.3 375.1 288.8 375.1 288.8 C 375.1 288.8 374.7 288.8 374.6 288.7 C 374.6 288.6 374.5 288.1 374.6 288.1 C 374.8 288.1 375.1 288.2 375.2 288.0 C 375.2 287.1 374.6 287.1 374.5 287.0 C 374.5 286.9 375.0 287.1 375.1 286.9 C 375.2 286.7 375.1 285.0 375.0 284.9 C 374.9 284.8 375.3 284.4 375.0 284.0 C 374.7 283.7 374.6 283.6 374.5 283.5 C 374.4 283.4 373.9 282.9 374.1 282.8 C 374.3 282.7 374.9 283.6 375.0 283.5 C 375.2 283.4 375.2 282.4 375.1 282.1 C 374.9 281.8 374.4 281.5 374.4 281.3 C 374.4 281.2 375.0 280.9 374.9 280.8 C 374.8 280.7 374.3 280.4 374.2 280.3 C 374.1 280.3 373.1 279.6 373.0 279.6 C 372.9 279.7 372.5 280.2 372.8 280.2 C 373.1 280.3 373.4 280.3 373.5 280.6 C 373.6 280.9 373.7 281.0 373.6 281.0 C 373.5 281.0 373.3 280.8 373.2 281.1 C 373.0 281.4 372.8 281.1 372.8 281.5 C 372.8 281.9 372.9 282.2 373.1 282.3 C 373.3 282.3 373.6 282.9 373.6 283.1 C 373.5 283.3 373.1 282.7 372.9 283.5 C 372.7 284.2 372.7 284.7 372.9 285.0 C 373.0 285.3 373.6 285.6 373.3 285.9 C 373.1 286.2 373.0 285.9 373.0 286.4 C 373.0 287.0 373.4 287.3 373.4 287.6 C 373.5 288.0 373.4 288.1 373.4 288.1 C 373.4 288.1 372.8 287.7 372.8 288.5 C 372.8 289.2 372.7 289.4 373.1 289.3 C 373.6 289.3 373.6 289.8 373.3 289.8 C 373.0 289.8 372.8 290.2 372.8 290.4 C 372.8 290.7 373.5 290.9 373.5 291.0 C 373.6 291.1 373.5 291.4 373.3 291.2 C 373.0 291.1 373.0 291.4 372.9 291.6 C 372.8 291.8 372.9 292.5 373.0 292.5 C 373.1 292.5 373.6 292.2 373.4 292.7 C 373.1 293.1 372.8 293.2 372.8 293.7 C 372.8 294.1 373.2 293.7 373.4 294.0 C 373.4 294.0 373.4 294.0 373.4 294.0 Z M 372.8 279.2 C 372.8 280.1 374.8 280.5 375.2 280.4 C 375.6 280.4 375.3 279.7 375.4 279.3 C 375.5 278.8 374.8 278.6 374.7 278.2 C 374.5 277.8 374.9 278.2 375.2 278.2 C 375.5 278.3 375.2 277.3 375.2 276.9 C 375.3 276.5 374.6 275.5 374.6 275.1 C 374.5 274.7 374.2 275.2 374.3 274.6 C 374.3 273.9 374.7 274.5 374.9 275.4 C 375.1 276.3 375.3 275.4 375.3 275.0 C 375.4 274.7 375.1 273.7 375.1 273.4 C 375.2 273.1 374.7 273.2 374.7 272.7 C 374.7 272.2 375.2 272.8 375.3 272.4 C 375.4 272.0 374.9 271.7 374.8 271.3 C 374.7 271.0 375.0 271.3 375.0 271.1 C 375.0 270.9 375.2 270.7 375.1 270.2 C 375.0 269.6 374.8 269.6 374.8 269.4 C 374.7 269.1 374.7 268.7 374.7 268.7 C 374.9 268.9 375.1 269.0 375.3 269.1 C 375.3 269.1 375.3 268.3 375.3 268.1 C 375.4 267.9 375.1 267.1 375.0 267.2 C 374.9 267.2 374.6 266.3 374.7 266.3 C 374.7 266.2 374.9 266.1 375.0 266.0 C 375.1 266.0 375.2 266.1 375.3 266.1 C 375.8 266.2 374.4 264.9 374.2 264.7 C 374.0 264.6 373.5 263.9 373.2 263.8 C 373.0 263.7 372.9 263.8 372.9 263.8 C 372.9 263.9 372.9 263.9 372.8 263.8 C 372.6 263.6 372.8 264.6 372.8 264.8 C 372.8 265.1 373.3 265.8 373.3 265.8 C 373.3 265.8 373.7 266.4 373.7 266.7 C 373.7 267.1 372.9 266.5 372.9 266.5 C 372.9 266.5 372.7 266.8 372.8 267.3 C 372.8 267.8 373.5 268.8 373.6 269.0 C 373.7 269.2 373.1 268.7 373.1 269.0 C 373.0 269.2 372.8 269.5 372.8 269.7 C 372.9 269.8 373.3 270.4 373.3 270.4 C 373.3 270.4 373.5 271.2 373.5 271.3 C 373.5 271.4 372.9 270.7 372.9 270.7 C 372.9 270.7 372.8 271.8 372.7 272.0 C 372.7 272.3 372.8 272.8 372.9 273.0 C 372.9 273.2 373.6 274.0 373.6 274.2 C 373.5 274.4 373.1 273.6 373.0 273.8 C 372.9 274.0 372.8 274.4 372.8 274.5 C 372.8 274.7 373.0 275.0 373.1 275.3 C 373.1 275.5 373.7 276.2 373.7 276.5 C 373.7 276.9 373.3 276.8 373.3 276.9 C 373.2 277.0 372.7 276.8 372.7 277.1 C 372.7 277.4 373.0 277.4 373.0 277.6 C 373.0 277.9 373.4 278.1 373.3 278.3 C 373.2 278.5 372.6 278.1 372.7 278.4 C 372.8 278.6 372.7 278.4 372.8 279.2 C 372.8 279.2 372.8 279.2 372.8 279.2 Z M 373.9 263.9 C 373.3 263.6 373.2 263.9 373.6 264.2 C 373.9 264.5 374.7 265.2 374.8 265.4 C 374.9 265.6 375.0 266.1 375.7 266.2 C 376.5 266.4 376.4 266.1 376.2 266.0 C 376.1 265.8 375.5 265.0 375.7 265.1 C 375.9 265.2 376.3 265.4 376.5 265.5 C 376.6 265.6 377.6 266.3 377.8 266.2 C 378.0 266.1 378.1 265.9 378.1 265.9 C 378.2 265.9 378.4 265.9 378.5 265.9 C 378.5 265.9 379.4 266.3 379.6 266.2 C 379.9 266.1 380.3 266.1 380.6 266.1 C 380.9 266.2 381.1 266.1 380.9 265.9 C 380.8 265.8 380.6 265.1 380.6 265.1 C 380.6 265.1 380.8 265.0 381.1 265.1 C 381.3 265.2 381.7 265.5 381.8 265.7 C 381.9 265.8 382.3 266.1 382.6 266.2 C 382.9 266.3 384.3 266.6 384.3 266.4 C 384.3 266.2 384.0 265.9 384.1 265.9 C 384.1 265.8 384.9 265.8 385.1 265.9 C 385.3 266.1 385.6 266.5 385.8 266.5 C 386.0 266.4 386.5 266.5 386.4 266.4 C 386.3 266.3 386.4 266.2 386.2 266.0 C 386.0 265.8 386.3 265.6 386.3 265.5 C 386.3 265.4 386.6 265.4 386.6 265.4 C 386.8 265.5 387.1 265.6 387.3 265.7 C 387.3 265.7 387.4 266.1 387.3 266.2 C 387.3 266.2 387.7 266.5 387.9 266.5 C 388.0 266.6 388.8 266.5 388.8 266.5 C 388.6 266.2 388.3 265.9 388.1 265.6 C 388.2 265.6 388.4 265.5 388.5 265.4 C 388.5 265.4 389.3 266.5 389.7 266.5 C 390.1 266.5 390.6 266.5 390.6 266.5 C 390.6 266.5 390.6 266.1 390.7 266.0 C 390.8 266.0 390.1 265.1 390.1 265.1 C 389.8 264.8 389.4 264.4 389.1 264.1 C 389.1 264.1 388.3 263.7 388.2 263.9 C 388.0 264.0 388.6 264.4 388.7 264.5 C 388.8 264.7 388.5 264.9 388.5 264.9 C 388.2 264.7 387.8 264.5 387.5 264.3 C 387.5 264.3 387.2 264.1 386.9 264.0 C 386.5 263.8 385.8 263.7 385.7 263.7 C 385.6 263.8 385.6 264.1 385.6 264.2 C 385.5 264.4 385.8 264.7 385.3 264.5 C 384.8 264.2 384.5 264.0 384.3 264.0 C 384.2 264.0 383.9 264.3 383.9 264.3 C 383.9 264.4 383.8 264.5 383.7 264.5 C 383.7 264.5 383.4 264.7 383.2 264.5 C 382.9 264.3 382.3 264.5 382.3 264.5 C 382.3 264.5 381.8 263.9 381.5 263.8 C 381.2 263.7 380.7 263.6 380.4 263.7 C 380.2 263.8 380.4 264.4 380.4 264.4 C 380.2 264.2 379.9 264.1 379.7 263.9 C 379.3 263.9 378.9 263.8 378.6 263.8 C 378.6 263.8 377.8 263.8 377.9 263.9 C 378.0 264.0 378.6 264.5 378.7 264.7 C 378.8 264.8 378.6 265.0 378.4 264.8 C 378.1 264.7 377.3 264.2 377.3 264.2 C 377.3 264.2 376.7 263.9 376.5 263.8 C 376.2 263.8 376.0 264.0 376.0 264.1 C 376.0 264.2 376.1 264.5 376.1 264.5 C 375.8 264.4 375.6 264.2 375.3 264.1 C 375.3 264.1 375.0 264.3 373.9 263.9 C 373.9 263.9 373.9 263.9 373.9 263.9 Z M 389.2 263.7 C 388.4 263.8 390.6 265.8 391.2 266.2 C 391.9 266.6 392.2 266.3 392.7 266.4 C 393.3 266.5 392.6 265.8 392.8 265.7 C 392.9 265.5 393.2 265.9 393.5 266.2 C 393.9 266.5 394.5 266.2 395.0 266.2 C 395.5 266.3 395.4 265.6 395.8 265.6 C 396.1 265.5 395.2 265.2 395.9 265.2 C 396.6 265.3 396.6 265.7 395.9 265.9 C 395.3 266.1 396.5 266.2 397.0 266.3 C 397.5 266.4 398.0 266.1 398.4 266.1 C 398.8 266.2 397.9 265.7 398.4 265.7 C 398.9 265.7 399.1 266.2 399.6 266.3 C 400.2 266.4 399.8 265.9 400.0 265.8 C 400.1 265.7 400.3 265.9 400.5 266.0 C 400.8 266.0 401.2 266.2 401.6 266.1 C 402.0 265.9 401.8 265.8 402.0 265.8 C 402.1 265.7 402.5 265.7 402.5 265.7 C 402.7 265.9 402.8 266.1 403.0 266.2 C 403.0 266.2 403.9 266.3 404.1 266.3 C 404.4 266.4 404.8 266.1 404.6 266.0 C 404.4 265.9 404.7 265.6 404.9 265.7 C 405.1 265.7 405.7 266.0 406.1 266.1 C 406.5 266.2 405.5 264.9 405.4 264.7 C 405.2 264.6 404.9 263.9 404.6 263.8 C 404.3 263.7 404.3 264.0 404.2 263.8 C 404.1 263.6 403.4 263.8 403.2 263.8 C 403.0 263.8 403.1 264.3 403.1 264.3 C 403.1 264.3 403.1 264.7 402.8 264.7 C 402.4 264.7 401.7 263.9 401.7 263.9 C 401.7 263.9 401.2 263.7 400.8 263.7 C 400.4 263.8 400.4 264.4 400.4 264.6 C 400.4 264.7 400.0 264.1 399.6 264.1 C 399.3 264.0 398.7 263.8 398.6 263.8 C 398.5 263.9 398.6 264.3 398.6 264.3 C 398.6 264.3 398.2 264.5 398.1 264.5 C 397.9 264.5 397.7 263.9 397.7 263.9 C 397.7 263.9 396.4 263.7 396.1 263.7 C 395.8 263.7 395.5 263.8 395.4 263.8 C 395.3 263.9 395.6 264.6 395.3 264.6 C 394.9 264.5 395.1 264.1 394.8 264.0 C 394.5 263.9 393.9 263.8 393.8 263.8 C 393.7 263.8 393.7 264.0 393.5 264.1 C 393.3 264.1 393.4 264.7 393.1 264.7 C 392.8 264.7 392.3 264.3 392.1 264.3 C 391.9 264.2 391.5 263.7 391.2 263.7 C 390.9 263.7 391.3 264.0 391.1 264.0 C 390.8 264.0 391.1 264.4 390.8 264.3 C 390.5 264.2 390.1 263.6 389.9 263.7 C 389.8 263.7 389.9 263.7 389.2 263.7 C 389.2 263.7 389.2 263.7 389.2 263.7 Z M 405.3 263.9 C 404.8 263.6 404.7 263.9 404.9 264.2 C 405.1 264.5 405.8 265.2 405.8 265.4 C 405.8 265.6 405.7 266.1 406.4 266.2 C 407.1 266.4 407.1 266.1 407.0 266.0 C 406.9 265.8 406.5 265.0 406.7 265.1 C 407.0 265.2 407.3 265.4 407.4 265.5 C 407.5 265.6 408.2 266.3 408.5 266.2 C 408.7 266.1 408.9 265.9 408.9 265.9 C 409.0 265.9 409.2 265.9 409.3 265.9 C 409.3 265.9 410.1 266.3 410.3 266.2 C 410.6 266.1 411.0 266.1 411.3 266.1 C 411.6 266.2 411.8 266.1 411.7 265.9 C 411.7 265.8 411.6 265.1 411.6 265.1 C 411.6 265.1 411.9 265.0 412.1 265.1 C 412.4 265.2 412.6 265.5 412.7 265.7 C 412.7 265.8 413.0 266.1 413.3 266.2 C 413.6 266.3 414.9 266.6 415.0 266.4 C 415.0 266.2 414.8 265.9 414.9 265.9 C 415.0 265.8 415.7 265.8 415.9 265.9 C 416.0 266.1 416.2 266.5 416.4 266.5 C 416.6 266.4 417.1 266.5 417.0 266.4 C 417.0 266.3 417.1 266.2 416.9 266.0 C 416.8 265.8 417.2 265.6 417.2 265.5 C 417.2 265.4 417.6 265.4 417.6 265.4 C 417.8 265.5 418.0 265.6 418.2 265.7 C 418.2 265.7 418.1 266.1 418.1 266.2 C 418.0 266.2 418.3 266.5 418.5 266.5 C 418.6 266.6 419.4 266.5 419.4 266.5 C 419.3 266.2 419.1 265.9 419.0 265.6 C 419.1 265.6 419.3 265.5 419.5 265.4 C 419.5 265.4 419.9 266.5 420.3 266.5 C 420.7 266.5 421.2 266.5 421.2 266.5 C 421.2 266.5 421.4 266.1 421.5 266.0 C 421.6 266.0 421.1 265.1 421.1 265.1 C 420.9 264.8 420.7 264.4 420.5 264.1 C 420.5 264.1 419.8 263.7 419.6 263.9 C 419.4 264.0 419.8 264.4 419.9 264.5 C 419.9 264.7 419.6 264.9 419.6 264.9 C 419.4 264.7 419.1 264.5 418.8 264.3 C 418.8 264.3 418.5 264.1 418.2 264.0 C 418.0 263.8 417.3 263.7 417.2 263.7 C 417.0 263.8 417.0 264.1 416.9 264.2 C 416.7 264.4 417.0 264.7 416.6 264.5 C 416.2 264.2 415.9 264.0 415.7 264.0 C 415.6 264.0 415.2 264.3 415.2 264.3 C 415.1 264.4 415.0 264.5 414.9 264.5 C 414.9 264.5 414.6 264.7 414.4 264.5 C 414.2 264.3 413.5 264.5 413.5 264.5 C 413.5 264.5 413.2 263.9 412.9 263.8 C 412.6 263.7 412.2 263.6 411.9 263.7 C 411.6 263.8 411.7 264.4 411.7 264.4 C 411.5 264.2 411.3 264.1 411.1 263.9 C 410.7 263.9 410.4 263.8 410.0 263.8 C 410.0 263.8 409.3 263.8 409.3 263.9 C 409.4 264.0 409.8 264.5 409.9 264.7 C 409.9 264.8 409.6 265.0 409.5 264.8 C 409.3 264.7 408.7 264.2 408.7 264.2 C 408.7 264.2 408.1 263.9 407.9 263.8 C 407.7 263.8 407.4 264.0 407.4 264.1 C 407.4 264.2 407.3 264.5 407.3 264.5 C 407.1 264.4 406.9 264.2 406.7 264.1 C 406.7 264.1 406.2 264.3 405.3 263.9 C 405.3 263.9 405.3 263.9 405.3 263.9 Z M 420.6 263.7 C 419.9 263.8 421.4 265.8 422.0 266.2 C 422.5 266.6 422.8 266.3 423.4 266.4 C 423.9 266.5 423.4 265.8 423.7 265.7 C 423.9 265.5 424.0 265.9 424.2 266.2 C 424.5 266.5 425.2 266.2 425.7 266.2 C 426.1 266.3 426.3 265.6 426.7 265.6 C 427.1 265.5 426.2 265.2 426.9 265.2 C 427.6 265.3 427.4 265.7 426.7 265.9 C 426.1 266.1 427.2 266.2 427.7 266.3 C 428.2 266.4 428.7 266.1 429.1 266.1 C 429.5 266.2 428.8 265.7 429.3 265.7 C 429.8 265.7 429.8 266.2 430.3 266.3 C 430.9 266.4 430.6 265.9 430.8 265.8 C 431.0 265.7 431.1 265.9 431.3 266.0 C 431.5 266.0 431.9 266.2 432.4 266.1 C 432.8 265.9 432.6 265.8 432.8 265.8 C 433.0 265.7 433.4 265.7 433.4 265.7 C 433.5 265.9 433.6 266.1 433.7 266.2 C 433.7 266.2 434.5 266.3 434.8 266.3 C 435.1 266.4 435.6 266.1 435.4 266.0 C 435.2 265.9 435.6 265.6 435.8 265.7 C 435.9 265.7 436.5 266.0 436.8 266.1 C 437.2 266.2 436.6 264.9 436.5 264.7 C 436.4 264.6 436.4 263.9 436.1 263.8 C 435.8 263.7 435.7 264.0 435.6 263.8 C 435.6 263.6 434.9 263.8 434.7 263.8 C 434.4 263.8 434.4 264.3 434.4 264.3 C 434.4 264.3 434.3 264.7 434.0 264.7 C 433.6 264.7 433.2 263.9 433.2 263.9 C 433.2 263.9 432.7 263.7 432.2 263.7 C 431.8 263.8 431.6 264.4 431.6 264.6 C 431.6 264.7 431.3 264.1 431.0 264.1 C 430.7 264.0 430.1 263.8 430.0 263.8 C 429.9 263.9 429.9 264.3 429.9 264.3 C 429.9 264.3 429.4 264.5 429.3 264.5 C 429.1 264.5 429.1 263.9 429.1 263.9 C 429.1 263.9 427.8 263.7 427.6 263.7 C 427.3 263.7 427.0 263.8 426.8 263.8 C 426.7 263.9 426.8 264.6 426.5 264.6 C 426.2 264.5 426.5 264.1 426.2 264.0 C 425.9 263.9 425.4 263.8 425.2 263.8 C 425.1 263.8 425.0 264.0 424.8 264.1 C 424.7 264.1 424.6 264.7 424.3 264.7 C 423.9 264.7 423.6 264.3 423.4 264.3 C 423.3 264.2 422.9 263.7 422.6 263.7 C 422.3 263.7 422.7 264.0 422.5 264.0 C 422.2 264.0 422.4 264.4 422.1 264.3 C 421.8 264.2 421.6 263.6 421.4 263.7 C 421.3 263.7 421.4 263.7 420.6 263.7 C 420.6 263.7 420.6 263.7 420.6 263.7 Z M 438.0 264.4 C 437.8 264.4 437.5 264.1 437.1 263.9 C 436.6 263.8 436.1 263.8 436.2 264.0 C 436.4 264.3 436.7 264.4 436.5 264.7 C 436.4 265.0 436.4 265.6 436.7 265.8 C 437.1 266.0 438.5 266.5 438.8 266.2 C 439.0 265.9 439.1 265.8 439.3 265.6 C 439.5 265.5 439.6 266.1 439.6 266.1 C 439.6 266.1 440.2 266.1 440.7 266.2 C 441.2 266.2 441.7 266.2 441.8 266.1 C 441.8 266.0 441.9 265.8 441.9 265.8 C 441.9 265.8 442.2 266.1 442.6 266.2 C 443.0 266.2 442.8 266.0 442.7 265.9 C 442.6 265.8 442.0 265.4 442.2 265.4 C 442.3 265.4 443.0 266.0 443.2 266.0 C 443.5 266.1 444.0 266.1 444.0 266.1 C 444.0 266.1 443.9 265.7 443.9 265.6 C 443.9 265.6 444.5 265.5 444.5 265.6 C 444.6 265.8 444.7 266.1 444.9 266.1 C 445.8 266.2 445.5 265.5 445.6 265.5 C 445.6 265.5 445.8 266.0 446.0 266.1 C 446.2 266.2 447.9 266.1 447.9 266.0 C 448.0 265.8 448.7 266.3 448.8 266.0 C 449.0 265.7 449.1 265.6 449.1 265.5 C 449.1 265.4 449.3 264.9 449.5 265.1 C 449.7 265.3 449.2 265.9 449.4 266.0 C 449.7 266.2 450.7 266.2 450.9 266.1 C 451.1 265.8 451.0 265.4 451.2 265.4 C 451.3 265.4 452.1 266.0 452.1 265.9 C 452.1 265.8 452.1 265.3 452.1 265.2 C 452.0 265.1 452.0 264.1 451.9 264.0 C 451.7 263.9 451.0 263.5 451.1 263.8 C 451.3 264.1 451.5 264.4 451.3 264.5 C 451.1 264.6 451.0 264.7 450.9 264.6 C 450.8 264.5 450.9 264.3 450.5 264.2 C 450.1 264.0 450.2 263.8 449.9 263.8 C 449.5 263.8 449.2 263.9 449.3 264.1 C 449.4 264.3 449.1 264.6 448.8 264.6 C 448.6 264.5 448.9 264.1 448.1 263.9 C 447.2 263.7 446.7 263.7 446.5 263.9 C 446.3 264.0 446.4 264.6 446.0 264.3 C 445.5 264.1 445.7 264.0 445.2 264.0 C 444.7 264.0 444.6 264.4 444.3 264.4 C 444.0 264.5 443.9 264.4 443.9 264.4 C 443.9 264.4 443.9 263.8 443.1 263.8 C 442.4 263.7 442.2 263.7 442.5 264.1 C 442.8 264.6 442.2 264.6 442.1 264.3 C 442.0 264.0 441.5 263.8 441.2 263.8 C 441.0 263.7 441.1 264.5 441.1 264.5 C 441.0 264.6 440.6 264.5 440.7 264.3 C 440.7 264.0 440.4 264.0 440.1 263.9 C 439.9 263.8 439.2 263.9 439.3 264.0 C 439.3 264.1 439.8 264.6 439.3 264.4 C 438.8 264.1 438.5 263.7 438.1 263.8 C 437.6 263.8 438.2 264.2 438.0 264.4 C 438.0 264.4 438.0 264.4 438.0 264.4 Z M 452.5 263.9 C 452.0 263.6 451.8 263.9 451.9 264.2 C 452.0 264.5 452.3 265.2 452.2 265.4 C 452.1 265.6 451.8 266.1 452.5 266.2 C 453.1 266.4 453.2 266.1 453.2 266.0 C 453.1 265.8 453.1 265.0 453.3 265.1 C 453.5 265.2 453.7 265.4 453.8 265.5 C 453.8 265.6 454.2 266.3 454.5 266.2 C 454.8 266.1 455.1 265.9 455.1 265.9 C 455.2 265.9 455.4 265.9 455.5 265.9 C 455.5 265.9 456.1 266.3 456.4 266.2 C 456.7 266.1 457.1 266.1 457.4 266.1 C 457.6 266.2 457.9 266.1 457.9 265.9 C 457.9 265.8 458.2 265.1 458.2 265.1 C 458.2 265.1 458.5 265.0 458.7 265.1 C 458.9 265.2 459.0 265.5 459.0 265.7 C 459.0 265.8 459.1 266.1 459.3 266.2 C 459.6 266.3 460.8 266.6 460.9 266.4 C 461.1 266.2 461.0 265.9 461.1 265.9 C 461.2 265.8 462.0 265.8 462.0 265.9 C 462.1 266.1 462.1 266.5 462.3 266.5 C 462.6 266.4 463.0 266.5 463.0 266.4 C 463.0 266.3 463.1 266.2 463.1 266.0 C 463.1 265.8 463.5 265.6 463.6 265.5 C 463.6 265.4 464.0 265.4 464.0 265.4 C 464.1 265.5 464.3 265.6 464.5 265.7 C 464.5 265.7 464.2 266.1 464.1 266.2 C 464.0 266.2 464.2 266.5 464.4 266.5 C 464.5 266.6 465.3 266.5 465.3 266.5 C 465.3 266.2 465.3 265.9 465.3 265.6 C 465.5 265.6 465.7 265.5 465.9 265.4 C 465.9 265.4 465.9 266.5 466.3 266.5 C 466.7 266.5 467.1 266.5 467.1 266.5 C 467.1 266.5 467.5 266.1 467.6 266.0 C 467.7 266.0 467.7 265.1 467.7 265.1 C 467.6 264.8 467.6 264.4 467.5 264.1 C 467.5 264.1 467.0 263.7 466.7 263.9 C 466.5 264.0 466.7 264.4 466.7 264.5 C 466.7 264.7 466.3 264.9 466.3 264.9 C 466.1 264.7 465.9 264.5 465.7 264.3 C 465.7 264.3 465.5 264.1 465.3 264.0 C 465.1 263.8 464.5 263.7 464.3 263.7 C 464.2 263.8 464.0 264.1 463.8 264.2 C 463.6 264.4 463.7 264.7 463.4 264.5 C 463.1 264.2 462.9 264.0 462.8 264.0 C 462.7 264.0 462.2 264.3 462.2 264.3 C 462.0 264.4 461.9 264.5 461.7 264.5 C 461.7 264.5 461.3 264.7 461.2 264.5 C 461.1 264.3 460.3 264.5 460.3 264.5 C 460.3 264.5 460.3 263.9 460.1 263.8 C 459.8 263.7 459.4 263.6 459.1 263.7 C 458.8 263.8 458.6 264.4 458.6 264.4 C 458.5 264.2 458.3 264.1 458.2 263.9 C 457.9 263.9 457.5 263.8 457.2 263.8 C 457.2 263.8 456.4 263.8 456.4 263.9 C 456.5 264.0 456.6 264.5 456.6 264.7 C 456.6 264.8 456.3 265.0 456.2 264.8 C 456.1 264.7 455.7 264.2 455.7 264.2 C 455.7 264.2 455.3 263.9 455.1 263.8 C 454.8 263.8 454.5 264.0 454.4 264.1 C 454.4 264.2 454.1 264.5 454.1 264.5 C 454.0 264.4 453.8 264.2 453.7 264.1 C 453.7 264.1 453.2 264.3 452.5 263.9 C 452.5 263.9 452.5 263.9 452.5 263.9 Z M 467.8 263.7 C 467.0 263.8 467.7 265.8 468.0 266.2 C 468.4 266.6 468.8 266.3 469.4 266.4 C 469.9 266.5 469.7 265.8 470.0 265.7 C 470.3 265.5 470.2 265.9 470.3 266.2 C 470.5 266.5 471.2 266.2 471.7 266.2 C 472.2 266.3 472.7 265.6 473.0 265.6 C 473.4 265.5 472.7 265.2 473.4 265.2 C 474.1 265.3 473.7 265.7 473.0 265.9 C 472.2 266.1 473.3 266.2 473.7 266.3 C 474.1 266.4 474.9 266.1 475.2 266.1 C 475.5 266.2 475.1 265.7 475.6 265.7 C 476.1 265.7 475.8 266.2 476.3 266.3 C 476.8 266.4 476.8 265.9 477.0 265.8 C 477.3 265.7 477.2 265.9 477.5 266.0 C 477.7 266.0 478.0 266.2 478.5 266.1 C 479.0 265.9 478.8 265.8 479.1 265.8 C 479.3 265.7 479.6 265.7 479.6 265.7 C 479.7 265.9 479.7 266.1 479.7 266.2 C 479.7 266.2 480.6 266.3 480.8 266.3 C 481.1 266.4 481.7 266.1 481.5 266.0 C 481.4 265.9 482.0 265.6 482.1 265.7 C 482.2 265.7 482.6 266.0 482.9 266.1 C 483.2 266.2 483.2 264.9 483.2 264.7 C 483.3 264.6 483.5 263.9 483.2 263.8 C 483.0 263.7 482.7 264.0 482.8 263.8 C 482.9 263.6 482.0 263.8 481.8 263.8 C 481.6 263.8 481.3 264.3 481.3 264.3 C 481.3 264.3 481.1 264.7 480.7 264.7 C 480.4 264.7 480.3 263.9 480.3 263.9 C 480.3 263.9 479.9 263.7 479.4 263.7 C 479.0 263.8 478.5 264.4 478.4 264.6 C 478.3 264.7 478.3 264.1 478.0 264.1 C 477.7 264.0 477.3 263.8 477.2 263.8 C 477.0 263.9 476.8 264.3 476.8 264.3 C 476.8 264.3 476.2 264.5 476.1 264.5 C 476.0 264.5 476.2 263.9 476.2 263.9 C 476.2 263.9 475.0 263.7 474.8 263.7 C 474.5 263.7 474.1 263.8 474.0 263.8 C 473.8 263.9 473.5 264.6 473.3 264.6 C 473.0 264.5 473.5 264.1 473.3 264.0 C 473.0 263.9 472.5 263.8 472.4 263.8 C 472.3 263.8 472.1 264.0 471.9 264.1 C 471.7 264.1 471.4 264.7 471.0 264.7 C 470.7 264.7 470.5 264.3 470.4 264.3 C 470.2 264.2 470.1 263.7 469.9 263.7 C 469.6 263.7 469.8 264.0 469.5 264.0 C 469.3 264.0 469.3 264.4 469.0 264.3 C 468.8 264.2 468.9 263.6 468.6 263.7 C 468.5 263.7 468.6 263.7 467.8 263.7 C 467.8 263.7 467.8 263.7 467.8 263.7 Z M 483.9 263.9 C 483.5 263.6 483.2 263.9 483.2 264.2 C 483.2 264.5 483.3 265.2 483.1 265.4 C 483.0 265.6 482.5 266.1 483.2 266.2 C 483.8 266.4 483.9 266.1 484.0 266.0 C 484.0 265.8 484.2 265.0 484.3 265.1 C 484.5 265.2 484.7 265.4 484.7 265.5 C 484.7 265.6 484.9 266.3 485.2 266.2 C 485.6 266.1 485.9 265.9 485.9 265.9 C 486.0 265.9 486.2 265.9 486.4 265.9 C 486.4 265.9 486.7 266.3 487.1 266.2 C 487.5 266.1 487.8 266.1 488.1 266.1 C 488.3 266.2 488.6 266.1 488.7 265.9 C 488.8 265.8 489.2 265.1 489.2 265.1 C 489.2 265.1 489.6 265.0 489.8 265.1 C 489.9 265.2 489.9 265.5 489.9 265.7 C 489.8 265.8 489.8 266.1 490.0 266.2 C 490.3 266.3 491.3 266.6 491.6 266.4 C 491.8 266.2 491.8 265.9 491.9 265.9 C 492.0 265.8 492.8 265.8 492.8 265.9 C 492.9 266.1 492.7 266.5 493.0 266.5 C 493.2 266.4 493.6 266.5 493.6 266.4 C 493.6 266.3 493.8 266.2 493.9 266.0 C 493.9 265.8 494.4 265.6 494.5 265.5 C 494.6 265.4 494.9 265.4 494.9 265.4 C 495.1 265.5 495.2 265.6 495.3 265.7 C 495.3 265.7 495.0 266.1 494.8 266.2 C 494.7 266.2 494.9 266.5 495.0 266.5 C 495.1 266.6 495.9 266.5 495.9 266.5 C 496.0 266.2 496.1 265.9 496.2 265.6 C 496.4 265.6 496.6 265.5 496.8 265.4 C 496.8 265.4 496.5 266.5 496.9 266.5 C 497.3 266.5 497.8 266.5 497.8 266.5 C 497.8 266.5 498.2 266.1 498.4 266.0 C 498.5 266.0 498.7 265.1 498.7 265.1 C 498.8 264.8 498.8 264.4 498.9 264.1 C 498.9 264.1 498.5 263.7 498.2 263.9 C 497.9 264.0 498.0 264.4 497.9 264.5 C 497.8 264.7 497.4 264.9 497.4 264.9 C 497.3 264.7 497.1 264.5 497.0 264.3 C 497.0 264.3 496.9 264.1 496.7 264.0 C 496.6 263.8 496.0 263.7 495.8 263.7 C 495.6 263.8 495.4 264.1 495.1 264.2 C 494.9 264.4 494.9 264.7 494.6 264.5 C 494.4 264.2 494.3 264.0 494.2 264.0 C 494.1 264.0 493.4 264.3 493.4 264.3 C 493.3 264.4 493.1 264.5 492.9 264.5 C 492.9 264.5 492.5 264.7 492.4 264.5 C 492.4 264.3 491.5 264.5 491.5 264.5 C 491.5 264.5 491.7 263.9 491.5 263.8 C 491.3 263.7 491.0 263.6 490.6 263.7 C 490.2 263.8 489.9 264.4 489.9 264.4 C 489.8 264.2 489.7 264.1 489.6 263.9 C 489.3 263.9 489.0 263.8 488.6 263.8 C 488.6 263.8 487.9 263.8 487.9 263.9 C 487.8 264.0 487.9 264.5 487.8 264.7 C 487.7 264.8 487.3 265.0 487.3 264.8 C 487.3 264.7 487.0 264.2 487.0 264.2 C 487.0 264.2 486.7 263.9 486.5 263.8 C 486.3 263.8 485.9 264.0 485.8 264.1 C 485.7 264.2 485.3 264.5 485.3 264.5 C 485.2 264.4 485.2 264.2 485.1 264.1 C 485.1 264.1 484.5 264.3 483.9 263.9 C 483.9 263.9 483.9 263.9 483.9 263.9 Z M 499.3 263.7 C 498.5 263.8 498.5 265.8 498.7 266.2 C 498.9 266.6 499.5 266.3 500.0 266.4 C 500.5 266.5 500.5 265.8 500.8 265.7 C 501.2 265.5 501.0 265.9 501.0 266.2 C 501.1 266.5 501.9 266.2 502.4 266.2 C 502.9 266.3 503.5 265.6 503.9 265.6 C 504.3 265.5 503.7 265.2 504.4 265.2 C 505.1 265.3 504.6 265.7 503.8 265.9 C 502.9 266.1 504.0 266.2 504.4 266.3 C 504.8 266.4 505.6 266.1 505.9 266.1 C 506.2 266.2 506.0 265.7 506.5 265.7 C 507.0 265.7 506.5 266.2 507.0 266.3 C 507.5 266.4 507.6 265.9 507.9 265.8 C 508.2 265.7 508.0 265.9 508.2 266.0 C 508.4 266.0 508.7 266.2 509.2 266.1 C 509.7 265.9 509.7 265.8 509.9 265.8 C 510.1 265.7 510.5 265.7 510.5 265.7 C 510.5 265.9 510.4 266.1 510.4 266.2 C 510.4 266.2 511.2 266.3 511.5 266.3 C 511.7 266.4 512.4 266.1 512.3 266.0 C 512.2 265.9 512.9 265.6 513.0 265.7 C 513.1 265.7 513.4 266.0 513.7 266.1 C 513.9 266.2 514.3 264.9 514.4 264.7 C 514.5 264.6 514.9 263.9 514.7 263.8 C 514.4 263.7 514.1 264.0 514.2 263.8 C 514.4 263.6 513.5 263.8 513.3 263.8 C 513.1 263.8 512.6 264.3 512.6 264.3 C 512.6 264.3 512.3 264.7 511.9 264.7 C 511.6 264.7 511.7 263.9 511.7 263.9 C 511.7 263.9 511.3 263.7 510.9 263.7 C 510.4 263.8 509.7 264.4 509.6 264.6 C 509.5 264.7 509.7 264.1 509.4 264.1 C 509.1 264.0 508.7 263.8 508.6 263.8 C 508.5 263.9 508.1 264.3 508.1 264.3 C 508.1 264.3 507.5 264.5 507.3 264.5 C 507.2 264.5 507.6 263.9 507.6 263.9 C 507.6 263.9 506.5 263.7 506.2 263.7 C 506.0 263.7 505.6 263.8 505.4 263.8 C 505.2 263.9 504.7 264.6 504.5 264.6 C 504.3 264.5 504.9 264.1 504.7 264.0 C 504.4 263.9 504.0 263.8 503.8 263.8 C 503.7 263.8 503.5 264.0 503.2 264.1 C 503.0 264.1 502.6 264.7 502.2 264.7 C 501.9 264.7 501.8 264.3 501.7 264.3 C 501.6 264.2 501.6 263.7 501.3 263.7 C 501.1 263.7 501.2 264.0 500.9 264.0 C 500.6 264.0 500.6 264.4 500.3 264.3 C 500.1 264.2 500.4 263.6 500.1 263.7 C 499.9 263.7 500.1 263.7 499.3 263.7 C 499.3 263.7 499.3 263.7 499.3 263.7 Z M 515.3 263.9 C 515.0 263.6 514.6 263.9 514.5 264.2 C 514.4 264.5 514.3 265.2 514.1 265.4 C 513.9 265.6 513.2 266.1 513.8 266.2 C 514.4 266.4 514.7 266.1 514.7 266.0 C 514.8 265.8 515.2 265.0 515.4 265.1 C 515.5 265.2 515.6 265.4 515.6 265.5 C 515.6 265.6 515.6 266.3 515.9 266.2 C 516.3 266.1 516.7 265.9 516.7 265.9 C 516.8 265.9 517.0 265.9 517.2 265.9 C 517.2 265.9 517.4 266.3 517.8 266.2 C 518.2 266.1 518.6 266.1 518.8 266.1 C 519.1 266.2 519.3 266.1 519.5 265.9 C 519.6 265.8 520.2 265.1 520.2 265.1 C 520.2 265.1 520.7 265.0 520.8 265.1 C 520.9 265.2 520.8 265.5 520.7 265.7 C 520.6 265.8 520.5 266.1 520.7 266.2 C 521.0 266.3 521.9 266.6 522.2 266.4 C 522.5 266.2 522.5 265.9 522.7 265.9 C 522.9 265.8 523.6 265.8 523.6 265.9 C 523.6 266.1 523.4 266.5 523.6 266.5 C 523.8 266.4 524.2 266.5 524.3 266.4 C 524.3 266.3 524.5 266.2 524.6 266.0 C 524.7 265.8 525.3 265.6 525.4 265.5 C 525.5 265.4 525.9 265.4 525.9 265.4 C 526.0 265.5 526.1 265.6 526.2 265.7 C 526.2 265.7 525.7 266.1 525.5 266.2 C 525.4 266.2 525.5 266.5 525.6 266.5 C 525.7 266.6 526.5 266.5 526.5 266.5 C 526.7 266.2 526.9 265.9 527.0 265.6 C 527.3 265.6 527.5 265.5 527.7 265.4 C 527.7 265.4 527.1 266.5 527.5 266.5 C 527.9 266.5 528.4 266.5 528.4 266.5 C 528.4 266.5 529.0 266.1 529.1 266.0 C 529.2 266.0 529.8 265.1 529.8 265.1 C 529.9 264.8 530.1 264.4 530.2 264.1 C 530.2 264.1 529.9 263.7 529.6 263.9 C 529.3 264.0 529.3 264.4 529.1 264.5 C 529.0 264.7 528.5 264.9 528.5 264.9 C 528.4 264.7 528.4 264.5 528.3 264.3 C 528.3 264.3 528.2 264.1 528.1 264.0 C 528.0 263.8 527.5 263.7 527.3 263.7 C 527.0 263.8 526.7 264.1 526.4 264.2 C 526.1 264.4 526.0 264.7 525.9 264.5 C 525.7 264.2 525.7 264.0 525.6 264.0 C 525.5 264.0 524.7 264.3 524.7 264.3 C 524.5 264.4 524.3 264.5 524.1 264.5 C 524.1 264.5 523.6 264.7 523.7 264.5 C 523.7 264.3 522.7 264.5 522.7 264.5 C 522.7 264.5 523.1 263.9 522.9 263.8 C 522.8 263.7 522.5 263.6 522.1 263.7 C 521.7 263.8 521.1 264.4 521.1 264.4 C 521.1 264.2 521.0 264.1 521.0 263.9 C 520.7 263.9 520.4 263.8 520.1 263.8 C 520.1 263.8 519.3 263.8 519.3 263.9 C 519.2 264.0 519.1 264.5 519.0 264.7 C 518.9 264.8 518.4 265.0 518.4 264.8 C 518.5 264.7 518.3 264.2 518.3 264.2 C 518.3 264.2 518.1 263.9 517.9 263.8 C 517.7 263.8 517.3 264.0 517.2 264.1 C 517.0 264.2 516.5 264.5 516.5 264.5 C 516.5 264.4 516.5 264.2 516.4 264.1 C 516.4 264.1 515.7 264.3 515.3 263.9 C 515.3 263.9 515.3 263.9 515.3 263.9 Z M 530.7 263.7 C 529.9 263.8 529.4 265.8 529.5 266.2 C 529.5 266.6 530.2 266.3 530.7 266.4 C 531.1 266.5 531.3 265.8 531.7 265.7 C 532.1 265.5 531.8 265.9 531.7 266.2 C 531.7 266.5 532.6 266.2 533.1 266.2 C 533.5 266.3 534.4 265.6 534.8 265.6 C 535.2 265.5 534.7 265.2 535.4 265.2 C 536.0 265.3 535.5 265.7 534.6 265.9 C 533.7 266.1 534.7 266.2 535.0 266.3 C 535.4 266.4 536.3 266.1 536.6 266.1 C 537.0 266.2 536.9 265.7 537.3 265.7 C 537.8 265.7 537.3 266.2 537.7 266.3 C 538.2 266.4 538.4 265.9 538.7 265.8 C 539.0 265.7 538.8 265.9 539.0 266.0 C 539.2 266.0 539.4 266.2 540.0 266.1 C 540.5 265.9 540.5 265.8 540.7 265.8 C 541.0 265.7 541.3 265.7 541.3 265.7 C 541.3 265.9 541.2 266.1 541.1 266.2 C 541.1 266.2 541.9 266.3 542.2 266.3 C 542.4 266.4 543.1 266.1 543.0 266.0 C 543.0 265.9 543.8 265.6 543.8 265.7 C 543.9 265.7 544.2 266.0 544.4 266.1 C 544.6 266.2 545.4 264.9 545.5 264.7 C 545.7 264.6 546.3 263.9 546.1 263.8 C 545.9 263.7 545.5 264.0 545.7 263.8 C 545.9 263.6 544.9 263.8 544.7 263.8 C 544.5 263.8 543.9 264.3 543.9 264.3 C 543.9 264.3 543.4 264.7 543.1 264.7 C 542.7 264.7 543.1 263.9 543.1 263.9 C 543.1 263.9 542.8 263.7 542.3 263.7 C 541.9 263.8 541.0 264.4 540.8 264.6 C 540.6 264.7 541.0 264.1 540.8 264.1 C 540.5 264.0 540.2 263.8 540.0 263.8 C 539.9 263.9 539.4 264.3 539.4 264.3 C 539.4 264.3 538.7 264.5 538.5 264.5 C 538.4 264.5 539.0 263.9 539.0 263.9 C 539.0 263.9 537.9 263.7 537.7 263.7 C 537.5 263.7 537.0 263.8 536.8 263.8 C 536.6 263.9 535.9 264.6 535.7 264.6 C 535.5 264.5 536.2 264.1 536.0 264.0 C 535.8 263.9 535.4 263.8 535.3 263.8 C 535.2 263.8 534.8 264.0 534.6 264.1 C 534.4 264.1 533.7 264.7 533.4 264.7 C 533.0 264.7 533.1 264.3 533.0 264.3 C 532.9 264.2 533.1 263.7 532.8 263.7 C 532.5 263.7 532.5 264.0 532.3 264.0 C 532.0 264.0 531.8 264.4 531.6 264.3 C 531.4 264.2 531.9 263.6 531.5 263.7 C 531.4 263.7 531.5 263.7 530.7 263.7 C 530.7 263.7 530.7 263.7 530.7 263.7 Z M 547.4 264.4 C 547.2 264.4 547.3 264.1 547.0 263.9 C 546.6 263.8 546.1 263.8 546.0 264.0 C 546.0 264.3 546.0 264.4 545.6 264.7 C 545.2 265.0 544.5 265.6 544.7 265.8 C 544.9 266.0 545.6 266.5 546.2 266.2 C 546.8 265.9 547.0 265.8 547.4 265.6 C 547.8 265.5 547.2 266.1 547.2 266.1 C 547.2 266.1 547.8 266.1 548.2 266.2 C 548.6 266.2 549.2 266.2 549.3 266.1 C 549.4 266.0 549.8 265.8 549.8 265.8 C 549.8 265.8 549.8 266.1 550.1 266.2 C 550.4 266.2 550.4 266.0 550.5 265.9 C 550.5 265.8 550.4 265.4 550.5 265.4 C 550.7 265.4 550.7 266.0 550.9 266.0 C 551.1 266.1 551.7 266.1 551.7 266.1 C 551.7 266.1 551.9 265.7 552.0 265.6 C 552.1 265.6 552.7 265.5 552.6 265.6 C 552.5 265.8 552.2 266.1 552.5 266.1 C 553.3 266.2 553.7 265.5 553.8 265.5 C 553.9 265.5 553.5 266.0 553.6 266.1 C 553.7 266.2 555.5 266.1 555.7 266.0 C 555.8 265.8 556.0 266.3 556.5 266.0 C 557.0 265.7 557.2 265.6 557.3 265.5 C 557.4 265.4 558.2 264.9 558.2 265.1 C 558.1 265.3 557.0 265.9 557.1 266.0 C 557.2 266.2 558.2 266.2 558.5 266.1 C 558.9 265.8 559.4 265.4 559.5 265.4 C 559.7 265.4 559.8 266.0 559.9 265.9 C 560.0 265.8 560.6 265.3 560.6 265.2 C 560.7 265.1 561.7 264.1 561.7 264.0 C 561.7 263.9 561.3 263.5 561.2 263.8 C 561.0 264.1 560.9 264.4 560.6 264.5 C 560.3 264.6 560.1 264.7 560.2 264.6 C 560.2 264.5 560.4 264.3 560.2 264.2 C 559.9 264.0 560.3 263.8 560.0 263.8 C 559.6 263.8 559.2 263.9 559.1 264.1 C 558.9 264.3 558.3 264.6 558.1 264.6 C 557.8 264.5 558.6 264.1 558.0 263.9 C 557.3 263.7 556.9 263.7 556.5 263.9 C 556.1 264.0 555.6 264.6 555.5 264.3 C 555.3 264.1 555.6 264.0 555.1 264.0 C 554.5 264.0 554.0 264.4 553.7 264.4 C 553.3 264.5 553.2 264.4 553.2 264.4 C 553.2 264.4 553.9 263.8 553.2 263.8 C 552.5 263.7 552.4 263.7 552.2 264.1 C 552.0 264.6 551.4 264.6 551.6 264.3 C 551.8 264.0 551.5 263.8 551.3 263.8 C 551.1 263.7 550.4 264.5 550.3 264.5 C 550.2 264.6 549.9 264.5 550.2 264.3 C 550.5 264.0 550.3 264.0 550.1 263.9 C 549.9 263.8 549.2 263.9 549.1 264.0 C 549.0 264.1 549.0 264.6 548.7 264.4 C 548.5 264.1 548.6 263.7 548.2 263.8 C 547.7 263.8 547.8 264.2 547.4 264.4 C 547.4 264.4 547.4 264.4 547.4 264.4 Z M 562.4 263.9 C 562.3 263.6 561.7 263.9 561.5 264.2 C 561.3 264.5 560.8 265.2 560.5 265.4 C 560.2 265.6 559.3 266.1 559.9 266.2 C 560.4 266.4 560.8 266.1 560.9 266.0 C 561.0 265.8 561.8 265.0 561.9 265.1 C 562.1 265.2 562.1 265.4 562.0 265.5 C 562.0 265.6 561.6 266.3 562.0 266.2 C 562.4 266.1 562.9 265.9 562.9 265.9 C 563.0 265.9 563.2 265.9 563.4 265.9 C 563.4 265.9 563.4 266.3 563.8 266.2 C 564.3 266.1 564.7 266.1 564.9 266.1 C 565.1 266.2 565.4 266.1 565.6 265.9 C 565.8 265.8 566.8 265.1 566.8 265.1 C 566.8 265.1 567.3 265.0 567.4 265.1 C 567.5 265.2 567.2 265.5 567.0 265.7 C 566.9 265.8 566.6 266.1 566.8 266.2 C 567.0 266.3 567.8 266.6 568.1 266.4 C 568.5 266.2 568.7 265.9 568.9 265.9 C 569.1 265.8 569.9 265.8 569.8 265.9 C 569.7 266.1 569.3 266.5 569.5 266.5 C 569.8 266.4 570.1 266.5 570.2 266.4 C 570.3 266.3 570.6 266.2 570.8 266.0 C 571.0 265.8 571.6 265.6 571.8 265.5 C 572.0 265.4 572.3 265.4 572.3 265.4 C 572.4 265.5 572.4 265.6 572.4 265.7 C 572.4 265.7 571.8 266.1 571.6 266.2 C 571.4 266.2 571.4 266.5 571.5 266.5 C 571.6 266.6 572.5 266.5 572.5 266.5 C 572.8 266.2 573.1 265.9 573.4 265.6 C 573.6 265.6 573.9 265.5 574.1 265.4 C 574.1 265.4 573.1 266.5 573.5 266.5 C 573.8 266.5 574.3 266.5 574.3 266.5 C 574.3 266.5 575.1 266.1 575.2 266.0 C 575.3 266.0 575.3 266.0 575.4 266.0 C 575.6 265.8 576.2 265.2 576.2 265.2 C 576.6 264.8 576.9 264.5 577.3 264.1 C 577.3 264.1 577.3 264.1 577.3 264.1 C 577.2 264.0 577.1 263.7 576.7 263.9 C 576.3 264.0 576.2 264.4 576.0 264.5 C 575.7 264.7 575.2 264.9 575.2 264.9 C 575.2 264.7 575.2 264.5 575.2 264.3 C 575.2 264.3 575.2 264.1 575.2 264.0 C 575.2 263.8 574.7 263.7 574.4 263.7 C 574.2 263.8 573.8 264.1 573.4 264.2 C 573.0 264.4 572.8 264.7 572.7 264.5 C 572.7 264.2 572.8 264.0 572.7 264.0 C 572.6 264.0 571.7 264.3 571.7 264.3 C 571.4 264.4 571.2 264.5 570.9 264.5 C 570.9 264.5 570.4 264.7 570.5 264.5 C 570.6 264.3 569.5 264.5 569.5 264.5 C 569.5 264.5 570.2 263.9 570.1 263.8 C 570.0 263.7 569.7 263.6 569.3 263.7 C 568.8 263.8 568.0 264.4 568.0 264.4 C 568.1 264.2 568.1 264.1 568.1 263.9 C 567.8 263.9 567.5 263.8 567.2 263.8 C 567.2 263.8 566.5 263.8 566.4 263.9 C 566.3 264.0 565.9 264.5 565.7 264.7 C 565.6 264.8 565.0 265.0 565.1 264.8 C 565.2 264.7 565.3 264.2 565.3 264.2 C 565.3 264.2 565.3 263.9 565.1 263.8 C 564.9 263.8 564.4 264.0 564.2 264.1 C 564.0 264.2 563.3 264.5 563.3 264.5 C 563.4 264.4 563.4 264.2 563.5 264.1 C 563.5 264.1 562.7 264.3 562.4 263.9 C 562.4 263.9 562.4 263.9 562.4 263.9 Z M 577.6 264.1 C 577.6 263.9 577.5 263.9 577.3 264.0 C 576.9 264.3 576.5 264.7 576.2 265.1 C 575.7 265.7 575.3 266.2 575.2 266.5 C 574.7 267.2 575.0 267.4 574.9 268.0 C 574.9 268.5 575.5 267.8 575.7 267.9 C 575.8 268.1 575.4 268.3 575.2 268.7 C 574.9 269.0 575.1 269.5 575.1 270.0 C 575.1 270.5 575.7 270.5 575.8 270.8 C 575.8 271.2 576.1 270.3 576.1 271.0 C 576.0 271.7 575.7 271.6 575.5 270.9 C 575.3 270.3 575.1 271.5 575.0 271.9 C 574.9 272.4 575.2 272.9 575.2 273.2 C 575.2 273.6 575.7 272.9 575.6 273.4 C 575.6 273.9 575.1 273.9 575.0 274.4 C 575.0 274.9 575.4 274.6 575.6 274.8 C 575.7 275.0 575.4 275.1 575.3 275.3 C 575.3 275.5 575.2 275.9 575.3 276.3 C 575.4 276.7 575.5 276.5 575.6 276.7 C 575.6 276.9 575.6 277.3 575.6 277.3 C 575.4 277.4 575.3 277.4 575.1 277.5 C 575.1 277.5 575.0 278.3 575.0 278.5 C 575.0 278.8 575.2 279.3 575.3 279.1 C 575.4 279.0 575.7 279.5 575.7 279.6 C 575.6 279.8 575.3 280.2 575.2 280.5 C 575.1 280.7 576.4 280.7 576.6 280.7 C 576.8 280.7 577.5 280.9 577.5 280.6 C 577.6 280.3 577.4 280.1 577.5 280.2 C 577.7 280.2 577.5 279.4 577.5 279.1 C 577.5 278.9 577.1 278.7 577.1 278.7 C 577.1 278.7 576.7 278.5 576.7 278.1 C 576.7 277.8 577.5 277.5 577.5 277.5 C 577.5 277.5 577.6 277.0 577.6 276.6 C 577.5 276.1 576.9 275.8 576.7 275.7 C 576.6 275.7 577.2 275.5 577.3 275.2 C 577.3 274.8 577.5 274.3 577.5 274.1 C 577.5 274.0 577.1 274.0 577.1 274.0 C 577.1 274.0 576.8 273.5 576.8 273.3 C 576.8 273.2 577.4 273.2 577.4 273.2 C 577.4 273.2 577.6 271.8 577.6 271.5 C 577.7 271.2 577.5 270.9 577.5 270.8 C 577.4 270.6 576.7 270.8 576.8 270.5 C 576.8 270.1 577.2 270.4 577.3 270.1 C 577.4 269.8 577.5 269.2 577.5 269.0 C 577.5 268.9 577.3 268.9 577.2 268.7 C 577.2 268.5 576.7 268.6 576.7 268.2 C 576.7 267.9 577.0 267.4 577.1 267.2 C 577.1 267.0 577.6 266.6 577.6 266.2 C 577.7 265.9 577.3 266.4 577.3 266.2 C 577.3 265.9 577.0 266.2 577.0 265.9 C 577.1 265.5 577.7 265.2 577.6 264.9 C 577.6 264.8 577.6 264.9 577.6 264.1 C 577.6 264.1 577.6 264.1 577.6 264.1 Z M 577.5 281.3 C 577.7 280.9 577.4 280.6 577.1 280.6 C 576.8 280.7 576.1 280.8 575.9 280.6 C 575.7 280.5 575.2 280.1 575.1 280.7 C 575.0 281.3 575.2 281.4 575.4 281.5 C 575.5 281.5 576.3 281.6 576.2 281.8 C 576.2 282.0 575.9 282.1 575.8 282.2 C 575.7 282.2 575.0 282.3 575.1 282.6 C 575.2 283.0 575.4 283.3 575.4 283.3 C 575.4 283.4 575.4 283.6 575.5 283.7 C 575.5 283.7 575.0 284.0 575.1 284.4 C 575.2 284.7 575.2 285.1 575.2 285.3 C 575.1 285.6 575.2 285.8 575.4 285.9 C 575.6 286.1 576.2 286.6 576.2 286.6 C 576.2 286.6 576.4 287.1 576.3 287.2 C 576.2 287.4 575.8 287.2 575.7 287.1 C 575.5 287.0 575.2 286.9 575.1 287.1 C 575.0 287.3 574.7 288.2 574.9 288.5 C 575.1 288.7 575.4 288.9 575.5 289.0 C 575.5 289.2 575.6 289.9 575.4 289.9 C 575.2 289.8 574.8 289.5 574.9 289.8 C 574.9 290.0 574.8 290.3 574.9 290.4 C 575.0 290.4 575.1 290.7 575.3 290.8 C 575.5 291.0 575.7 291.5 575.8 291.7 C 575.9 291.9 575.9 292.2 575.9 292.2 C 575.8 292.3 575.7 292.3 575.6 292.4 C 575.6 292.4 575.2 291.8 575.1 291.6 C 575.1 291.5 574.8 291.5 574.8 291.6 C 574.8 291.7 574.8 292.5 574.8 292.5 C 575.1 292.7 575.4 293.0 575.7 293.3 C 575.8 293.5 575.8 293.7 575.9 294.0 C 575.9 294.0 574.9 293.0 574.9 293.4 C 574.9 293.7 574.9 294.2 574.9 294.2 C 574.9 294.2 575.0 294.3 575.1 294.5 C 575.0 294.7 575.0 294.8 575.0 294.8 C 574.9 294.8 575.8 295.7 575.8 295.7 C 576.2 296.1 576.5 296.4 576.9 296.8 C 576.9 296.8 577.2 296.9 577.5 296.9 C 577.5 296.8 577.5 296.7 577.5 296.5 C 577.3 296.1 576.9 296.0 576.8 295.8 C 576.6 295.6 576.4 295.0 576.4 295.0 C 576.6 295.0 576.8 295.0 577.0 295.0 C 577.0 295.0 577.2 295.0 577.4 294.9 C 577.5 294.9 577.6 294.3 577.6 294.1 C 577.5 293.8 577.3 293.5 577.1 293.1 C 576.9 292.7 576.6 292.5 576.8 292.4 C 577.1 292.3 577.4 292.4 577.4 292.3 C 577.4 292.1 577.0 291.3 577.0 291.3 C 576.9 291.1 576.9 290.8 576.8 290.6 C 576.8 290.6 576.6 290.1 576.8 290.1 C 577.0 290.2 576.8 289.2 576.8 289.2 C 576.8 289.2 577.4 289.6 577.5 289.4 C 577.6 289.3 577.7 289.0 577.6 288.5 C 577.5 288.1 576.9 287.5 576.9 287.5 C 577.1 287.5 577.3 287.4 577.4 287.4 C 577.5 287.1 577.5 286.7 577.5 286.4 C 577.5 286.4 577.5 285.6 577.4 285.5 C 577.3 285.5 576.8 285.4 576.6 285.3 C 576.5 285.3 576.3 284.8 576.5 284.8 C 576.7 284.8 577.2 284.6 577.2 284.6 C 577.2 284.6 577.5 284.3 577.5 284.1 C 577.5 283.9 577.4 283.5 577.3 283.4 C 577.2 283.2 576.8 282.8 576.8 282.8 C 576.9 282.7 577.1 282.7 577.3 282.6 C 577.3 282.6 577.0 281.9 577.5 281.3 C 577.5 281.3 577.5 281.3 577.5 281.3 Z M 574.9 296.5 C 575.0 296.4 575.5 296.8 576.1 296.9 C 576.6 297.0 577.2 297.0 576.8 296.8 C 576.5 296.5 576.2 296.4 576.1 296.1 C 576.0 295.8 575.8 295.3 575.3 295.1 C 574.8 294.9 573.1 294.3 573.0 294.6 C 572.9 294.9 572.9 295.0 572.7 295.2 C 572.7 295.4 572.2 294.8 572.2 294.8 C 572.2 294.8 571.5 294.7 571.0 294.6 C 570.5 294.6 570.0 294.6 570.0 294.7 C 570.0 294.8 570.1 295.0 570.1 295.0 C 570.1 295.0 569.6 294.7 569.1 294.7 C 568.7 294.6 569.0 294.8 569.2 294.9 C 569.4 295.0 570.2 295.4 570.0 295.4 C 569.9 295.4 568.9 294.8 568.6 294.8 C 568.3 294.7 567.7 294.8 567.7 294.8 C 567.7 294.8 568.1 295.1 568.1 295.2 C 568.2 295.3 567.7 295.3 567.5 295.2 C 567.4 295.1 567.1 294.7 566.8 294.7 C 565.9 294.6 566.6 295.3 566.6 295.3 C 566.5 295.3 566.0 294.8 565.7 294.7 C 565.5 294.6 563.8 294.7 563.9 294.8 C 563.9 295.0 562.9 294.5 563.0 294.8 C 563.0 295.1 563.0 295.2 563.1 295.3 C 563.1 295.4 563.2 295.9 562.9 295.7 C 562.6 295.5 562.7 294.9 562.3 294.8 C 562.0 294.6 560.9 294.6 560.9 294.7 C 560.8 295.0 561.2 295.4 561.0 295.4 C 560.9 295.4 559.7 294.8 559.8 294.9 C 559.8 295.0 560.2 295.5 560.3 295.6 C 560.4 295.7 561.1 296.7 561.3 296.8 C 561.5 296.9 562.5 297.3 562.2 297.0 C 561.9 296.8 561.4 296.4 561.5 296.3 C 561.6 296.2 561.7 296.2 561.9 296.3 C 562.0 296.4 562.0 296.5 562.5 296.7 C 563.1 296.8 563.1 297.0 563.4 297.0 C 563.8 297.0 564.0 296.9 563.8 296.7 C 563.6 296.5 563.7 296.2 563.9 296.3 C 564.2 296.3 564.2 296.7 565.2 296.9 C 566.1 297.1 566.7 297.1 566.7 297.0 C 566.8 296.8 566.3 296.2 566.9 296.5 C 567.5 296.7 567.5 296.9 568.0 296.8 C 568.5 296.8 568.2 296.4 568.6 296.4 C 568.9 296.4 569.0 296.4 569.0 296.4 C 569.0 296.4 569.4 297.0 570.2 297.0 C 570.9 297.1 571.1 297.1 570.5 296.7 C 570.0 296.2 570.5 296.2 570.8 296.5 C 571.1 296.8 571.7 297.0 572.0 297.0 C 572.3 297.1 571.6 296.3 571.7 296.3 C 571.8 296.3 572.2 296.3 572.3 296.6 C 572.4 296.8 572.7 296.8 573.0 296.9 C 573.4 297.0 574.0 297.0 573.8 296.8 C 573.7 296.7 572.9 296.2 573.6 296.4 C 574.3 296.7 574.8 297.1 575.2 297.0 C 575.6 297.0 574.8 296.6 574.9 296.5 C 574.9 296.5 574.9 296.5 574.9 296.5 Z M 560.8 297.0 C 561.4 297.2 561.5 296.9 561.2 296.6 C 560.9 296.3 560.1 295.6 560.0 295.4 C 559.9 295.2 559.9 294.7 559.1 294.6 C 558.4 294.5 558.5 294.7 558.6 294.8 C 558.8 295.0 559.3 295.8 559.1 295.7 C 558.9 295.6 558.5 295.4 558.4 295.3 C 558.2 295.2 557.3 294.5 557.1 294.6 C 556.9 294.7 556.8 294.9 556.8 294.9 C 556.6 294.9 556.5 294.9 556.3 294.9 C 556.3 294.9 555.5 294.5 555.2 294.6 C 555.0 294.7 554.6 294.7 554.3 294.7 C 554.0 294.6 553.8 294.7 553.9 294.9 C 554.0 295.0 554.2 295.7 554.2 295.7 C 554.2 295.7 554.0 295.8 553.7 295.7 C 553.5 295.6 553.1 295.3 553.0 295.2 C 552.9 295.0 552.6 294.7 552.3 294.6 C 551.9 294.5 550.5 294.2 550.5 294.4 C 550.5 294.6 550.8 294.9 550.8 294.9 C 550.7 295.0 550.0 295.1 549.7 294.9 C 549.5 294.7 549.2 294.3 549.1 294.4 C 548.9 294.4 548.3 294.3 548.4 294.4 C 548.5 294.5 548.5 294.6 548.6 294.8 C 548.8 295.0 548.5 295.2 548.5 295.3 C 548.5 295.4 548.2 295.4 548.2 295.4 C 548.0 295.3 547.7 295.2 547.5 295.1 C 547.5 295.1 547.4 294.7 547.5 294.6 C 547.5 294.6 547.1 294.3 547.0 294.3 C 546.8 294.3 546.0 294.3 546.0 294.3 C 546.3 294.6 546.5 294.9 546.7 295.2 C 546.6 295.2 546.4 295.3 546.3 295.4 C 546.3 295.4 545.5 294.4 545.1 294.4 C 544.7 294.4 544.2 294.4 544.2 294.4 C 544.2 294.4 544.2 294.7 544.1 294.8 C 544.0 294.8 544.7 295.7 544.7 295.7 C 545.0 296.1 545.4 296.4 545.7 296.8 C 545.7 296.8 546.5 297.1 546.6 297.0 C 546.8 296.8 546.2 296.4 546.1 296.3 C 546.0 296.1 546.3 295.9 546.3 295.9 C 546.6 296.1 547.0 296.3 547.3 296.5 C 547.3 296.5 547.6 296.7 547.9 296.9 C 548.3 297.0 549.0 297.1 549.1 297.1 C 549.2 297.0 549.2 296.8 549.2 296.6 C 549.3 296.4 549.0 296.1 549.5 296.3 C 549.9 296.6 550.3 296.9 550.4 296.9 C 550.6 296.9 550.8 296.5 550.8 296.5 C 550.9 296.4 551.0 296.3 551.1 296.3 C 551.1 296.3 551.4 296.1 551.6 296.3 C 551.9 296.5 552.5 296.3 552.5 296.3 C 552.5 296.3 553.0 296.9 553.3 297.0 C 553.6 297.1 554.1 297.2 554.3 297.1 C 554.6 297.0 554.3 296.4 554.3 296.4 C 554.6 296.6 554.8 296.7 555.1 296.9 C 555.4 296.9 555.8 297.0 556.2 297.0 C 556.2 297.0 556.9 297.0 556.8 296.9 C 556.7 296.8 556.2 296.3 556.1 296.1 C 556.0 296.0 556.2 295.8 556.4 296.0 C 556.6 296.2 557.4 296.6 557.4 296.6 C 557.4 296.6 558.0 297.0 558.3 297.0 C 558.5 297.0 558.7 296.9 558.7 296.8 C 558.7 296.6 558.7 296.3 558.7 296.3 C 558.9 296.4 559.2 296.6 559.4 296.8 C 559.4 296.8 559.8 296.5 560.8 297.0 C 560.8 297.0 560.8 297.0 560.8 297.0 Z M 543.8 296.5 C 543.9 296.4 544.3 296.8 544.8 296.9 C 545.4 297.0 545.9 297.0 545.6 296.8 C 545.3 296.5 545.0 296.4 545.0 296.1 C 545.0 295.8 544.8 295.3 544.3 295.1 C 543.8 294.9 542.2 294.3 542.1 294.6 C 541.9 294.9 541.9 295.0 541.8 295.2 C 541.7 295.4 541.3 294.8 541.3 294.8 C 541.3 294.8 540.6 294.7 540.1 294.6 C 539.6 294.6 539.1 294.6 539.1 294.7 C 539.1 294.8 539.1 295.0 539.1 295.0 C 539.1 295.0 538.7 294.7 538.3 294.7 C 537.9 294.6 538.1 294.8 538.3 294.9 C 538.5 295.0 539.2 295.4 539.0 295.4 C 538.9 295.4 538.0 294.8 537.7 294.8 C 537.4 294.7 536.8 294.8 536.8 294.8 C 536.8 294.8 537.2 295.1 537.2 295.2 C 537.2 295.3 536.7 295.3 536.6 295.2 C 536.4 295.1 536.2 294.7 535.9 294.7 C 535.0 294.6 535.6 295.3 535.6 295.3 C 535.5 295.3 535.1 294.8 534.8 294.7 C 534.6 294.6 533.0 294.7 533.0 294.8 C 533.0 295.0 532.0 294.5 532.0 294.8 C 532.0 295.1 532.0 295.2 532.1 295.3 C 532.1 295.4 532.1 295.9 531.8 295.7 C 531.5 295.5 531.7 294.9 531.4 294.8 C 531.1 294.6 530.0 294.6 530.0 294.7 C 529.9 295.0 530.2 295.4 530.0 295.4 C 529.9 295.4 528.8 294.8 528.8 294.9 C 528.9 295.0 529.2 295.5 529.3 295.6 C 529.3 295.7 529.9 296.7 530.1 296.8 C 530.3 296.9 531.2 297.3 530.9 297.0 C 530.6 296.8 530.2 296.4 530.4 296.3 C 530.5 296.2 530.6 296.2 530.7 296.3 C 530.9 296.4 530.8 296.5 531.3 296.7 C 531.9 296.8 531.8 297.0 532.2 297.0 C 532.5 297.0 532.8 296.9 532.6 296.7 C 532.4 296.5 532.5 296.2 532.8 296.3 C 533.1 296.3 533.0 296.7 533.9 296.9 C 534.9 297.1 535.4 297.1 535.5 297.0 C 535.6 296.8 535.2 296.2 535.8 296.5 C 536.3 296.7 536.2 296.9 536.7 296.8 C 537.2 296.8 537.1 296.4 537.4 296.4 C 537.7 296.4 537.8 296.4 537.8 296.4 C 537.8 296.4 538.2 297.0 538.9 297.0 C 539.7 297.1 539.9 297.1 539.3 296.7 C 538.8 296.2 539.4 296.2 539.6 296.5 C 539.9 296.8 540.5 297.0 540.8 297.0 C 541.1 297.1 540.5 296.3 540.6 296.3 C 540.7 296.3 541.0 296.3 541.1 296.6 C 541.2 296.8 541.5 296.8 541.8 296.9 C 542.1 297.0 542.7 297.0 542.6 296.8 C 542.5 296.7 541.7 296.2 542.4 296.4 C 543.1 296.7 543.5 297.1 543.9 297.0 C 544.3 297.0 543.6 296.6 543.8 296.5 C 543.8 296.5 543.8 296.5 543.8 296.5 Z M 529.6 297.0 C 530.2 297.2 530.2 296.9 530.0 296.6 C 529.7 296.3 529.0 295.6 529.0 295.4 C 529.0 295.2 529.0 294.7 528.3 294.6 C 527.5 294.5 527.6 294.7 527.7 294.8 C 527.8 295.0 528.3 295.8 528.1 295.7 C 527.8 295.6 527.5 295.4 527.4 295.3 C 527.3 295.2 526.4 294.5 526.2 294.6 C 526.0 294.7 525.8 294.9 525.8 294.9 C 525.7 294.9 525.5 294.9 525.4 294.9 C 525.4 294.9 524.6 294.5 524.3 294.6 C 524.1 294.7 523.7 294.7 523.4 294.7 C 523.1 294.6 522.9 294.7 523.0 294.9 C 523.1 295.0 523.2 295.7 523.2 295.7 C 523.2 295.7 522.9 295.8 522.7 295.7 C 522.4 295.6 522.1 295.3 522.1 295.2 C 522.0 295.0 521.7 294.7 521.4 294.6 C 521.1 294.5 519.7 294.2 519.7 294.4 C 519.6 294.6 519.9 294.9 519.8 294.9 C 519.7 295.0 519.0 295.1 518.8 294.9 C 518.6 294.7 518.4 294.3 518.2 294.4 C 518.0 294.4 517.5 294.3 517.6 294.4 C 517.7 294.5 517.6 294.6 517.7 294.8 C 517.9 295.0 517.6 295.2 517.5 295.3 C 517.5 295.4 517.2 295.4 517.2 295.4 C 517.0 295.3 516.8 295.2 516.5 295.1 C 516.5 295.1 516.5 294.7 516.6 294.6 C 516.7 294.6 516.3 294.3 516.1 294.3 C 516.0 294.3 515.2 294.3 515.2 294.3 C 515.4 294.6 515.6 294.9 515.8 295.2 C 515.6 295.2 515.4 295.3 515.3 295.4 C 515.3 295.4 514.7 294.4 514.3 294.4 C 513.9 294.4 513.4 294.4 513.4 294.4 C 513.4 294.4 513.3 294.7 513.2 294.8 C 513.1 294.8 513.7 295.7 513.7 295.7 C 513.9 296.1 514.2 296.4 514.5 296.8 C 514.5 296.8 515.2 297.1 515.4 297.0 C 515.5 296.8 515.1 296.4 515.0 296.3 C 514.9 296.1 515.2 295.9 515.2 295.9 C 515.5 296.1 515.8 296.3 516.1 296.5 C 516.1 296.5 516.4 296.7 516.7 296.9 C 517.0 297.0 517.7 297.1 517.8 297.1 C 518.0 297.0 518.0 296.8 518.1 296.6 C 518.2 296.4 517.9 296.1 518.3 296.3 C 518.8 296.6 519.1 296.9 519.2 296.9 C 519.3 296.9 519.7 296.5 519.7 296.5 C 519.8 296.4 519.9 296.3 520.0 296.3 C 520.0 296.3 520.3 296.1 520.5 296.3 C 520.7 296.5 521.4 296.3 521.4 296.3 C 521.4 296.3 521.7 296.9 522.0 297.0 C 522.3 297.1 522.8 297.2 523.1 297.1 C 523.3 297.0 523.2 296.4 523.2 296.4 C 523.4 296.6 523.6 296.7 523.8 296.9 C 524.2 296.9 524.6 297.0 524.9 297.0 C 524.9 297.0 525.7 297.0 525.6 296.9 C 525.5 296.8 525.0 296.3 525.0 296.1 C 524.9 296.0 525.2 295.8 525.3 296.0 C 525.5 296.2 526.2 296.6 526.2 296.6 C 526.2 296.6 526.8 297.0 527.0 297.0 C 527.3 297.0 527.5 296.9 527.5 296.8 C 527.5 296.6 527.6 296.3 527.6 296.3 C 527.8 296.4 528.0 296.6 528.2 296.8 C 528.2 296.8 528.6 296.5 529.6 297.0 C 529.6 297.0 529.6 297.0 529.6 297.0 Z M 512.6 296.5 C 512.7 296.4 513.1 296.8 513.6 296.9 C 514.1 297.0 514.7 297.0 514.4 296.8 C 514.1 296.5 513.9 296.4 513.9 296.1 C 513.9 295.8 513.8 295.3 513.4 295.1 C 512.9 294.9 511.4 294.3 511.2 294.6 C 511.0 294.9 511.0 295.0 510.8 295.2 C 510.7 295.4 510.4 294.8 510.4 294.8 C 510.4 294.8 509.8 294.7 509.3 294.6 C 508.8 294.6 508.2 294.6 508.2 294.7 C 508.2 294.8 508.2 295.0 508.2 295.0 C 508.2 295.0 507.8 294.7 507.4 294.7 C 507.0 294.6 507.2 294.8 507.4 294.9 C 507.5 295.0 508.2 295.4 508.0 295.4 C 507.9 295.4 507.0 294.8 506.7 294.8 C 506.5 294.7 505.9 294.8 505.9 294.8 C 505.9 294.8 506.2 295.1 506.2 295.2 C 506.2 295.3 505.7 295.3 505.6 295.2 C 505.5 295.1 505.3 294.7 505.0 294.7 C 504.1 294.6 504.7 295.3 504.6 295.3 C 504.5 295.3 504.2 294.8 503.9 294.7 C 503.7 294.6 502.1 294.7 502.0 294.8 C 502.0 295.0 501.2 294.5 501.1 294.8 C 501.1 295.1 501.1 295.2 501.1 295.3 C 501.1 295.4 501.1 295.9 500.8 295.7 C 500.5 295.5 500.8 294.9 500.5 294.8 C 500.2 294.6 499.1 294.6 499.1 294.7 C 498.9 295.0 499.2 295.4 499.0 295.4 C 498.9 295.4 497.9 294.8 497.9 294.9 C 497.9 295.0 498.2 295.5 498.2 295.6 C 498.3 295.7 498.7 296.7 498.9 296.8 C 499.1 296.9 499.9 297.3 499.7 297.0 C 499.4 296.8 499.1 296.4 499.2 296.3 C 499.4 296.2 499.5 296.2 499.6 296.3 C 499.7 296.4 499.7 296.5 500.2 296.7 C 500.6 296.8 500.6 297.0 500.9 297.0 C 501.3 297.0 501.5 296.9 501.4 296.7 C 501.2 296.5 501.4 296.2 501.7 296.3 C 501.9 296.3 501.8 296.7 502.7 296.9 C 503.6 297.1 504.1 297.1 504.3 297.0 C 504.4 296.8 504.1 296.2 504.6 296.5 C 505.1 296.7 505.0 296.9 505.5 296.8 C 506.0 296.8 505.9 296.4 506.2 296.4 C 506.6 296.4 506.7 296.4 506.7 296.4 C 506.7 296.4 506.9 297.0 507.7 297.0 C 508.4 297.1 508.6 297.1 508.1 296.7 C 507.7 296.2 508.2 296.2 508.5 296.5 C 508.7 296.8 509.2 297.0 509.5 297.0 C 509.8 297.1 509.4 296.3 509.4 296.3 C 509.5 296.3 509.9 296.3 509.9 296.6 C 510.0 296.8 510.3 296.8 510.6 296.9 C 510.9 297.0 511.5 297.0 511.4 296.8 C 511.3 296.7 510.6 296.2 511.2 296.4 C 511.9 296.7 512.2 297.1 512.7 297.0 C 513.1 297.0 512.4 296.6 512.6 296.5 C 512.6 296.5 512.6 296.5 512.6 296.5 Z M 498.8 297.1 C 499.5 297.0 497.8 295.0 497.2 294.6 C 496.7 294.2 496.3 294.5 495.8 294.4 C 495.2 294.3 495.8 295.0 495.6 295.2 C 495.4 295.3 495.2 294.9 494.9 294.6 C 494.6 294.3 494.0 294.6 493.5 294.6 C 493.0 294.5 492.9 295.2 492.5 295.3 C 492.2 295.3 493.1 295.6 492.4 295.6 C 491.6 295.5 491.8 295.2 492.4 295.0 C 493.1 294.8 491.9 294.6 491.4 294.5 C 491.0 294.4 490.4 294.7 490.0 294.7 C 489.7 294.6 490.4 295.2 489.9 295.1 C 489.4 295.1 489.3 294.6 488.8 294.5 C 488.2 294.5 488.6 294.9 488.4 295.0 C 488.2 295.2 488.1 294.9 487.8 294.8 C 487.6 294.8 487.2 294.6 486.8 294.8 C 486.4 294.9 486.6 295.0 486.4 295.0 C 486.2 295.1 485.8 295.1 485.8 295.1 C 485.7 294.9 485.6 294.7 485.4 294.6 C 485.4 294.6 484.6 294.5 484.3 294.5 C 484.0 294.5 483.5 294.7 483.7 294.8 C 484.0 294.9 483.6 295.2 483.4 295.2 C 483.2 295.1 482.7 294.8 482.3 294.7 C 481.9 294.6 482.7 295.9 482.8 296.1 C 482.9 296.3 483.1 297.0 483.4 297.0 C 483.7 297.1 483.8 296.8 483.8 297.0 C 483.9 297.2 484.6 297.0 484.8 297.0 C 485.0 297.0 485.0 296.5 485.0 296.5 C 485.0 296.5 485.0 296.2 485.4 296.2 C 485.7 296.2 486.3 297.0 486.3 297.0 C 486.3 297.0 486.8 297.1 487.2 297.1 C 487.6 297.0 487.7 296.4 487.7 296.2 C 487.7 296.1 488.1 296.7 488.4 296.8 C 488.8 296.8 489.3 297.0 489.4 297.0 C 489.5 297.0 489.5 296.5 489.5 296.5 C 489.5 296.5 489.9 296.3 490.1 296.3 C 490.2 296.3 490.3 296.9 490.3 296.9 C 490.3 296.9 491.6 297.1 491.9 297.1 C 492.1 297.2 492.4 297.0 492.6 297.0 C 492.7 296.9 492.6 296.2 492.9 296.3 C 493.2 296.3 492.9 296.7 493.2 296.8 C 493.5 296.9 494.0 297.0 494.2 297.0 C 494.3 297.0 494.3 296.8 494.5 296.7 C 494.7 296.7 494.7 296.1 495.0 296.1 C 495.4 296.1 495.8 296.5 495.9 296.5 C 496.1 296.6 496.5 297.1 496.8 297.1 C 497.0 297.1 496.6 296.8 496.9 296.8 C 497.2 296.8 496.9 296.4 497.2 296.5 C 497.6 296.6 497.8 297.2 498.0 297.1 C 498.1 297.1 498.0 297.1 498.8 297.1 C 498.8 297.1 498.8 297.1 498.8 297.1 Z M 482.7 297.0 C 483.2 297.2 483.4 296.9 483.2 296.6 C 483.0 296.3 482.5 295.6 482.5 295.4 C 482.5 295.2 482.7 294.7 482.0 294.6 C 481.3 294.5 481.2 294.7 481.3 294.8 C 481.4 295.0 481.7 295.8 481.5 295.7 C 481.3 295.6 481.0 295.4 480.9 295.3 C 480.8 295.2 480.2 294.5 479.9 294.6 C 479.6 294.7 479.5 294.9 479.5 294.9 C 479.3 294.9 479.1 294.9 479.0 294.9 C 479.0 294.9 478.3 294.5 478.0 294.6 C 477.7 294.7 477.3 294.7 477.1 294.7 C 476.8 294.6 476.6 294.7 476.6 294.9 C 476.6 295.0 476.6 295.7 476.6 295.7 C 476.6 295.7 476.3 295.8 476.1 295.7 C 475.9 295.6 475.6 295.3 475.6 295.2 C 475.6 295.0 475.4 294.7 475.1 294.6 C 474.8 294.5 473.5 294.2 473.4 294.4 C 473.3 294.6 473.5 294.9 473.4 294.9 C 473.3 295.0 472.6 295.1 472.4 294.9 C 472.3 294.7 472.2 294.3 472.0 294.4 C 471.8 294.4 471.3 294.3 471.3 294.4 C 471.4 294.5 471.3 294.6 471.4 294.8 C 471.4 295.0 471.1 295.2 471.1 295.3 C 471.0 295.4 470.7 295.4 470.7 295.4 C 470.5 295.3 470.3 295.2 470.1 295.1 C 470.1 295.1 470.2 294.7 470.3 294.6 C 470.4 294.6 470.0 294.3 469.9 294.3 C 469.7 294.3 468.9 294.3 468.9 294.3 C 469.1 294.6 469.2 294.9 469.3 295.2 C 469.1 295.2 469.0 295.3 468.8 295.4 C 468.8 295.4 468.4 294.4 468.0 294.4 C 467.6 294.4 467.1 294.4 467.1 294.4 C 467.1 294.4 466.9 294.7 466.8 294.8 C 466.7 294.8 467.1 295.7 467.1 295.7 C 467.3 296.1 467.5 296.4 467.7 296.8 C 467.7 296.8 468.3 297.1 468.5 297.0 C 468.7 296.8 468.3 296.4 468.3 296.3 C 468.2 296.1 468.6 295.9 468.6 295.9 C 468.8 296.1 469.1 296.3 469.4 296.5 C 469.4 296.5 469.6 296.7 469.9 296.9 C 470.1 297.0 470.8 297.1 470.9 297.1 C 471.1 297.0 471.1 296.8 471.3 296.6 C 471.4 296.4 471.2 296.1 471.6 296.3 C 472.0 296.6 472.2 296.9 472.4 296.9 C 472.5 296.9 472.9 296.5 472.9 296.5 C 473.0 296.4 473.2 296.3 473.3 296.3 C 473.3 296.3 473.6 296.1 473.8 296.3 C 473.9 296.5 474.7 296.3 474.7 296.3 C 474.7 296.3 474.9 296.9 475.2 297.0 C 475.4 297.1 475.9 297.2 476.2 297.1 C 476.5 297.0 476.4 296.4 476.4 296.4 C 476.6 296.6 476.8 296.7 477.0 296.9 C 477.3 296.9 477.7 297.0 478.1 297.0 C 478.1 297.0 478.8 297.0 478.7 296.9 C 478.7 296.8 478.3 296.3 478.3 296.1 C 478.3 296.0 478.6 295.8 478.7 296.0 C 478.8 296.2 479.4 296.6 479.4 296.6 C 479.4 296.6 479.9 297.0 480.1 297.0 C 480.4 297.0 480.6 296.9 480.7 296.8 C 480.7 296.6 480.9 296.3 480.9 296.3 C 481.0 296.4 481.2 296.6 481.4 296.8 C 481.4 296.8 481.9 296.5 482.7 297.0 C 482.7 297.0 482.7 297.0 482.7 297.0 Z M 465.8 296.5 C 466.0 296.4 466.3 296.8 466.8 296.9 C 467.2 297.0 467.8 297.0 467.6 296.8 C 467.4 296.5 467.1 296.4 467.2 296.1 C 467.3 295.8 467.3 295.3 466.9 295.1 C 466.5 294.9 465.1 294.3 464.9 294.6 C 464.6 294.9 464.6 295.0 464.4 295.2 C 464.2 295.4 464.1 294.8 464.1 294.8 C 464.1 294.8 463.4 294.7 462.9 294.6 C 462.4 294.6 461.9 294.6 461.9 294.7 C 461.9 294.8 461.8 295.0 461.8 295.0 C 461.8 295.0 461.4 294.7 461.0 294.7 C 460.7 294.6 460.9 294.8 461.0 294.9 C 461.1 295.0 461.7 295.4 461.5 295.4 C 461.4 295.4 460.7 294.8 460.4 294.8 C 460.1 294.7 459.6 294.8 459.6 294.8 C 459.6 294.8 459.8 295.1 459.8 295.2 C 459.7 295.3 459.2 295.3 459.1 295.2 C 459.1 295.1 459.0 294.7 458.7 294.7 C 457.8 294.6 458.2 295.3 458.1 295.3 C 458.0 295.3 457.8 294.8 457.6 294.7 C 457.4 294.6 455.7 294.7 455.7 294.8 C 455.6 295.0 454.9 294.5 454.8 294.8 C 454.6 295.1 454.6 295.2 454.6 295.3 C 454.6 295.4 454.4 295.9 454.2 295.7 C 454.0 295.5 454.4 294.9 454.2 294.8 C 453.9 294.6 452.8 294.6 452.7 294.7 C 452.5 295.0 452.7 295.4 452.5 295.4 C 452.4 295.4 451.5 294.8 451.5 294.9 C 451.5 295.0 451.6 295.5 451.7 295.6 C 451.7 295.7 451.9 296.7 452.0 296.8 C 452.2 296.9 453.0 297.3 452.8 297.0 C 452.6 296.8 452.3 296.4 452.5 296.3 C 452.7 296.2 452.8 296.2 452.9 296.3 C 453.0 296.4 452.9 296.5 453.4 296.7 C 453.8 296.8 453.7 297.0 454.0 297.0 C 454.4 297.0 454.7 296.9 454.6 296.7 C 454.4 296.5 454.7 296.2 455.0 296.3 C 455.2 296.3 455.0 296.7 455.8 296.9 C 456.7 297.1 457.2 297.1 457.4 297.0 C 457.5 296.8 457.4 296.2 457.8 296.5 C 458.3 296.7 458.2 296.9 458.7 296.8 C 459.2 296.8 459.2 296.4 459.5 296.4 C 459.8 296.4 459.9 296.4 459.9 296.4 C 459.9 296.4 460.0 297.0 460.8 297.0 C 461.5 297.1 461.7 297.1 461.4 296.7 C 461.0 296.2 461.5 296.2 461.7 296.5 C 461.9 296.8 462.4 297.0 462.6 297.0 C 462.9 297.1 462.6 296.3 462.7 296.3 C 462.8 296.3 463.2 296.3 463.1 296.6 C 463.1 296.8 463.4 296.8 463.7 296.9 C 464.0 297.0 464.6 297.0 464.6 296.8 C 464.5 296.7 463.9 296.2 464.5 296.4 C 465.1 296.7 465.4 297.1 465.8 297.0 C 466.2 297.0 465.6 296.6 465.8 296.5 C 465.8 296.5 465.8 296.5 465.8 296.5 Z M 451.9 297.1 C 452.6 297.0 451.4 295.0 450.9 294.6 C 450.4 294.2 450.0 294.5 449.5 294.4 C 448.9 294.3 449.3 295.0 449.1 295.2 C 448.9 295.3 448.8 294.9 448.6 294.6 C 448.4 294.3 447.7 294.6 447.2 294.6 C 446.7 294.5 446.4 295.2 446.1 295.3 C 445.7 295.3 446.5 295.6 445.8 295.6 C 445.1 295.5 445.3 295.2 446.0 295.0 C 446.8 294.8 445.6 294.6 445.1 294.5 C 444.7 294.4 444.1 294.7 443.7 294.7 C 443.3 294.6 444.0 295.2 443.5 295.1 C 442.9 295.1 443.0 294.6 442.5 294.5 C 442.0 294.5 442.2 294.9 442.0 295.0 C 441.7 295.2 441.7 294.9 441.5 294.8 C 441.3 294.8 440.9 294.6 440.4 294.8 C 440.0 294.9 440.2 295.0 440.0 295.0 C 439.8 295.1 439.4 295.1 439.4 295.1 C 439.3 294.9 439.2 294.7 439.1 294.6 C 439.1 294.6 438.2 294.5 438.0 294.5 C 437.7 294.5 437.2 294.7 437.4 294.8 C 437.6 294.9 437.1 295.2 436.9 295.2 C 436.8 295.1 436.3 294.8 435.9 294.7 C 435.6 294.6 436.1 295.9 436.1 296.1 C 436.2 296.3 436.2 297.0 436.5 297.0 C 436.8 297.1 436.9 296.8 437.0 297.0 C 437.0 297.2 437.7 297.0 437.9 297.0 C 438.1 297.0 438.2 296.5 438.2 296.5 C 438.2 296.5 438.3 296.2 438.7 296.2 C 439.0 296.2 439.4 297.0 439.4 297.0 C 439.4 297.0 439.9 297.1 440.3 297.1 C 440.7 297.0 441.0 296.4 441.0 296.2 C 441.1 296.1 441.3 296.7 441.6 296.8 C 441.9 296.8 442.4 297.0 442.6 297.0 C 442.7 297.0 442.8 296.5 442.8 296.5 C 442.8 296.5 443.2 296.3 443.4 296.3 C 443.5 296.3 443.5 296.9 443.5 296.9 C 443.5 296.9 444.7 297.1 445.0 297.1 C 445.2 297.2 445.6 297.0 445.7 297.0 C 445.9 296.9 445.9 296.2 446.2 296.3 C 446.4 296.3 446.1 296.7 446.3 296.8 C 446.6 296.9 447.2 297.0 447.3 297.0 C 447.4 297.0 447.5 296.8 447.7 296.7 C 447.9 296.7 448.0 296.1 448.4 296.1 C 448.7 296.1 449.0 296.5 449.2 296.5 C 449.3 296.6 449.6 297.1 449.9 297.1 C 450.1 297.1 449.8 296.8 450.1 296.8 C 450.3 296.8 450.2 296.4 450.5 296.5 C 450.8 296.6 450.8 297.2 451.1 297.1 C 451.2 297.1 451.1 297.1 451.9 297.1 C 451.9 297.1 451.9 297.1 451.9 297.1 Z M 434.7 296.5 C 434.8 296.4 435.1 296.8 435.5 296.9 C 436.0 297.0 436.5 297.0 436.4 296.8 C 436.2 296.5 436.0 296.4 436.1 296.1 C 436.3 295.8 436.3 295.3 436.0 295.1 C 435.6 294.9 434.3 294.3 434.0 294.6 C 433.7 294.9 433.6 295.0 433.4 295.2 C 433.2 295.4 433.2 294.8 433.2 294.8 C 433.2 294.8 432.5 294.7 432.0 294.6 C 431.6 294.6 431.0 294.6 431.0 294.7 C 431.0 294.8 430.8 295.0 430.8 295.0 C 430.8 295.0 430.5 294.7 430.1 294.7 C 429.8 294.6 430.0 294.8 430.0 294.9 C 430.1 295.0 430.7 295.4 430.5 295.4 C 430.4 295.4 429.7 294.8 429.5 294.8 C 429.2 294.7 428.7 294.8 428.7 294.8 C 428.7 294.8 428.8 295.1 428.8 295.2 C 428.8 295.3 428.2 295.3 428.2 295.2 C 428.1 295.1 428.1 294.7 427.8 294.7 C 426.9 294.6 427.2 295.3 427.1 295.3 C 427.1 295.3 426.9 294.8 426.7 294.7 C 426.5 294.6 424.8 294.7 424.8 294.8 C 424.7 295.0 424.0 294.5 423.9 294.8 C 423.7 295.1 423.6 295.2 423.6 295.3 C 423.6 295.4 423.4 295.9 423.2 295.7 C 423.0 295.5 423.5 294.9 423.2 294.8 C 423.0 294.6 421.9 294.6 421.8 294.7 C 421.6 295.0 421.7 295.4 421.5 295.4 C 421.4 295.4 420.6 294.8 420.6 294.9 C 420.6 295.0 420.6 295.5 420.6 295.6 C 420.6 295.7 420.7 296.7 420.8 296.8 C 421.0 296.9 421.7 297.3 421.5 297.0 C 421.4 296.8 421.2 296.4 421.4 296.3 C 421.6 296.2 421.7 296.2 421.8 296.3 C 421.8 296.4 421.7 296.5 422.2 296.7 C 422.6 296.8 422.4 297.0 422.8 297.0 C 423.1 297.0 423.4 296.9 423.4 296.7 C 423.3 296.5 423.6 296.2 423.8 296.3 C 424.1 296.3 423.8 296.7 424.6 296.9 C 425.5 297.1 426.0 297.1 426.1 297.0 C 426.3 296.8 426.2 296.2 426.7 296.5 C 427.1 296.7 426.9 296.9 427.5 296.8 C 428.0 296.8 428.0 296.4 428.4 296.4 C 428.7 296.4 428.8 296.4 428.8 296.4 C 428.8 296.4 428.8 297.0 429.5 297.0 C 430.3 297.1 430.4 297.1 430.2 296.7 C 429.9 296.2 430.4 296.2 430.5 296.5 C 430.6 296.8 431.1 297.0 431.4 297.0 C 431.7 297.1 431.5 296.3 431.6 296.3 C 431.7 296.3 432.0 296.3 432.0 296.6 C 431.9 296.8 432.2 296.8 432.5 296.9 C 432.7 297.0 433.4 297.0 433.3 296.8 C 433.3 296.7 432.8 296.2 433.3 296.4 C 433.9 296.7 434.1 297.1 434.5 297.0 C 435.0 297.0 434.4 296.6 434.7 296.5 C 434.7 296.5 434.7 296.5 434.7 296.5 Z M 420.2 297.0 C 420.7 297.2 420.9 296.9 420.8 296.6 C 420.7 296.3 420.4 295.6 420.5 295.4 C 420.6 295.2 420.9 294.7 420.2 294.6 C 419.5 294.5 419.5 294.7 419.5 294.8 C 419.5 295.0 419.6 295.8 419.4 295.7 C 419.2 295.6 419.0 295.4 418.9 295.3 C 418.8 295.2 418.4 294.5 418.1 294.6 C 417.8 294.7 417.6 294.9 417.6 294.9 C 417.4 294.9 417.3 294.9 417.1 294.9 C 417.1 294.9 416.6 294.5 416.3 294.6 C 415.9 294.7 415.6 294.7 415.3 294.7 C 415.0 294.6 414.8 294.7 414.8 294.9 C 414.7 295.0 414.5 295.7 414.5 295.7 C 414.5 295.7 414.2 295.8 414.0 295.7 C 413.8 295.6 413.7 295.3 413.7 295.2 C 413.7 295.0 413.6 294.7 413.3 294.6 C 413.0 294.5 411.8 294.2 411.7 294.4 C 411.6 294.6 411.7 294.9 411.6 294.9 C 411.4 295.0 410.7 295.1 410.6 294.9 C 410.5 294.7 410.5 294.3 410.3 294.4 C 410.1 294.4 409.6 294.3 409.6 294.4 C 409.6 294.5 409.5 294.6 409.5 294.8 C 409.6 295.0 409.2 295.2 409.1 295.3 C 409.0 295.4 408.7 295.4 408.7 295.4 C 408.5 295.3 408.3 295.2 408.2 295.1 C 408.2 295.1 408.4 294.7 408.5 294.6 C 408.6 294.6 408.4 294.3 408.2 294.3 C 408.1 294.3 407.3 294.3 407.3 294.3 C 407.3 294.6 407.3 294.9 407.4 295.2 C 407.2 295.2 407.0 295.3 406.8 295.4 C 406.8 295.4 406.7 294.4 406.3 294.4 C 405.9 294.4 405.4 294.4 405.4 294.4 C 405.4 294.4 405.1 294.7 405.0 294.8 C 404.9 294.8 405.0 295.7 405.0 295.7 C 405.1 296.1 405.2 296.4 405.3 296.8 C 405.3 296.8 405.8 297.1 406.0 297.0 C 406.3 296.8 406.0 296.4 406.0 296.3 C 406.0 296.1 406.4 295.9 406.4 295.9 C 406.6 296.1 406.8 296.3 407.0 296.5 C 407.0 296.5 407.2 296.7 407.4 296.9 C 407.6 297.0 408.3 297.1 408.4 297.1 C 408.6 297.0 408.7 296.8 408.9 296.6 C 409.1 296.4 409.0 296.1 409.3 296.3 C 409.6 296.6 409.8 296.9 409.9 296.9 C 410.1 296.9 410.6 296.5 410.6 296.5 C 410.7 296.4 410.9 296.3 411.0 296.3 C 411.0 296.3 411.4 296.1 411.5 296.3 C 411.6 296.5 412.4 296.3 412.4 296.3 C 412.4 296.3 412.4 296.9 412.7 297.0 C 412.9 297.1 413.3 297.2 413.6 297.1 C 414.0 297.0 414.1 296.4 414.1 296.4 C 414.3 296.6 414.4 296.7 414.5 296.9 C 414.9 296.9 415.2 297.0 415.5 297.0 C 415.5 297.0 416.3 297.0 416.3 296.9 C 416.2 296.8 416.1 296.3 416.1 296.1 C 416.1 296.0 416.4 295.8 416.5 296.0 C 416.6 296.2 417.0 296.6 417.0 296.6 C 417.0 296.6 417.4 297.0 417.7 297.0 C 417.9 297.0 418.2 296.9 418.3 296.8 C 418.3 296.6 418.6 296.3 418.6 296.3 C 418.7 296.4 418.8 296.6 419.0 296.8 C 419.0 296.8 419.5 296.5 420.2 297.0 C 420.2 297.0 420.2 297.0 420.2 297.0 Z M 405.0 297.1 C 405.8 297.0 404.9 295.0 404.6 294.6 C 404.2 294.2 403.7 294.5 403.2 294.4 C 402.7 294.3 402.9 295.0 402.7 295.2 C 402.4 295.3 402.4 294.9 402.3 294.6 C 402.1 294.3 401.3 294.6 400.9 294.6 C 400.4 294.5 400.0 295.2 399.6 295.3 C 399.2 295.3 400.0 295.6 399.3 295.6 C 398.6 295.5 398.9 295.2 399.6 295.0 C 400.4 294.8 399.3 294.6 398.8 294.5 C 398.4 294.4 397.7 294.7 397.4 294.7 C 397.0 294.6 397.5 295.2 397.0 295.1 C 396.5 295.1 396.7 294.6 396.2 294.5 C 395.7 294.5 395.8 294.9 395.5 295.0 C 395.3 295.2 395.3 294.9 395.1 294.8 C 394.9 294.8 394.5 294.6 394.1 294.8 C 393.6 294.9 393.7 295.0 393.5 295.0 C 393.3 295.1 392.9 295.1 392.9 295.1 C 392.9 294.9 392.9 294.7 392.8 294.6 C 392.8 294.6 391.9 294.5 391.7 294.5 C 391.4 294.5 390.9 294.7 391.0 294.8 C 391.2 294.9 390.6 295.2 390.5 295.2 C 390.4 295.1 389.9 294.8 389.6 294.7 C 389.3 294.6 389.5 295.9 389.5 296.1 C 389.5 296.3 389.4 297.0 389.6 297.0 C 389.9 297.1 390.1 296.8 390.1 297.0 C 390.1 297.2 390.8 297.0 391.0 297.0 C 391.3 297.0 391.5 296.5 391.5 296.5 C 391.5 296.5 391.7 296.2 392.0 296.2 C 392.4 296.2 392.6 297.0 392.6 297.0 C 392.6 297.0 393.0 297.1 393.4 297.1 C 393.9 297.0 394.3 296.4 394.3 296.2 C 394.4 296.1 394.5 296.7 394.8 296.8 C 395.1 296.8 395.6 297.0 395.7 297.0 C 395.8 297.0 396.0 296.5 396.0 296.5 C 396.0 296.5 396.5 296.3 396.6 296.3 C 396.8 296.3 396.6 296.9 396.6 296.9 C 396.6 296.9 397.8 297.1 398.1 297.1 C 398.3 297.2 398.7 297.0 398.9 297.0 C 399.0 296.9 399.2 296.2 399.5 296.3 C 399.7 296.3 399.3 296.7 399.5 296.8 C 399.8 296.9 400.3 297.0 400.4 297.0 C 400.5 297.0 400.7 296.8 400.9 296.7 C 401.1 296.7 401.3 296.1 401.7 296.1 C 402.0 296.1 402.2 296.5 402.4 296.5 C 402.5 296.6 402.7 297.1 403.0 297.1 C 403.2 297.1 403.0 296.8 403.2 296.8 C 403.5 296.8 403.5 296.4 403.7 296.5 C 404.0 296.6 403.9 297.2 404.2 297.1 C 404.3 297.1 404.2 297.1 405.0 297.1 C 405.0 297.1 405.0 297.1 405.0 297.1 Z M 389.0 297.0 C 389.4 297.2 389.7 296.9 389.6 296.6 C 389.6 296.3 389.4 295.6 389.5 295.4 C 389.6 295.2 390.0 294.7 389.3 294.6 C 388.7 294.5 388.6 294.7 388.6 294.8 C 388.6 295.0 388.5 295.8 388.3 295.7 C 388.2 295.6 388.0 295.4 387.9 295.3 C 387.9 295.2 387.6 294.5 387.3 294.6 C 386.9 294.7 386.7 294.9 386.7 294.9 C 386.5 294.9 386.4 294.9 386.2 294.9 C 386.2 294.9 385.7 294.5 385.4 294.6 C 385.0 294.7 384.7 294.7 384.4 294.7 C 384.1 294.6 383.9 294.7 383.8 294.9 C 383.8 295.0 383.5 295.7 383.5 295.7 C 383.5 295.7 383.1 295.8 382.9 295.7 C 382.7 295.6 382.7 295.3 382.7 295.2 C 382.8 295.0 382.7 294.7 382.4 294.6 C 382.2 294.5 381.0 294.2 380.9 294.4 C 380.7 294.6 380.7 294.9 380.6 294.9 C 380.5 295.0 379.7 295.1 379.7 294.9 C 379.6 294.7 379.6 294.3 379.4 294.4 C 379.2 294.4 378.8 294.3 378.8 294.4 C 378.8 294.5 378.6 294.6 378.6 294.8 C 378.6 295.0 378.2 295.2 378.1 295.3 C 378.0 295.4 377.7 295.4 377.7 295.4 C 377.5 295.3 377.4 295.2 377.2 295.1 C 377.2 295.1 377.5 294.7 377.6 294.6 C 377.7 294.6 377.5 294.3 377.4 294.3 C 377.3 294.3 376.4 294.3 376.4 294.3 C 376.4 294.6 376.4 294.9 376.4 295.2 C 376.2 295.2 376.0 295.3 375.8 295.4 C 375.8 295.4 375.9 294.4 375.5 294.4 C 375.1 294.4 374.6 294.4 374.6 294.4 C 374.6 294.4 374.2 294.7 374.1 294.8 C 374.0 294.8 374.0 295.7 374.0 295.7 C 374.0 296.1 374.0 296.4 374.0 296.8 C 374.0 296.8 374.5 297.1 374.8 297.0 C 375.1 296.8 374.8 296.4 374.9 296.3 C 374.9 296.1 375.3 295.9 375.3 295.9 C 375.5 296.1 375.7 296.3 375.9 296.5 C 375.9 296.5 376.0 296.7 376.2 296.9 C 376.4 297.0 377.0 297.1 377.2 297.1 C 377.3 297.0 377.5 296.8 377.7 296.6 C 377.9 296.4 377.9 296.1 378.2 296.3 C 378.4 296.6 378.6 296.9 378.7 296.9 C 378.8 296.9 379.4 296.5 379.4 296.5 C 379.6 296.4 379.7 296.3 379.9 296.3 C 379.9 296.3 380.3 296.1 380.4 296.3 C 380.4 296.5 381.3 296.3 381.3 296.3 C 381.3 296.3 381.2 296.9 381.4 297.0 C 381.7 297.1 382.0 297.2 382.4 297.1 C 382.7 297.0 383.0 296.4 383.0 296.4 C 383.1 296.6 383.2 296.7 383.3 296.9 C 383.6 296.9 384.0 297.0 384.3 297.0 C 384.3 297.0 385.0 297.0 385.0 296.9 C 385.0 296.8 384.9 296.3 384.9 296.1 C 385.0 296.0 385.4 295.8 385.4 296.0 C 385.5 296.2 385.9 296.6 385.9 296.6 C 385.9 296.6 386.2 297.0 386.4 297.0 C 386.6 297.0 387.0 296.9 387.1 296.8 C 387.1 296.6 387.5 296.3 387.5 296.3 C 387.6 296.4 387.7 296.6 387.8 296.8 C 387.8 296.8 388.4 296.5 389.0 297.0 C 389.0 297.0 389.0 297.0 389.0 297.0 Z M 389.0 297.0 " fill="#00872A"></path><g><clipPath id="clip0x7fbcfa616520"><path d="M -4.0 772.0 L 1024.0 772.0 L 1024.0 685.0 L -4.0 685.0 Z M -4.3 772.2 "></path></clipPath><g clip-path="url(#clip0x7fbcfa616520)"><image xlink:href="../../DF71272E-8E2F-4353-AF20-34E814CDE2F8/assets/261CFE2173FD913D61ADBCCF2F40C095.png" width="986.00" height="748.00" transform="matrix(1.04, 0.00, -0.00, -1.04, -4.0, 772.0)"></image></g></g><image xlink:href="../../E974EBF9-8540-461E-A80E-7C229AD3CA7C/assets/2F6727C2556C598E80EC7D62E28C8F69.png" width="733.00" height="60.00" transform="matrix(1.03, 0.00, -0.00, -1.02, 146.0, 759.0)"></image></g></svg>