<?xml version="1.0" encoding="UTF-8" standalone="no"?><svg xmlns="http://www.w3.org/2000/svg" xmlns:xlink="http://www.w3.org/1999/xlink" clip-rule="evenodd" stroke-miterlimit="10" viewBox="0 0 1024 768"><desc>SVG generated by Keynote</desc><defs></defs><g transform="matrix(1.00, 0.00, -0.00, -1.00, 0.0, 768.0)"><path d="M 0.0 768.0 L 1024.0 768.0 L 1024.0 0.0 L 0.0 0.0 Z M 0.0 768.0 " fill="#FEFFFF"></path><image xlink:href="../../A458083D-D69B-45C4-902F-6A2AFF5FFDFF/assets/67EC68E2567016468077500E22FE0557.png" width="1042.00" height="786.00" transform="matrix(1.00, 0.00, -0.00, -1.00, -9.0, 775.0)" opacity="0.50"></image><path d="M -6.0 774.0 L 1030.0 774.0 L 1030.0 -6.0 L -6.0 -6.0 Z M -6.0 774.0 " fill="#410198"></path><path d="M -0.1 -0.2 L 755.5 -0.2 L 756.9 -0.2 " fill="none" stroke="#FEFFFE" stroke-width="3.00" stroke-dasharray="18.0, 18.0" transform="matrix(0.00, -1.00, -1.00, 0.00, 909.3, 770.9)"></path><path d="M 0.0 0.0 L 3.0 5.0 L 6.0 0.0 M 3.0 0.0 L 3.0 5.0 " fill="none" stroke="#FEFFFE" stroke-width="1.36" stroke-linejoin="round" transform="matrix(2.20, 0.00, 0.00, -2.20, 902.9, 15.5)"></path><image xlink:href="../../C635A65E-94F6-4FFA-A5CB-55F208847579/assets/5C0EFF799638D7BEA8198EBF16228075.jpeg" width="800.00" height="531.00" transform="matrix(1.29, 0.00, -0.00, -1.29, -6.0, 816.0)"></image><g opacity="0.08"><g><clipPath id="clip0x7fbcfd7df8a0"><path d="M 0.0 0.0 L 1024.0 0.0 L 1024.0 768.0 L 0.0 768.0 Z M 0.0 0.0 "></path></clipPath><g clip-path="url(#clip0x7fbcfd7df8a0)"><image xlink:href="../../007B5AD6-98D6-49CF-B111-28A71F12B754/assets/2DBDDD03CB65EE4462545AB9CF6031A2.png" width="1039.00" height="778.00" transform="matrix(1.00, 0.00, -0.00, -1.00, -6.6, 773.2)" opacity="0.50"></image><path d="M -4.0 769.0 L 1028.0 769.0 L 1028.0 -1.0 L -4.0 -1.0 Z M -3.6 769.2 " fill="#000000"></path></g></g></g><g opacity="0.34"><g><clipPath id="clip0x7fbcfd7ecb40"><path d="M 171.0 374.0 L 647.0 374.0 L 647.0 541.0 L 171.0 541.0 Z M 171.0 374.0 "></path></clipPath><g clip-path="url(#clip0x7fbcfd7ecb40)"><image xlink:href="../../C635A65E-94F6-4FFA-A5CB-55F208847579/assets/53D058BC66272C42F6933F8C2DF0B317.png" width="471.00" height="164.00" transform="matrix(1.00, 0.00, -0.00, -1.00, 174.6, 539.1)" opacity="0.50"></image><path d="M 177.6 392.1 L 178.0 522.1 C 178.0 529.3 183.4 535.0 190.6 535.0 L 627.2 535.0 C 634.4 535.0 640.0 529.3 640.0 522.1 L 640.0 392.1 C 640.0 384.9 634.4 379.0 627.2 379.0 L 190.6 379.0 C 183.4 379.0 177.6 384.9 177.6 392.1 Z M 177.6 392.1 " fill="#000000"></path></g></g></g><image xlink:href="../../C635A65E-94F6-4FFA-A5CB-55F208847579/assets/59218C99A8C1B9590405B0A6778EA463.png" width="1088.00" height="347.00" transform="matrix(1.00, 0.00, -0.00, -1.00, -33.8, 325.0)" opacity="0.50"></image><g><clipPath id="clip0x7fbcfd87c5e0"><path d="M 0.0 278.0 L 1024.0 278.0 L 1024.0 -5.0 L 0.0 -5.0 Z M 0.0 277.8 "></path></clipPath><g clip-path="url(#clip0x7fbcfd87c5e0)"><image xlink:href="../../C635A65E-94F6-4FFA-A5CB-55F208847579/assets/8AB9D19CE7F1A35B0DD29C759C96002D.jpeg" width="1005.00" height="672.00" transform="matrix(1.02, 0.00, -0.00, -1.02, 0.0, 409.0)"></image></g></g><image xlink:href="../../C635A65E-94F6-4FFA-A5CB-55F208847579/assets/09EE4F9A4D9BF69891C7D8C18B912855.png" width="232.00" height="249.00" transform="matrix(1.00, 0.00, -0.00, -1.00, 15.0, 581.4)" opacity="0.50"></image><g><clipPath id="clip0x7fbcfd7f0d70"><path d="M 35.0 550.0 L 205.0 550.0 L 205.0 364.0 L 35.0 364.0 Z M 34.9 550.4 "></path></clipPath><g clip-path="url(#clip0x7fbcfd7f0d70)"><image xlink:href="../../C635A65E-94F6-4FFA-A5CB-55F208847579/assets/713545C2FD288035B17952CCAA3AFDC7.jpeg" width="140.00" height="165.00" transform="matrix(1.21, 0.00, -0.00, -1.21, 35.0, 550.0)"></image></g></g><text xml:space="preserve" font-family="MonacoForPowerline,Monaco for Powerline" font-size="36.0" fill="#FEFFFE" transform="matrix(1.00, 0.00, -0.00, -1.00, 227.1, 484.1)">D</text><text xml:space="preserve" font-family="MonacoForPowerline,Monaco for Powerline" font-size="36.0" fill="#FEFFFE" transform="matrix(1.00, 0.00, -0.00, -1.00, 248.7, 484.1)">r</text><text xml:space="preserve" font-family="MonacoForPowerline,Monaco for Powerline" font-size="36.0" fill="#FEFFFE" transform="matrix(1.00, 0.00, -0.00, -1.00, 270.3, 484.1)">.</text><text xml:space="preserve" font-family="MonacoForPowerline,Monaco for Powerline" font-size="36.0" fill="#FEFFFE" transform="matrix(1.00, 0.00, -0.00, -1.00, 291.9, 484.1)"> </text><text xml:space="preserve" font-family="MonacoForPowerline,Monaco for Powerline" font-size="36.0" fill="#FEFFFE" transform="matrix(1.00, 0.00, -0.00, -1.00, 313.5, 484.1)">L</text><text xml:space="preserve" font-family="MonacoForPowerline,Monaco for Powerline" font-size="36.0" fill="#FEFFFE" transform="matrix(1.00, 0.00, -0.00, -1.00, 335.1, 484.1)">u</text><text xml:space="preserve" font-family="MonacoForPowerline,Monaco for Powerline" font-size="36.0" fill="#FEFFFE" transform="matrix(1.00, 0.00, -0.00, -1.00, 356.7, 484.1)">n</text><text xml:space="preserve" font-family="MonacoForPowerline,Monaco for Powerline" font-size="36.0" fill="#FEFFFE" transform="matrix(1.00, 0.00, -0.00, -1.00, 378.3, 484.1)">-</text><text xml:space="preserve" font-family="MonacoForPowerline,Monaco for Powerline" font-size="36.0" fill="#FEFFFE" transform="matrix(1.00, 0.00, -0.00, -1.00, 399.9, 484.1)">W</text><text xml:space="preserve" font-family="MonacoForPowerline,Monaco for Powerline" font-size="36.0" fill="#FEFFFE" transform="matrix(1.00, 0.00, -0.00, -1.00, 421.5, 484.1)">e</text><text xml:space="preserve" font-family="MonacoForPowerline,Monaco for Powerline" font-size="36.0" fill="#FEFFFE" transform="matrix(1.00, 0.00, -0.00, -1.00, 443.1, 484.1)">i</text><text xml:space="preserve" font-family="MonacoForPowerline,Monaco for Powerline" font-size="36.0" fill="#FEFFFE" transform="matrix(1.00, 0.00, -0.00, -1.00, 464.7, 484.1)"> </text><text xml:space="preserve" font-family="MonacoForPowerline,Monaco for Powerline" font-size="36.0" fill="#FEFFFE" transform="matrix(1.00, 0.00, -0.00, -1.00, 486.3, 484.1)">K</text><text xml:space="preserve" font-family="MonacoForPowerline,Monaco for Powerline" font-size="36.0" fill="#FEFFFE" transform="matrix(1.00, 0.00, -0.00, -1.00, 508.0, 484.1)">u</text><text xml:space="preserve" font-family="MonacoForPowerline,Monaco for Powerline" font-size="24.0" fill="#FEFFFE" transform="matrix(1.00, 0.00, -0.00, -1.00, 227.1, 432.1)">A</text><text xml:space="preserve" font-family="MonacoForPowerline,Monaco for Powerline" font-size="24.0" fill="#FEFFFE" transform="matrix(1.00, 0.00, -0.00, -1.00, 241.5, 432.1)">s</text><text xml:space="preserve" font-family="MonacoForPowerline,Monaco for Powerline" font-size="24.0" fill="#FEFFFE" transform="matrix(1.00, 0.00, -0.00, -1.00, 255.9, 432.1)">s</text><text xml:space="preserve" font-family="MonacoForPowerline,Monaco for Powerline" font-size="24.0" fill="#FEFFFE" transform="matrix(1.00, 0.00, -0.00, -1.00, 270.3, 432.1)">i</text><text xml:space="preserve" font-family="MonacoForPowerline,Monaco for Powerline" font-size="24.0" fill="#FEFFFE" transform="matrix(1.00, 0.00, -0.00, -1.00, 284.7, 432.1)">s</text><text xml:space="preserve" font-family="MonacoForPowerline,Monaco for Powerline" font-size="24.0" fill="#FEFFFE" transform="matrix(1.00, 0.00, -0.00, -1.00, 299.1, 432.1)">t</text><text xml:space="preserve" font-family="MonacoForPowerline,Monaco for Powerline" font-size="24.0" fill="#FEFFFE" transform="matrix(1.00, 0.00, -0.00, -1.00, 313.5, 432.1)">a</text><text xml:space="preserve" font-family="MonacoForPowerline,Monaco for Powerline" font-size="24.0" fill="#FEFFFE" transform="matrix(1.00, 0.00, -0.00, -1.00, 327.9, 432.1)">n</text><text xml:space="preserve" font-family="MonacoForPowerline,Monaco for Powerline" font-size="24.0" fill="#FEFFFE" transform="matrix(1.00, 0.00, -0.00, -1.00, 342.3, 432.1)">t</text><text xml:space="preserve" font-family="MonacoForPowerline,Monaco for Powerline" font-size="24.0" fill="#FEFFFE" transform="matrix(1.00, 0.00, -0.00, -1.00, 356.7, 432.1)"> </text><text xml:space="preserve" font-family="MonacoForPowerline,Monaco for Powerline" font-size="24.0" fill="#FEFFFE" transform="matrix(1.00, 0.00, -0.00, -1.00, 371.1, 432.1)">R</text><text xml:space="preserve" font-family="MonacoForPowerline,Monaco for Powerline" font-size="24.0" fill="#FEFFFE" transform="matrix(1.00, 0.00, -0.00, -1.00, 385.5, 432.1)">e</text><text xml:space="preserve" font-family="MonacoForPowerline,Monaco for Powerline" font-size="24.0" fill="#FEFFFE" transform="matrix(1.00, 0.00, -0.00, -1.00, 399.9, 432.1)">s</text><text xml:space="preserve" font-family="MonacoForPowerline,Monaco for Powerline" font-size="24.0" fill="#FEFFFE" transform="matrix(1.00, 0.00, -0.00, -1.00, 414.3, 432.1)">e</text><text xml:space="preserve" font-family="MonacoForPowerline,Monaco for Powerline" font-size="24.0" fill="#FEFFFE" transform="matrix(1.00, 0.00, -0.00, -1.00, 428.7, 432.1)">a</text><text xml:space="preserve" font-family="MonacoForPowerline,Monaco for Powerline" font-size="24.0" fill="#FEFFFE" transform="matrix(1.00, 0.00, -0.00, -1.00, 443.1, 432.1)">r</text><text xml:space="preserve" font-family="MonacoForPowerline,Monaco for Powerline" font-size="24.0" fill="#FEFFFE" transform="matrix(1.00, 0.00, -0.00, -1.00, 457.5, 432.1)">c</text><text xml:space="preserve" font-family="MonacoForPowerline,Monaco for Powerline" font-size="24.0" fill="#FEFFFE" transform="matrix(1.00, 0.00, -0.00, -1.00, 471.9, 432.1)">h</text><text xml:space="preserve" font-family="MonacoForPowerline,Monaco for Powerline" font-size="24.0" fill="#FEFFFE" transform="matrix(1.00, 0.00, -0.00, -1.00, 486.3, 432.1)"> </text><text xml:space="preserve" font-family="MonacoForPowerline,Monaco for Powerline" font-size="24.0" fill="#FEFFFE" transform="matrix(1.00, 0.00, -0.00, -1.00, 500.7, 432.1)">F</text><text xml:space="preserve" font-family="MonacoForPowerline,Monaco for Powerline" font-size="24.0" fill="#FEFFFE" transform="matrix(1.00, 0.00, -0.00, -1.00, 515.1, 432.1)">e</text><text xml:space="preserve" font-family="MonacoForPowerline,Monaco for Powerline" font-size="24.0" fill="#FEFFFE" transform="matrix(1.00, 0.00, -0.00, -1.00, 529.5, 432.1)">l</text><text xml:space="preserve" font-family="MonacoForPowerline,Monaco for Powerline" font-size="24.0" fill="#FEFFFE" transform="matrix(1.00, 0.00, -0.00, -1.00, 543.9, 432.1)">l</text><text xml:space="preserve" font-family="MonacoForPowerline,Monaco for Powerline" font-size="24.0" fill="#FEFFFE" transform="matrix(1.00, 0.00, -0.00, -1.00, 558.3, 432.1)">o</text><text xml:space="preserve" font-family="MonacoForPowerline,Monaco for Powerline" font-size="24.0" fill="#FEFFFE" transform="matrix(1.00, 0.00, -0.00, -1.00, 572.7, 432.1)">w</text><text xml:space="preserve" font-family="MonacoForPowerline,Monaco for Powerline" font-size="24.0" fill="#FEFFFE" transform="matrix(1.00, 0.00, -0.00, -1.00, 227.1, 400.1)">N</text><text xml:space="preserve" font-family="MonacoForPowerline,Monaco for Powerline" font-size="24.0" fill="#FEFFFE" transform="matrix(1.00, 0.00, -0.00, -1.00, 241.5, 400.1)">a</text><text xml:space="preserve" font-family="MonacoForPowerline,Monaco for Powerline" font-size="24.0" fill="#FEFFFE" transform="matrix(1.00, 0.00, -0.00, -1.00, 255.9, 400.1)">t</text><text xml:space="preserve" font-family="MonacoForPowerline,Monaco for Powerline" font-size="24.0" fill="#FEFFFE" transform="matrix(1.00, 0.00, -0.00, -1.00, 270.3, 400.1)">u</text><text xml:space="preserve" font-family="MonacoForPowerline,Monaco for Powerline" font-size="24.0" fill="#FEFFFE" transform="matrix(1.00, 0.00, -0.00, -1.00, 284.7, 400.1)">r</text><text xml:space="preserve" font-family="MonacoForPowerline,Monaco for Powerline" font-size="24.0" fill="#FEFFFE" transform="matrix(1.00, 0.00, -0.00, -1.00, 299.1, 400.1)">a</text><text xml:space="preserve" font-family="MonacoForPowerline,Monaco for Powerline" font-size="24.0" fill="#FEFFFE" transform="matrix(1.00, 0.00, -0.00, -1.00, 313.5, 400.1)">l</text><text xml:space="preserve" font-family="MonacoForPowerline,Monaco for Powerline" font-size="24.0" fill="#FEFFFE" transform="matrix(1.00, 0.00, -0.00, -1.00, 327.9, 400.1)"> </text><text xml:space="preserve" font-family="MonacoForPowerline,Monaco for Powerline" font-size="24.0" fill="#FEFFFE" transform="matrix(1.00, 0.00, -0.00, -1.00, 342.3, 400.1)">L</text><text xml:space="preserve" font-family="MonacoForPowerline,Monaco for Powerline" font-size="24.0" fill="#FEFFFE" transform="matrix(1.00, 0.00, -0.00, -1.00, 356.7, 400.1)">a</text><text xml:space="preserve" font-family="MonacoForPowerline,Monaco for Powerline" font-size="24.0" fill="#FEFFFE" transform="matrix(1.00, 0.00, -0.00, -1.00, 371.1, 400.1)">n</text><text xml:space="preserve" font-family="MonacoForPowerline,Monaco for Powerline" font-size="24.0" fill="#FEFFFE" transform="matrix(1.00, 0.00, -0.00, -1.00, 385.5, 400.1)">g</text><text xml:space="preserve" font-family="MonacoForPowerline,Monaco for Powerline" font-size="24.0" fill="#FEFFFE" transform="matrix(1.00, 0.00, -0.00, -1.00, 399.9, 400.1)">u</text><text xml:space="preserve" font-family="MonacoForPowerline,Monaco for Powerline" font-size="24.0" fill="#FEFFFE" transform="matrix(1.00, 0.00, -0.00, -1.00, 414.3, 400.1)">a</text><text xml:space="preserve" font-family="MonacoForPowerline,Monaco for Powerline" font-size="24.0" fill="#FEFFFE" transform="matrix(1.00, 0.00, -0.00, -1.00, 428.7, 400.1)">g</text><text xml:space="preserve" font-family="MonacoForPowerline,Monaco for Powerline" font-size="24.0" fill="#FEFFFE" transform="matrix(1.00, 0.00, -0.00, -1.00, 443.1, 400.1)">e</text><text xml:space="preserve" font-family="MonacoForPowerline,Monaco for Powerline" font-size="24.0" fill="#FEFFFE" transform="matrix(1.00, 0.00, -0.00, -1.00, 457.5, 400.1)"> </text><text xml:space="preserve" font-family="MonacoForPowerline,Monaco for Powerline" font-size="24.0" fill="#FEFFFE" transform="matrix(1.00, 0.00, -0.00, -1.00, 471.9, 400.1)">P</text><text xml:space="preserve" font-family="MonacoForPowerline,Monaco for Powerline" font-size="24.0" fill="#FEFFFE" transform="matrix(1.00, 0.00, -0.00, -1.00, 486.3, 400.1)">r</text><text xml:space="preserve" font-family="MonacoForPowerline,Monaco for Powerline" font-size="24.0" fill="#FEFFFE" transform="matrix(1.00, 0.00, -0.00, -1.00, 500.8, 400.1)">o</text><text xml:space="preserve" font-family="MonacoForPowerline,Monaco for Powerline" font-size="24.0" fill="#FEFFFE" transform="matrix(1.00, 0.00, -0.00, -1.00, 515.2, 400.1)">c</text><text xml:space="preserve" font-family="MonacoForPowerline,Monaco for Powerline" font-size="24.0" fill="#FEFFFE" transform="matrix(1.00, 0.00, -0.00, -1.00, 529.6, 400.1)">e</text><text xml:space="preserve" font-family="MonacoForPowerline,Monaco for Powerline" font-size="24.0" fill="#FEFFFE" transform="matrix(1.00, 0.00, -0.00, -1.00, 544.0, 400.1)">s</text><text xml:space="preserve" font-family="MonacoForPowerline,Monaco for Powerline" font-size="24.0" fill="#FEFFFE" transform="matrix(1.00, 0.00, -0.00, -1.00, 558.4, 400.1)">s</text><text xml:space="preserve" font-family="MonacoForPowerline,Monaco for Powerline" font-size="24.0" fill="#FEFFFE" transform="matrix(1.00, 0.00, -0.00, -1.00, 572.8, 400.1)">i</text><text xml:space="preserve" font-family="MonacoForPowerline,Monaco for Powerline" font-size="24.0" fill="#FEFFFE" transform="matrix(1.00, 0.00, -0.00, -1.00, 587.2, 400.1)">n</text><text xml:space="preserve" font-family="MonacoForPowerline,Monaco for Powerline" font-size="24.0" fill="#FEFFFE" transform="matrix(1.00, 0.00, -0.00, -1.00, 601.6, 400.1)">g</text><text xml:space="preserve" font-family="MonacoForPowerline,Monaco for Powerline" font-size="24.0" fill="#FEFFFE" transform="matrix(1.00, 0.00, -0.00, -1.00, 615.9, 400.1)"> </text></g></svg>