<?xml version="1.0" encoding="UTF-8" standalone="no"?><svg xmlns="http://www.w3.org/2000/svg" xmlns:xlink="http://www.w3.org/1999/xlink" clip-rule="evenodd" stroke-miterlimit="10" viewBox="0 0 1024 768"><desc>SVG generated by Keynote</desc><defs></defs><g transform="matrix(1.00, 0.00, -0.00, -1.00, 0.0, 768.0)"><path d="M 0.0 768.0 L 1024.0 768.0 L 1024.0 0.0 L 0.0 0.0 Z M 0.0 768.0 " fill="#FEFFFF"></path><image xlink:href="../../A458083D-D69B-45C4-902F-6A2AFF5FFDFF/assets/67EC68E2567016468077500E22FE0557.png" width="1042.00" height="786.00" transform="matrix(1.00, 0.00, -0.00, -1.00, -9.0, 775.0)" opacity="0.50"></image><path d="M -6.0 774.0 L 1030.0 774.0 L 1030.0 -6.0 L -6.0 -6.0 Z M -6.0 774.0 " fill="#410198"></path><path d="M -0.1 -0.2 L 755.5 -0.2 L 756.9 -0.2 " fill="none" stroke="#FEFFFE" stroke-width="3.00" stroke-dasharray="18.0, 18.0" transform="matrix(0.00, -1.00, -1.00, 0.00, 909.3, 770.9)"></path><path d="M 0.0 0.0 L 3.0 5.0 L 6.0 0.0 M 3.0 0.0 L 3.0 5.0 " fill="none" stroke="#FEFFFE" stroke-width="1.36" stroke-linejoin="round" transform="matrix(2.20, 0.00, 0.00, -2.20, 902.9, 15.5)"></path><g><clipPath id="clip0x7fbcfa262920"><path d="M -4.0 772.0 L 1024.0 772.0 L 1024.0 -8.0 L -4.0 -8.0 Z M -4.3 772.2 "></path></clipPath><g clip-path="url(#clip0x7fbcfa262920)"><image xlink:href="../../DF71272E-8E2F-4353-AF20-34E814CDE2F8/assets/261CFE2173FD913D61ADBCCF2F40C095.png" width="986.00" height="748.00" transform="matrix(1.04, 0.00, -0.00, -1.04, -4.0, 772.0)"></image></g></g><text xml:space="preserve" font-family="Herculanum,Herculanum" font-size="72.0" fill="#000000" transform="matrix(1.00, 0.00, -0.00, -1.00, 898.9, 384.1)">?</text><text xml:space="preserve" font-family="Herculanum,Herculanum" font-size="72.0" fill="#000000" transform="matrix(1.00, 0.00, -0.00, -1.00, 940.1, 384.1)">?</text><text xml:space="preserve" font-family="Herculanum,Herculanum" font-size="72.0" fill="#000000" transform="matrix(1.00, 0.00, -0.00, -1.00, 968.2, 337.8)">?</text><g><clipPath id="clip0x7fbcfa266980"><path d="M 583.7 165.2 L 951.2 165.2 L 951.2 378.4 L 583.7 378.4 Z M 583.7 165.2 "></path></clipPath><g clip-path="url(#clip0x7fbcfa266980)"><image xlink:href="../../37C8BF0A-2A12-4B15-9A67-C007327DFA8E/assets/FDF0D5FFD448EBA94CC13D24D2797038.jpeg" width="960.00" height="557.00" transform="matrix(0.38, 0.00, -0.00, -0.38, 584.0, 378.0)"></image></g></g><g><clipPath id="clip0x7fbcf91c7a70"><path d="M 774.1 190.6 L 931.2 190.6 L 931.2 379.4 L 774.1 379.4 Z M 774.1 190.6 "></path></clipPath><g clip-path="url(#clip0x7fbcf91c7a70)"><path d="M 775.0 378.0 L 930.0 378.0 L 930.0 192.0 L 775.0 192.0 Z M 775.1 378.4 " fill="#FEFFFE"></path></g></g><g><clipPath id="clip0x7fbcfa1ac670"><path d="M 753.0 354.0 L 991.0 354.0 L 991.0 202.0 L 753.0 202.0 Z M 753.0 353.6 "></path></clipPath><g clip-path="url(#clip0x7fbcfa1ac670)"><g><clipPath id="clip0x7fbcfa1acb00"><path d="M 906.2 353.6 C 905.7 353.6 904.4 352.7 903.2 351.6 C 901.5 350.0 900.8 349.9 899.1 350.8 C 896.2 352.4 894.3 351.3 894.6 348.3 C 894.8 346.0 894.5 345.7 892.0 345.7 C 889.7 345.7 889.2 345.3 889.2 343.3 C 889.1 338.7 888.0 338.4 883.5 341.5 C 875.1 347.3 867.5 350.1 858.3 350.9 C 848.3 351.8 844.4 351.0 839.3 347.0 C 837.3 345.5 834.0 343.0 832.0 341.4 C 827.2 337.7 823.6 337.9 823.2 341.7 C 823.0 343.4 822.1 344.7 820.7 345.3 C 818.8 346.2 817.9 345.9 815.1 343.7 L 811.7 341.1 L 808.8 343.9 L 805.9 346.6 L 803.1 343.3 C 801.6 341.5 799.2 338.1 797.9 335.8 C 796.5 333.5 794.4 330.2 793.2 328.5 C 792.0 326.8 790.1 323.1 789.1 320.2 C 788.2 317.4 785.9 313.1 784.2 310.7 C 782.4 308.2 778.2 300.5 774.8 293.4 C 769.1 281.7 767.8 279.9 760.5 272.6 C 754.1 266.1 752.2 264.7 750.9 265.4 C 748.1 266.9 745.2 264.6 742.3 258.4 C 740.4 254.5 738.1 251.4 735.2 249.1 L 731.0 245.6 L 731.0 220.4 L 731.0 195.0 L 861.0 195.0 L 991.0 195.0 L 991.0 218.5 L 991.0 241.8 L 986.0 249.5 C 982.2 255.0 980.8 258.1 980.8 260.4 C 980.8 263.4 980.7 263.5 976.3 264.1 C 964.4 265.6 965.3 265.2 957.8 273.4 C 948.3 283.8 940.9 293.2 938.1 298.6 C 936.7 301.0 934.2 305.3 932.5 308.0 C 927.4 316.0 924.8 321.8 922.5 330.1 C 921.0 335.9 919.6 338.9 917.3 341.5 C 915.5 343.4 914.1 345.3 914.1 345.7 C 914.1 346.8 907.3 353.6 906.2 353.6 Z M 905.8 309.1 C 906.4 309.2 907.2 308.6 908.3 307.2 C 909.9 305.2 910.1 303.9 909.7 299.8 C 909.2 295.1 909.3 294.7 911.9 292.8 C 913.8 291.3 915.4 288.8 917.0 284.1 C 919.1 278.0 919.6 277.3 923.5 275.3 C 930.1 272.0 938.3 258.5 941.0 246.7 C 942.8 239.0 942.3 238.1 936.0 236.5 C 931.9 235.5 931.3 235.6 925.8 238.3 C 922.6 239.8 919.5 241.1 918.8 241.1 C 918.2 241.1 915.6 239.7 913.2 237.9 L 908.7 234.6 L 904.6 239.0 C 898.2 245.9 893.2 253.1 894.0 254.5 C 894.4 255.1 895.5 256.5 896.4 257.6 C 897.6 258.9 898.4 261.7 898.8 266.1 C 899.1 269.6 899.7 273.3 900.2 274.1 C 900.6 275.0 902.1 279.9 903.4 284.9 C 905.4 292.6 905.7 295.3 905.2 301.3 C 904.7 306.3 904.9 308.8 905.8 309.1 Z M 802.1 282.0 C 803.1 281.0 808.8 265.2 811.8 255.3 C 814.5 246.4 815.9 244.2 817.9 245.9 C 819.5 247.2 820.5 245.4 819.8 242.7 C 819.4 241.2 817.2 239.5 812.4 237.1 C 807.0 234.3 804.6 233.6 800.4 233.6 C 796.4 233.6 794.7 233.2 793.5 231.8 C 792.0 230.2 791.5 230.1 788.2 231.3 C 785.0 232.4 784.0 232.4 781.2 231.2 C 777.5 229.7 772.5 229.5 770.2 230.9 C 767.5 232.4 768.2 235.7 773.0 243.8 C 775.4 247.9 778.6 253.5 780.1 256.1 C 782.1 259.8 783.6 261.3 786.6 262.6 C 792.0 265.0 795.1 268.5 798.6 276.2 C 800.2 279.7 801.8 282.3 802.1 282.0 Z M 802.1 282.0 "></path></clipPath><g clip-path="url(#clip0x7fbcfa1acb00)"><image xlink:href="27A879E26F1FAD0EE79D9A3D323C6068.jpeg" width="500.00" height="317.00" transform="matrix(0.52, 0.00, -0.00, -0.52, 731.0, 360.0)"></image></g></g></g></g><text xml:space="preserve" font-family="Herculanum,Herculanum" font-size="72.0" fill="#000000" transform="matrix(1.00, 0.00, -0.00, -1.00, 750.1, 328.0)">?</text><text xml:space="preserve" font-family="Herculanum,Herculanum" font-size="72.0" fill="#000000" transform="matrix(1.00, 0.00, -0.00, -1.00, 800.9, 374.3)">?</text></g></svg>