<?xml version="1.0" encoding="UTF-8" standalone="no"?><svg xmlns="http://www.w3.org/2000/svg" xmlns:xlink="http://www.w3.org/1999/xlink" clip-rule="evenodd" stroke-miterlimit="10" viewBox="0 0 1024 768"><desc>SVG generated by Keynote</desc><defs></defs><g transform="matrix(1.00, 0.00, -0.00, -1.00, 0.0, 768.0)"><path d="M 0.0 768.0 L 1024.0 768.0 L 1024.0 0.0 L 0.0 0.0 Z M 0.0 768.0 " fill="#FEFFFF"></path><image xlink:href="../../41C1A923-930B-4274-8DA4-53E145785687/assets/746CADD5F6EA378AA7F1AFDE11A32B42.png" width="730.00" height="737.00" transform="matrix(1.00, 0.00, -0.00, -1.00, 48.0, 761.0)"></image><g><clipPath id="clip0x7fbcfa636fa0"><path d="M -4.0 772.0 L 1024.0 772.0 L 1024.0 685.0 L -4.0 685.0 Z M -4.3 772.2 "></path></clipPath><g clip-path="url(#clip0x7fbcfa636fa0)"><image xlink:href="../../DF71272E-8E2F-4353-AF20-34E814CDE2F8/assets/261CFE2173FD913D61ADBCCF2F40C095.png" width="986.00" height="748.00" transform="matrix(1.04, 0.00, -0.00, -1.04, -4.0, 772.0)"></image></g></g><text xml:space="preserve" font-family="Herculanum,Herculanum" font-size="72.0" fill="#000000" transform="matrix(1.00, 0.00, -0.00, -1.00, 763.9, 393.9)">?</text><image xlink:href="../../E974EBF9-8540-461E-A80E-7C229AD3CA7C/assets/2F6727C2556C598E80EC7D62E28C8F69.png" width="733.00" height="60.00" transform="matrix(1.03, 0.00, -0.00, -1.02, 146.0, 759.0)"></image><path d="M 547.1 268.4 C 547.4 268.5 548.9 268.5 548.9 268.4 C 548.4 268.4 547.2 268.3 547.1 268.4 C 547.1 268.4 547.1 268.4 547.1 268.4 Z M 544.1 268.5 C 544.6 268.6 545.8 268.5 546.2 268.4 C 545.5 268.5 544.2 268.4 544.1 268.5 C 544.1 268.5 544.1 268.5 544.1 268.5 Z M 548.7 268.2 C 549.5 268.2 551.0 268.2 551.3 268.1 C 550.5 268.2 549.0 268.1 548.7 268.2 C 548.7 268.2 548.7 268.2 548.7 268.2 Z M 506.2 270.0 C 506.6 270.0 508.1 270.1 508.1 270.0 C 507.5 270.0 506.3 269.9 506.2 270.0 C 506.2 270.0 506.2 270.0 506.2 270.0 Z M 514.6 269.7 C 515.1 269.8 516.3 269.8 516.7 269.7 C 516.1 269.7 514.8 269.6 514.6 269.7 C 514.6 269.7 514.6 269.7 514.6 269.7 Z M 519.5 269.8 C 520.6 269.8 521.8 269.8 521.6 269.7 C 521.2 269.8 519.6 269.7 519.5 269.8 C 519.5 269.8 519.5 269.8 519.5 269.8 Z M 547.7 263.8 C 546.5 263.9 545.6 263.8 544.8 263.8 C 540.7 263.8 546.9 264.0 547.7 263.8 C 547.7 263.8 547.7 263.8 547.7 263.8 Z M 528.1 269.4 C 527.2 269.4 526.6 269.5 526.2 269.5 C 527.0 269.5 528.0 269.6 528.1 269.4 C 528.1 269.4 528.1 269.4 528.1 269.4 Z M 535.1 269.3 C 535.3 269.4 539.5 269.4 541.8 269.3 C 539.8 269.3 534.9 269.3 535.1 269.3 C 535.1 269.3 535.1 269.3 535.1 269.3 Z M 537.9 263.8 C 535.2 263.9 530.8 263.9 528.9 263.9 C 526.9 264.0 532.3 264.0 537.4 264.0 C 542.4 264.0 538.2 263.8 540.3 263.7 C 542.3 263.7 538.3 263.6 536.3 263.7 C 534.3 263.7 537.6 263.7 537.9 263.8 C 537.9 263.8 537.9 263.8 537.9 263.8 Z M 538.0 263.4 C 539.0 263.4 539.8 263.4 540.4 263.4 C 539.4 263.3 538.4 263.3 538.0 263.4 C 538.0 263.4 538.0 263.4 538.0 263.4 Z M 392.4 266.1 C 392.7 267.2 395.1 268.1 397.7 268.7 C 398.4 268.9 399.0 269.0 399.7 269.2 C 404.4 269.6 409.2 269.9 414.0 270.0 C 414.9 270.0 415.9 270.0 416.9 270.0 C 419.8 270.1 422.7 270.2 425.7 270.2 C 426.7 270.2 427.7 270.2 428.7 270.2 C 432.2 270.3 435.6 270.2 439.1 270.2 C 440.9 270.2 442.6 270.3 444.5 270.4 C 445.4 270.5 449.3 270.4 450.7 270.4 C 449.3 270.6 455.7 270.5 455.4 270.5 C 456.1 270.4 456.9 270.4 457.6 270.3 C 458.4 270.3 457.4 270.3 456.5 270.2 C 457.3 270.2 458.2 270.2 459.0 270.2 C 459.9 270.2 460.8 270.2 461.7 270.2 C 464.7 270.3 467.9 270.2 470.7 270.1 C 478.3 270.1 499.1 270.0 495.4 270.0 C 491.1 269.9 493.3 269.8 494.4 269.8 C 495.1 269.8 496.0 269.8 497.0 269.8 C 497.0 269.8 496.9 269.9 496.7 269.9 C 498.6 269.9 501.3 270.0 503.9 269.9 C 503.4 269.9 502.8 269.9 502.6 269.8 C 503.9 269.9 502.9 269.7 503.7 269.7 C 506.1 269.7 507.3 269.6 504.5 269.6 C 507.1 269.5 508.8 269.4 511.3 269.2 C 512.3 269.2 511.8 269.2 511.5 269.3 C 513.2 269.4 517.1 269.3 517.4 269.4 C 517.8 269.5 506.9 269.4 508.8 269.5 C 509.6 269.5 511.2 269.5 511.9 269.5 C 510.5 269.6 508.8 269.6 507.9 269.6 C 508.9 269.6 510.2 269.6 511.0 269.6 C 510.0 269.6 509.4 269.7 509.1 269.7 C 510.5 269.7 511.5 269.7 513.1 269.7 C 513.8 269.7 512.5 269.6 514.0 269.6 C 514.3 269.6 513.0 269.6 513.1 269.6 C 514.3 269.5 516.8 269.5 517.4 269.5 C 518.0 269.5 515.9 269.5 515.8 269.5 C 520.6 269.4 526.0 269.4 527.7 269.4 C 529.4 269.4 527.8 269.4 527.1 269.3 C 529.0 269.3 530.5 269.3 532.8 269.3 C 534.3 269.3 533.7 269.2 533.1 269.2 C 533.5 269.2 533.9 269.2 534.1 269.2 C 534.3 269.2 534.7 269.2 535.0 269.1 C 534.1 269.1 532.4 269.1 531.6 269.1 C 533.0 269.0 536.3 269.1 537.4 269.0 C 535.6 269.0 533.5 269.0 531.4 268.9 C 535.5 268.9 539.8 269.1 543.1 268.9 C 542.5 268.9 542.2 268.8 541.7 268.8 C 543.0 268.9 544.9 268.9 546.0 268.8 C 546.6 268.8 547.8 268.7 549.1 268.7 C 546.9 268.7 545.5 268.7 544.0 268.7 C 544.0 268.7 544.1 268.7 544.4 268.7 C 541.0 268.5 539.1 268.8 536.7 268.8 C 536.5 268.8 536.3 268.8 536.1 268.8 C 535.4 268.7 538.1 268.8 538.4 268.7 C 534.8 268.7 530.9 268.7 529.2 268.6 C 533.4 268.6 537.1 268.6 540.3 268.5 C 539.5 268.4 536.3 268.5 534.8 268.4 C 541.7 268.3 542.4 268.3 543.0 268.3 C 542.4 268.3 541.9 268.3 541.3 268.3 C 541.5 268.2 541.6 268.2 541.8 268.2 C 544.8 268.2 548.4 268.2 548.2 268.2 C 548.0 268.1 545.3 268.1 542.3 268.1 C 542.6 268.1 542.9 268.0 543.3 268.0 C 546.7 267.9 550.6 267.7 554.0 267.8 C 553.4 267.7 553.7 267.7 554.5 267.7 C 553.4 267.6 551.8 267.6 550.7 267.6 C 551.1 267.5 551.8 267.5 552.0 267.5 C 551.4 267.5 550.5 267.5 550.2 267.4 C 551.9 267.4 553.6 267.4 555.3 267.3 C 555.7 267.2 554.6 267.3 554.7 267.2 C 556.3 267.2 558.6 267.2 559.8 267.2 C 558.4 267.1 555.7 267.1 554.9 267.1 C 555.4 267.1 556.0 267.0 556.5 267.0 C 557.6 267.0 558.2 267.0 556.9 266.9 C 556.3 266.9 556.3 266.9 556.4 266.9 C 557.2 266.8 559.8 266.8 559.8 266.7 C 559.1 266.7 556.5 266.7 555.8 266.6 C 556.3 266.5 557.6 266.5 557.8 266.4 C 554.8 266.5 555.0 266.4 554.2 266.5 C 554.5 266.5 555.4 266.5 555.3 266.6 C 553.5 266.6 551.7 266.6 549.9 266.6 C 549.9 266.6 549.9 266.6 549.9 266.6 C 549.9 266.6 549.9 266.6 549.9 266.6 C 549.9 266.6 549.9 266.6 549.9 266.6 C 550.0 266.5 550.0 266.4 549.8 266.3 C 550.6 266.3 551.4 266.3 552.9 266.3 C 552.5 266.2 551.2 266.2 549.9 266.2 C 549.9 266.2 549.9 266.2 549.9 266.2 C 552.0 266.2 555.0 266.1 557.1 266.1 C 556.2 266.0 552.7 266.0 550.3 266.0 C 550.4 266.0 550.5 266.0 550.5 266.0 C 547.6 266.0 544.1 265.9 540.7 265.9 C 542.4 265.7 544.2 265.9 546.3 265.8 C 547.3 265.8 548.1 265.8 549.1 265.7 C 551.7 265.8 559.6 265.8 560.5 265.7 C 561.4 265.6 553.5 265.6 553.4 265.6 C 553.4 265.6 557.1 265.5 555.4 265.5 C 554.5 265.5 552.5 265.5 551.0 265.6 C 551.0 265.5 550.9 265.4 550.9 265.3 C 552.1 265.3 553.6 265.3 553.7 265.4 C 554.3 265.4 555.6 265.5 555.8 265.4 C 555.6 265.4 555.3 265.4 555.3 265.3 C 555.6 265.3 556.0 265.3 556.1 265.3 C 554.5 265.3 552.4 265.2 550.8 265.2 C 550.7 265.2 550.5 265.2 550.4 265.1 C 550.4 265.1 551.7 265.1 552.8 265.1 C 554.0 265.0 551.5 265.0 549.6 265.0 C 549.3 265.0 549.0 264.9 548.7 264.9 C 549.3 264.9 550.1 264.9 551.0 264.9 C 552.1 264.8 552.1 264.7 553.1 264.7 C 551.2 264.6 548.8 264.6 546.9 264.7 C 546.2 264.6 545.5 264.5 544.8 264.4 C 546.4 264.4 547.8 264.3 548.7 264.3 C 549.4 264.3 550.1 264.3 550.4 264.2 C 549.7 264.2 551.4 264.2 551.2 264.1 C 550.3 264.2 548.4 264.1 547.7 264.3 C 546.3 264.3 544.7 264.3 543.3 264.3 C 543.1 264.3 542.9 264.2 542.7 264.2 C 543.9 264.2 545.1 264.2 546.3 264.1 C 545.8 264.0 542.2 264.0 539.7 264.1 C 534.5 264.0 529.2 264.5 524.1 264.6 C 523.8 264.6 523.5 264.6 523.2 264.5 C 522.8 264.5 522.5 264.5 522.1 264.4 C 523.3 264.4 524.4 264.4 525.3 264.4 C 521.7 264.3 530.6 264.3 531.2 264.2 C 525.2 264.0 514.1 264.1 507.2 264.0 C 508.8 264.0 509.4 264.0 507.6 263.9 C 507.1 263.9 506.6 263.9 506.1 263.9 C 513.1 263.8 520.4 264.0 526.0 263.8 C 522.7 263.8 517.6 263.9 516.3 263.7 C 517.2 263.7 518.7 263.8 518.8 263.7 C 517.1 263.6 511.5 263.7 509.8 263.6 C 518.0 263.6 529.0 263.7 535.0 263.4 C 526.0 263.5 513.7 263.4 505.9 263.6 C 507.2 263.6 507.3 263.6 506.6 263.7 C 504.1 263.7 501.7 263.7 499.2 263.8 C 498.7 263.7 498.9 263.7 500.1 263.7 C 501.1 263.7 501.7 263.7 502.0 263.6 C 501.3 263.6 493.6 263.6 499.7 263.6 C 505.8 263.5 516.4 263.4 510.2 263.4 C 504.0 263.4 501.6 263.3 505.0 263.3 C 508.4 263.2 519.0 263.1 515.5 263.1 C 511.9 263.1 504.4 263.0 500.1 263.0 C 495.8 263.0 503.0 263.4 496.7 263.4 C 490.5 263.4 495.7 263.3 494.5 263.3 C 492.6 263.3 489.1 263.3 485.8 263.3 C 483.5 263.2 480.5 263.2 479.0 263.2 C 479.1 263.1 486.1 263.2 483.4 263.1 C 476.5 263.1 468.8 263.1 472.0 263.2 C 467.7 263.2 464.6 263.2 461.9 263.2 C 457.8 263.1 453.0 263.1 452.5 263.1 C 451.8 263.0 440.6 263.3 436.3 262.9 C 436.0 262.9 428.4 263.0 427.8 263.2 C 420.5 263.0 421.6 262.9 414.4 263.0 C 408.5 263.0 406.7 263.1 405.7 263.1 C 399.4 263.2 399.4 263.0 396.4 263.6 C 395.4 263.7 394.0 263.7 393.5 264.0 C 392.6 264.6 392.1 265.3 392.4 266.1 C 392.4 266.1 392.4 266.1 392.4 266.1 Z M 549.1 266.7 C 550.2 266.8 552.2 266.8 553.3 266.8 C 552.0 266.9 550.4 266.9 548.7 266.8 C 548.8 266.8 548.9 266.8 549.1 266.7 C 549.1 266.7 549.1 266.7 549.1 266.7 Z M 540.5 265.1 C 541.2 265.1 542.1 265.1 543.0 265.1 C 543.8 265.1 544.6 265.1 545.8 265.1 C 545.7 265.0 543.7 265.0 542.2 265.0 C 542.2 265.0 542.2 264.9 542.2 264.9 C 542.9 264.8 543.8 264.8 544.8 264.8 C 545.2 264.8 545.6 264.8 545.9 264.8 C 545.9 264.9 545.4 264.9 545.2 264.9 C 545.4 265.0 546.4 265.0 547.6 265.1 C 547.7 265.1 547.9 265.1 548.0 265.1 C 548.2 265.2 547.3 265.2 548.3 265.2 C 547.6 265.3 545.7 265.3 544.6 265.3 C 545.9 265.1 541.0 265.2 539.8 265.1 C 540.0 265.1 540.3 265.1 540.5 265.1 Z M 531.2 268.9 C 530.5 268.9 529.9 268.9 529.2 268.9 C 530.2 268.9 530.9 268.9 531.6 268.9 C 531.5 268.9 531.3 268.9 531.2 268.9 Z M 476.6 269.8 C 480.5 269.5 488.9 269.8 489.4 269.6 C 490.3 269.7 491.1 269.7 492.0 269.7 C 486.5 269.7 480.5 269.7 476.6 269.8 C 476.6 269.8 476.6 269.8 476.6 269.8 Z M 490.6 263.7 C 490.9 263.7 490.8 263.7 490.0 263.7 C 485.7 263.8 483.2 263.9 485.9 263.9 C 488.2 263.9 493.2 263.9 491.7 263.9 C 489.8 263.9 487.8 264.0 485.8 264.0 C 484.2 263.9 482.7 263.8 481.2 263.7 C 484.5 263.7 487.7 263.7 490.6 263.7 C 490.6 263.7 490.6 263.7 490.6 263.7 Z M 479.4 263.6 C 480.5 263.6 482.0 263.6 483.4 263.6 C 482.1 263.6 480.9 263.6 479.6 263.6 C 479.5 263.6 479.5 263.6 479.4 263.6 Z M 477.8 263.4 C 480.3 263.4 482.7 263.4 480.2 263.5 C 479.7 263.5 479.1 263.5 478.6 263.5 C 478.3 263.5 478.1 263.5 477.8 263.4 Z M 476.4 263.4 C 476.4 263.4 476.8 263.4 477.6 263.4 C 476.0 263.5 472.7 263.5 472.8 263.4 C 473.9 263.4 475.1 263.4 476.4 263.4 C 476.4 263.4 476.4 263.4 476.4 263.4 Z M 473.9 269.9 C 475.0 270.0 475.9 270.0 474.2 270.0 C 473.6 270.0 472.9 270.0 472.3 270.0 C 472.8 270.0 473.4 270.0 473.9 269.9 Z M 529.6 263.7 C 529.1 263.7 527.4 263.7 526.4 263.7 C 526.3 264.0 530.2 263.8 529.6 263.7 C 529.6 263.7 529.6 263.7 529.6 263.7 Z M 536.1 263.6 C 535.6 263.6 533.9 263.6 532.9 263.6 C 532.8 263.9 536.7 263.7 536.1 263.6 C 536.1 263.6 536.1 263.6 536.1 263.6 Z M 436.3 262.9 C 436.3 262.9 436.3 262.9 436.3 262.9 C 436.3 262.9 436.3 262.9 436.3 262.9 C 436.3 262.9 436.3 262.9 436.3 262.9 Z M 436.3 262.9 " fill="#00872A"></path><path d="M 411.9 127.1 C 412.3 127.1 413.8 127.1 413.8 127.0 C 413.2 127.1 412.0 127.0 411.9 127.1 C 411.9 127.1 411.9 127.1 411.9 127.1 Z M 408.9 127.1 C 409.4 127.2 410.6 127.2 411.0 127.1 C 410.4 127.1 409.1 127.0 408.9 127.1 C 408.9 127.1 408.9 127.1 408.9 127.1 Z M 413.5 126.8 C 414.3 126.8 415.8 126.9 416.2 126.8 C 415.4 126.8 413.9 126.7 413.5 126.8 C 413.5 126.8 413.5 126.8 413.5 126.8 Z M 371.0 128.6 C 371.4 128.7 372.9 128.7 372.9 128.6 C 372.3 128.6 371.1 128.5 371.0 128.6 C 371.0 128.6 371.0 128.6 371.0 128.6 Z M 379.4 128.4 C 380.0 128.5 381.2 128.4 381.6 128.3 C 380.9 128.4 379.6 128.3 379.4 128.4 C 379.4 128.4 379.4 128.4 379.4 128.4 Z M 384.3 128.4 C 385.4 128.4 386.7 128.4 386.4 128.3 C 386.1 128.4 384.4 128.3 384.3 128.4 C 384.3 128.4 384.3 128.4 384.3 128.4 Z M 412.5 122.5 C 411.3 122.5 410.5 122.4 409.6 122.5 C 405.5 122.5 411.7 122.7 412.5 122.5 C 412.5 122.5 412.5 122.5 412.5 122.5 Z M 392.9 128.1 C 392.1 128.1 391.4 128.1 391.0 128.2 C 391.8 128.2 392.9 128.2 392.9 128.1 C 392.9 128.1 392.9 128.1 392.9 128.1 Z M 400.0 128.0 C 400.1 128.0 404.3 128.0 406.7 127.9 C 404.7 127.9 399.8 127.9 400.0 128.0 C 400.0 128.0 400.0 128.0 400.0 128.0 Z M 402.7 122.4 C 400.0 122.5 395.7 122.5 393.7 122.6 C 391.7 122.6 397.2 122.7 402.2 122.6 C 407.2 122.6 403.1 122.4 405.1 122.4 C 407.2 122.3 403.2 122.3 401.1 122.3 C 399.1 122.4 402.5 122.4 402.7 122.4 C 402.7 122.4 402.7 122.4 402.7 122.4 Z M 402.8 122.1 C 403.8 122.1 404.7 122.0 405.2 122.0 C 404.2 122.0 403.3 121.9 402.8 122.1 C 402.8 122.1 402.8 122.1 402.8 122.1 Z M 257.2 124.8 C 257.6 125.9 260.0 126.7 262.5 127.4 C 263.2 127.5 263.8 127.7 264.5 127.8 C 269.3 128.3 274.0 128.5 278.8 128.6 C 279.8 128.6 280.7 128.7 281.7 128.7 C 284.6 128.8 287.6 128.8 290.5 128.8 C 291.5 128.8 292.5 128.8 293.5 128.8 C 297.1 129.0 300.5 128.8 303.9 128.8 C 305.7 128.8 307.5 128.9 309.3 129.0 C 310.2 129.1 314.1 129.1 315.5 129.0 C 314.2 129.2 320.6 129.1 320.3 129.1 C 321.0 129.0 321.7 129.0 322.5 129.0 C 323.2 128.9 322.3 128.9 321.3 128.9 C 322.2 128.8 323.0 128.8 323.9 128.8 C 324.7 128.8 325.6 128.8 326.6 128.8 C 329.5 128.9 332.8 128.9 335.5 128.7 C 343.1 128.8 364.0 128.7 360.2 128.6 C 355.9 128.6 358.1 128.5 359.3 128.5 C 359.9 128.4 360.8 128.4 361.8 128.4 C 361.8 128.5 361.7 128.5 361.6 128.5 C 363.5 128.6 366.1 128.7 368.8 128.6 C 368.3 128.5 367.7 128.5 367.4 128.5 C 368.7 128.5 367.7 128.4 368.6 128.3 C 371.0 128.3 372.1 128.3 369.3 128.3 C 371.9 128.2 373.6 128.0 376.2 127.9 C 377.1 127.9 376.6 127.9 376.3 127.9 C 378.0 128.0 381.9 128.0 382.3 128.0 C 382.6 128.1 371.7 128.1 373.6 128.1 C 374.4 128.2 376.1 128.1 376.7 128.2 C 375.3 128.2 373.6 128.2 372.7 128.2 C 373.7 128.3 375.0 128.3 375.8 128.3 C 374.9 128.3 374.2 128.3 374.0 128.3 C 375.3 128.4 376.3 128.4 377.9 128.4 C 378.6 128.3 377.3 128.3 378.8 128.3 C 379.1 128.2 377.8 128.2 377.9 128.2 C 379.2 128.2 381.6 128.2 382.2 128.1 C 382.8 128.1 380.7 128.1 380.7 128.1 C 385.4 128.1 390.8 128.1 392.5 128.0 C 394.2 128.0 392.6 128.0 391.9 128.0 C 393.9 127.9 395.3 127.9 397.7 127.9 C 399.1 127.9 398.5 127.9 398.0 127.9 C 398.4 127.8 398.7 127.8 399.0 127.8 C 399.1 127.8 399.5 127.8 399.8 127.8 C 398.9 127.8 397.2 127.8 396.5 127.7 C 397.8 127.7 401.1 127.7 402.3 127.7 C 400.4 127.6 398.4 127.6 396.3 127.6 C 400.4 127.5 404.6 127.8 407.9 127.6 C 407.3 127.6 407.1 127.5 406.6 127.4 C 407.8 127.5 409.7 127.6 410.8 127.4 C 411.5 127.4 412.7 127.4 413.9 127.4 C 411.8 127.3 410.3 127.3 408.8 127.4 C 408.8 127.3 409.0 127.3 409.2 127.3 C 405.9 127.1 403.9 127.4 401.5 127.5 C 401.4 127.5 401.2 127.5 401.0 127.5 C 400.2 127.4 402.9 127.4 403.2 127.3 C 399.7 127.3 395.8 127.4 394.0 127.3 C 398.3 127.2 402.0 127.3 405.2 127.2 C 404.3 127.0 401.1 127.1 399.6 127.1 C 406.5 127.0 407.2 126.9 407.8 126.9 C 407.3 126.9 406.7 126.9 406.2 126.9 C 406.3 126.9 406.5 126.9 406.6 126.8 C 409.6 126.8 413.2 126.8 413.0 126.8 C 412.9 126.8 410.1 126.7 407.2 126.7 C 407.5 126.7 407.8 126.6 408.1 126.6 C 411.5 126.6 415.4 126.4 418.8 126.5 C 418.3 126.4 418.6 126.4 419.3 126.3 C 418.2 126.2 416.7 126.2 415.5 126.2 C 415.9 126.2 416.6 126.2 416.9 126.1 C 416.3 126.1 415.4 126.1 415.1 126.0 C 416.7 126.0 418.5 126.0 420.2 126.0 C 420.5 125.9 419.4 125.9 419.5 125.9 C 421.1 125.8 423.4 125.9 424.6 125.8 C 423.2 125.7 420.6 125.8 419.7 125.7 C 420.3 125.7 420.8 125.7 421.4 125.6 C 422.5 125.6 423.0 125.6 421.8 125.6 C 421.1 125.5 421.1 125.5 421.3 125.5 C 422.0 125.5 424.7 125.5 424.6 125.3 C 423.9 125.3 421.3 125.3 420.6 125.2 C 421.1 125.1 422.5 125.2 422.6 125.1 C 419.7 125.1 419.8 125.1 419.1 125.2 C 419.4 125.2 420.2 125.1 420.2 125.2 C 418.4 125.2 416.6 125.2 414.7 125.2 C 414.7 125.2 414.7 125.2 414.7 125.2 C 414.7 125.2 414.7 125.2 414.7 125.2 C 414.7 125.2 414.7 125.2 414.7 125.2 C 414.9 125.1 414.8 125.0 414.7 125.0 C 415.4 125.0 416.3 124.9 417.7 125.0 C 417.3 124.8 416.0 124.8 414.7 124.9 C 414.8 124.9 414.8 124.8 414.8 124.8 C 416.8 124.8 419.9 124.8 421.9 124.7 C 421.0 124.7 417.5 124.7 415.2 124.7 C 415.2 124.7 415.3 124.6 415.4 124.6 C 412.4 124.6 408.9 124.5 405.6 124.6 C 407.2 124.4 409.1 124.5 411.1 124.5 C 412.1 124.5 413.0 124.4 413.9 124.4 C 416.6 124.4 424.4 124.4 425.3 124.3 C 426.3 124.3 418.3 124.3 418.3 124.2 C 418.2 124.2 421.9 124.1 420.2 124.2 C 419.3 124.2 417.3 124.2 415.9 124.2 C 415.8 124.1 415.8 124.0 415.7 123.9 C 417.0 123.9 418.5 123.9 418.5 124.1 C 419.1 124.0 420.4 124.1 420.6 124.0 C 420.4 124.0 420.1 124.0 420.1 124.0 C 420.4 124.0 420.9 124.0 420.9 123.9 C 419.4 123.9 417.3 123.9 415.6 123.9 C 415.5 123.8 415.3 123.8 415.2 123.8 C 415.2 123.8 416.5 123.7 417.6 123.7 C 418.8 123.7 416.4 123.6 414.4 123.6 C 414.1 123.6 413.8 123.6 413.5 123.5 C 414.2 123.5 415.0 123.5 415.9 123.5 C 416.9 123.5 416.9 123.4 418.0 123.3 C 416.0 123.3 413.6 123.3 411.7 123.3 C 411.0 123.2 410.4 123.1 409.6 123.1 C 411.2 123.0 412.7 123.0 413.5 122.9 C 414.2 122.9 415.0 122.9 415.2 122.9 C 414.6 122.8 416.3 122.8 416.0 122.7 C 415.1 122.8 413.2 122.8 412.6 122.9 C 411.1 122.9 409.5 122.9 408.1 122.9 C 407.9 122.9 407.8 122.9 407.6 122.9 C 408.8 122.9 409.9 122.8 411.2 122.8 C 410.6 122.6 407.1 122.6 404.5 122.7 C 399.3 122.6 394.1 123.1 388.9 123.2 C 388.7 123.2 388.4 123.2 388.0 123.2 C 387.7 123.1 387.3 123.1 386.9 123.1 C 388.1 123.1 389.3 123.0 390.2 123.0 C 386.5 122.9 395.4 122.9 396.0 122.8 C 390.0 122.6 378.9 122.8 372.0 122.6 C 373.7 122.6 374.2 122.6 372.4 122.6 C 372.0 122.6 371.5 122.6 371.0 122.6 C 378.0 122.5 385.2 122.7 390.8 122.5 C 387.5 122.4 382.5 122.5 381.1 122.4 C 382.1 122.4 383.5 122.4 383.7 122.4 C 382.0 122.2 376.3 122.4 374.6 122.3 C 382.8 122.2 393.9 122.3 399.9 122.1 C 390.8 122.2 378.5 122.0 370.7 122.2 C 372.1 122.2 372.1 122.3 371.4 122.3 C 369.0 122.3 366.6 122.4 364.1 122.4 C 363.6 122.4 363.7 122.4 364.9 122.3 C 365.9 122.3 366.5 122.3 366.8 122.2 C 366.1 122.2 358.5 122.2 364.6 122.2 C 370.7 122.2 381.2 122.1 375.1 122.1 C 368.9 122.0 366.4 121.9 369.8 121.9 C 373.2 121.9 383.9 121.7 380.3 121.7 C 376.7 121.7 369.2 121.6 364.9 121.6 C 360.7 121.7 367.8 122.0 361.6 122.0 C 355.3 122.0 360.5 121.9 359.3 121.9 C 357.4 121.9 353.9 121.9 350.6 121.9 C 348.3 121.9 345.3 121.9 343.8 121.8 C 343.9 121.8 351.0 121.8 348.2 121.7 C 341.3 121.7 333.6 121.7 336.8 121.9 C 332.5 121.8 329.4 121.9 326.8 121.9 C 322.6 121.7 317.8 121.8 317.3 121.7 C 316.7 121.7 305.4 122.0 301.2 121.6 C 300.9 121.6 293.3 121.7 292.6 121.8 C 285.4 121.7 286.4 121.6 279.3 121.6 C 273.3 121.7 271.5 121.7 270.5 121.7 C 264.2 121.8 264.3 121.7 261.2 122.2 C 260.3 122.4 258.9 122.4 258.4 122.7 C 257.4 123.2 256.9 123.9 257.2 124.8 C 257.2 124.8 257.2 124.8 257.2 124.8 Z M 413.9 125.4 C 415.0 125.4 417.0 125.4 418.2 125.4 C 416.8 125.6 415.2 125.5 413.5 125.5 C 413.6 125.4 413.8 125.4 413.9 125.4 C 413.9 125.4 413.9 125.4 413.9 125.4 Z M 405.3 123.7 C 406.1 123.7 407.0 123.8 407.8 123.8 C 408.6 123.8 409.4 123.8 410.6 123.7 C 410.5 123.7 408.5 123.6 407.0 123.6 C 407.0 123.6 407.0 123.6 407.0 123.5 C 407.7 123.5 408.6 123.5 409.7 123.5 C 410.0 123.5 410.4 123.5 410.8 123.5 C 410.8 123.5 410.2 123.6 410.0 123.6 C 410.3 123.6 411.2 123.7 412.4 123.7 C 412.6 123.7 412.7 123.7 412.8 123.8 C 413.0 123.8 412.1 123.9 413.1 123.9 C 412.4 124.0 410.6 123.9 409.4 123.9 C 410.7 123.7 405.8 123.8 404.6 123.8 C 404.9 123.7 405.1 123.7 405.3 123.7 Z M 396.0 127.6 C 395.4 127.6 394.7 127.6 394.0 127.6 C 395.0 127.5 395.7 127.5 396.4 127.5 C 396.3 127.5 396.2 127.5 396.0 127.6 Z M 341.4 128.4 C 345.4 128.2 353.7 128.4 354.3 128.3 C 355.1 128.3 356.0 128.3 356.8 128.3 C 351.3 128.3 345.4 128.4 341.4 128.4 C 341.4 128.4 341.4 128.4 341.4 128.4 Z M 355.4 122.3 C 355.8 122.3 355.6 122.3 354.8 122.4 C 350.5 122.4 348.0 122.5 350.7 122.5 C 353.0 122.5 358.0 122.5 356.6 122.6 C 354.6 122.6 352.7 122.6 350.6 122.6 C 349.1 122.6 347.6 122.5 346.0 122.4 C 349.4 122.3 352.5 122.3 355.4 122.3 C 355.4 122.3 355.4 122.3 355.4 122.3 Z M 344.2 122.2 C 345.4 122.2 346.8 122.2 348.2 122.2 C 347.0 122.2 345.7 122.2 344.5 122.3 C 344.4 122.2 344.3 122.2 344.2 122.2 Z M 342.7 122.1 C 345.1 122.1 347.5 122.1 345.1 122.1 C 344.5 122.1 344.0 122.1 343.4 122.1 C 343.2 122.1 342.9 122.1 342.7 122.1 Z M 341.2 122.0 C 341.2 122.1 341.6 122.1 342.4 122.1 C 340.8 122.1 337.5 122.1 337.7 122.0 C 338.8 122.0 340.0 122.0 341.2 122.0 C 341.2 122.0 341.2 122.0 341.2 122.0 Z M 338.7 128.6 C 339.8 128.6 340.7 128.6 339.0 128.6 C 338.4 128.7 337.8 128.7 337.1 128.7 C 337.6 128.6 338.2 128.6 338.7 128.6 Z M 394.4 122.3 C 394.0 122.4 392.2 122.3 391.2 122.4 C 391.1 122.7 395.1 122.5 394.4 122.3 C 394.4 122.3 394.4 122.3 394.4 122.3 Z M 400.9 122.2 C 400.5 122.2 398.7 122.2 397.7 122.3 C 397.6 122.5 401.5 122.3 400.9 122.2 C 400.9 122.2 400.9 122.2 400.9 122.2 Z M 301.2 121.6 C 301.2 121.6 301.2 121.6 301.2 121.6 C 301.2 121.6 301.2 121.6 301.2 121.6 C 301.2 121.6 301.2 121.6 301.2 121.6 Z M 301.2 121.6 " fill="#C82505"></path><path d="M 388.9 26.1 C 389.3 26.1 391.0 26.1 391.1 26.0 C 390.4 26.0 389.0 26.0 388.9 26.1 C 388.9 26.1 388.9 26.1 388.9 26.1 Z M 385.4 26.1 C 386.0 26.2 387.4 26.1 387.8 26.1 C 387.1 26.1 385.6 26.0 385.4 26.1 C 385.4 26.1 385.4 26.1 385.4 26.1 Z M 390.8 25.8 C 391.7 25.8 393.4 25.8 393.8 25.8 C 392.9 25.8 391.2 25.7 390.8 25.8 C 390.8 25.8 390.8 25.8 390.8 25.8 Z M 341.4 27.6 C 341.8 27.7 343.5 27.7 343.5 27.6 C 342.9 27.6 341.5 27.5 341.4 27.6 C 341.4 27.6 341.4 27.6 341.4 27.6 Z M 351.1 27.4 C 351.8 27.4 353.1 27.4 353.6 27.3 C 352.8 27.3 351.3 27.3 351.1 27.4 C 351.1 27.4 351.1 27.4 351.1 27.4 Z M 356.8 27.4 C 358.1 27.4 359.5 27.4 359.3 27.3 C 358.8 27.4 356.9 27.3 356.8 27.4 C 356.8 27.4 356.8 27.4 356.8 27.4 Z M 389.6 21.5 C 388.2 21.5 387.2 21.4 386.2 21.4 C 381.5 21.4 388.7 21.6 389.6 21.5 C 389.6 21.5 389.6 21.5 389.6 21.5 Z M 366.8 27.1 C 365.8 27.1 365.1 27.1 364.6 27.1 C 365.5 27.1 366.7 27.2 366.8 27.1 C 366.8 27.1 366.8 27.1 366.8 27.1 Z M 375.0 26.9 C 375.2 27.0 380.1 27.0 382.8 26.9 C 380.5 26.9 374.8 26.9 375.0 26.9 C 375.0 26.9 375.0 26.9 375.0 26.9 Z M 378.2 21.4 C 375.0 21.5 370.0 21.5 367.7 21.5 C 365.4 21.6 371.8 21.6 377.6 21.6 C 383.4 21.6 378.6 21.4 381.0 21.3 C 383.4 21.3 378.7 21.3 376.3 21.3 C 374.0 21.4 377.9 21.3 378.2 21.4 C 378.2 21.4 378.2 21.4 378.2 21.4 Z M 378.3 21.0 C 379.5 21.0 380.5 21.0 381.1 21.0 C 380.0 20.9 378.8 20.9 378.3 21.0 C 378.3 21.0 378.3 21.0 378.3 21.0 Z M 209.0 23.8 C 209.4 24.8 212.2 25.7 215.2 26.3 C 215.9 26.5 216.7 26.6 217.5 26.8 C 223.0 27.2 228.6 27.5 234.1 27.6 C 235.2 27.6 236.3 27.6 237.5 27.7 C 240.9 27.7 244.3 27.8 247.7 27.8 C 248.9 27.8 250.0 27.8 251.2 27.8 C 255.3 27.9 259.3 27.8 263.3 27.8 C 265.4 27.8 267.4 27.9 269.6 28.0 C 270.6 28.1 275.1 28.1 276.8 28.0 C 275.2 28.2 282.7 28.1 282.3 28.1 C 283.1 28.0 284.0 28.0 284.9 27.9 C 285.7 27.9 284.6 27.9 283.6 27.9 C 284.5 27.8 285.5 27.8 286.5 27.8 C 287.5 27.8 288.6 27.8 289.6 27.8 C 293.1 27.9 296.8 27.8 300.1 27.7 C 308.9 27.7 333.1 27.6 328.7 27.6 C 323.8 27.5 326.3 27.4 327.7 27.4 C 328.4 27.4 329.5 27.4 330.7 27.4 C 330.6 27.4 330.5 27.5 330.4 27.5 C 332.6 27.5 335.7 27.7 338.7 27.5 C 338.1 27.5 337.4 27.5 337.2 27.5 C 338.7 27.5 337.5 27.4 338.5 27.3 C 341.3 27.3 342.6 27.3 339.4 27.3 C 342.4 27.2 344.3 27.0 347.3 26.8 C 348.4 26.9 347.8 26.9 347.5 26.9 C 349.5 27.0 354.0 26.9 354.4 27.0 C 354.8 27.1 342.1 27.0 344.4 27.1 C 345.3 27.1 347.2 27.1 347.9 27.2 C 346.3 27.2 344.4 27.2 343.3 27.2 C 344.4 27.2 346.0 27.2 346.9 27.3 C 345.8 27.3 345.1 27.3 344.7 27.3 C 346.3 27.3 347.5 27.3 349.4 27.3 C 350.2 27.3 348.7 27.2 350.4 27.2 C 350.7 27.2 349.3 27.2 349.4 27.2 C 350.8 27.1 353.6 27.1 354.4 27.1 C 355.0 27.1 352.6 27.1 352.6 27.1 C 358.1 27.0 364.4 27.0 366.3 27.0 C 368.3 27.0 366.4 27.0 365.6 26.9 C 367.9 26.9 369.6 26.9 372.3 26.9 C 374.0 26.9 373.3 26.9 372.7 26.8 C 373.2 26.8 373.6 26.8 373.8 26.8 C 374.0 26.8 374.5 26.8 374.8 26.8 C 373.8 26.7 371.8 26.8 370.9 26.7 C 372.5 26.6 376.3 26.7 377.7 26.6 C 375.5 26.6 373.2 26.6 370.7 26.6 C 375.5 26.5 380.4 26.7 384.2 26.5 C 383.6 26.5 383.3 26.5 382.7 26.4 C 384.2 26.5 386.3 26.6 387.6 26.4 C 388.4 26.4 389.8 26.4 391.2 26.3 C 388.7 26.3 387.0 26.3 385.3 26.3 C 385.3 26.3 385.5 26.3 385.8 26.3 C 381.9 26.1 379.6 26.4 376.8 26.5 C 376.6 26.5 376.4 26.4 376.2 26.4 C 375.3 26.3 378.4 26.4 378.8 26.3 C 374.6 26.3 370.1 26.3 368.1 26.2 C 373.0 26.2 377.3 26.2 381.0 26.1 C 380.1 26.0 376.4 26.1 374.6 26.0 C 382.6 25.9 383.4 25.9 384.1 25.9 C 383.5 25.9 382.9 25.9 382.2 25.9 C 382.4 25.8 382.5 25.8 382.7 25.8 C 386.2 25.8 390.4 25.8 390.2 25.8 C 390.0 25.7 386.8 25.7 383.4 25.7 C 383.7 25.7 384.1 25.6 384.5 25.6 C 388.4 25.6 393.0 25.4 397.0 25.4 C 396.3 25.3 396.6 25.3 397.5 25.3 C 396.2 25.2 394.4 25.2 393.1 25.2 C 393.5 25.1 394.4 25.2 394.6 25.1 C 394.0 25.1 392.9 25.1 392.6 25.0 C 394.5 25.0 396.5 25.0 398.5 24.9 C 398.9 24.8 397.6 24.9 397.7 24.9 C 399.6 24.8 402.3 24.9 403.6 24.8 C 402.1 24.7 398.9 24.8 398.0 24.7 C 398.6 24.7 399.2 24.6 399.9 24.6 C 401.2 24.6 401.8 24.6 400.3 24.5 C 399.6 24.5 399.6 24.5 399.8 24.5 C 400.7 24.4 403.7 24.4 403.6 24.3 C 402.9 24.3 399.8 24.3 399.0 24.2 C 399.6 24.1 401.2 24.2 401.3 24.1 C 397.9 24.1 398.0 24.1 397.2 24.1 C 397.6 24.1 398.5 24.1 398.5 24.2 C 396.4 24.2 394.3 24.2 392.2 24.2 C 392.2 24.2 392.2 24.2 392.2 24.2 C 392.2 24.2 392.2 24.2 392.2 24.2 C 392.2 24.2 392.2 24.2 392.2 24.2 C 392.3 24.1 392.3 24.0 392.1 23.9 C 393.0 23.9 394.0 23.9 395.7 23.9 C 395.2 23.8 393.6 23.8 392.2 23.9 C 392.2 23.8 392.2 23.8 392.2 23.8 C 394.6 23.8 398.2 23.7 400.6 23.7 C 399.5 23.6 395.4 23.6 392.7 23.7 C 392.7 23.6 392.8 23.6 392.9 23.6 C 389.5 23.6 385.4 23.5 381.5 23.5 C 383.4 23.4 385.6 23.5 388.0 23.5 C 389.1 23.4 390.1 23.4 391.2 23.3 C 394.3 23.4 403.4 23.4 404.5 23.3 C 405.6 23.2 396.4 23.2 396.3 23.2 C 396.2 23.2 400.6 23.1 398.5 23.1 C 397.5 23.1 395.2 23.2 393.5 23.2 C 393.4 23.1 393.4 23.0 393.3 22.9 C 394.8 22.9 396.5 22.9 396.6 23.0 C 397.3 23.0 398.8 23.1 399.0 23.0 C 398.8 23.0 398.4 23.0 398.4 23.0 C 398.8 22.9 399.3 23.0 399.3 22.9 C 397.6 22.9 395.1 22.9 393.2 22.9 C 393.0 22.8 392.9 22.8 392.7 22.7 C 392.8 22.7 394.3 22.7 395.5 22.7 C 396.9 22.6 394.1 22.6 391.8 22.6 C 391.5 22.6 391.1 22.5 390.8 22.5 C 391.5 22.5 392.4 22.5 393.5 22.5 C 394.7 22.4 394.7 22.3 395.9 22.3 C 393.7 22.3 390.9 22.3 388.7 22.3 C 387.9 22.2 387.1 22.1 386.3 22.0 C 388.1 22.0 389.8 21.9 390.8 21.9 C 391.6 21.9 392.5 21.9 392.8 21.8 C 392.0 21.8 394.0 21.8 393.7 21.7 C 392.6 21.8 390.4 21.7 389.7 21.9 C 388.0 21.9 386.1 21.9 384.5 21.9 C 384.3 21.9 384.1 21.9 383.8 21.8 C 385.2 21.8 386.6 21.8 388.0 21.8 C 387.4 21.6 383.3 21.6 380.3 21.7 C 374.3 21.6 368.2 22.1 362.1 22.2 C 361.9 22.2 361.5 22.2 361.1 22.2 C 360.7 22.1 360.3 22.1 359.8 22.0 C 361.3 22.0 362.5 22.0 363.6 22.0 C 359.3 21.9 369.7 21.9 370.4 21.8 C 363.5 21.6 350.5 21.7 342.5 21.6 C 344.4 21.6 345.0 21.6 343.0 21.6 C 342.4 21.5 341.9 21.5 341.3 21.5 C 349.4 21.4 357.9 21.7 364.4 21.4 C 360.5 21.4 354.7 21.5 353.1 21.4 C 354.2 21.4 355.8 21.4 356.1 21.3 C 354.1 21.2 347.5 21.4 345.5 21.3 C 355.0 21.2 367.9 21.3 374.9 21.1 C 364.3 21.1 350.1 21.0 341.0 21.2 C 342.6 21.2 342.6 21.2 341.8 21.3 C 339.0 21.3 336.1 21.3 333.3 21.4 C 332.7 21.3 332.9 21.3 334.3 21.3 C 335.4 21.3 336.1 21.3 336.4 21.2 C 335.7 21.2 326.7 21.2 333.8 21.2 C 340.9 21.1 353.2 21.1 346.0 21.0 C 338.8 21.0 336.0 20.9 339.9 20.9 C 343.9 20.8 356.3 20.7 352.1 20.7 C 348.0 20.7 339.2 20.6 334.3 20.6 C 329.3 20.6 337.6 21.0 330.3 21.0 C 323.0 21.0 329.1 20.9 327.7 20.9 C 325.5 20.9 321.5 20.9 317.6 20.9 C 314.9 20.8 311.4 20.9 309.7 20.8 C 309.8 20.7 318.0 20.8 314.8 20.7 C 306.8 20.7 297.9 20.7 301.5 20.8 C 296.6 20.8 292.9 20.8 289.9 20.9 C 285.1 20.7 279.5 20.7 278.9 20.7 C 278.1 20.7 265.0 21.0 260.1 20.5 C 259.7 20.6 250.9 20.7 250.1 20.8 C 241.7 20.6 242.9 20.5 234.6 20.6 C 227.7 20.6 225.6 20.7 224.4 20.7 C 217.1 20.8 217.2 20.6 213.6 21.2 C 212.6 21.4 210.9 21.4 210.3 21.6 C 209.2 22.2 208.7 22.9 209.0 23.8 C 209.0 23.8 209.0 23.8 209.0 23.8 Z M 391.2 24.4 C 392.5 24.4 394.8 24.4 396.2 24.4 C 394.6 24.5 392.7 24.5 390.7 24.5 C 390.9 24.4 391.0 24.4 391.2 24.4 C 391.2 24.4 391.2 24.4 391.2 24.4 Z M 381.2 22.7 C 382.1 22.7 383.1 22.8 384.1 22.7 C 385.0 22.7 386.0 22.8 387.4 22.7 C 387.3 22.6 385.0 22.6 383.2 22.6 C 383.2 22.6 383.2 22.5 383.2 22.5 C 384.0 22.5 385.1 22.4 386.3 22.4 C 386.7 22.4 387.1 22.4 387.5 22.4 C 387.6 22.5 386.9 22.5 386.7 22.5 C 387.0 22.6 388.1 22.7 389.5 22.7 C 389.6 22.7 389.8 22.7 390.0 22.7 C 390.2 22.8 389.1 22.9 390.3 22.9 C 389.5 22.9 387.3 22.9 386.0 22.9 C 387.5 22.7 381.8 22.8 380.4 22.7 C 380.7 22.7 381.0 22.7 381.2 22.7 Z M 370.4 26.5 C 369.6 26.5 368.9 26.5 368.1 26.5 C 369.2 26.5 370.1 26.5 370.9 26.5 C 370.7 26.5 370.6 26.5 370.4 26.5 Z M 306.9 27.4 C 311.5 27.2 321.2 27.4 321.8 27.3 C 322.8 27.3 323.8 27.3 324.8 27.3 C 318.4 27.3 311.5 27.4 306.9 27.4 C 306.9 27.4 306.9 27.4 306.9 27.4 Z M 323.2 21.3 C 323.6 21.3 323.4 21.3 322.5 21.3 C 317.5 21.4 314.6 21.5 317.7 21.5 C 320.4 21.5 326.2 21.5 324.5 21.5 C 322.3 21.6 320.0 21.6 317.6 21.6 C 315.8 21.6 314.1 21.5 312.3 21.3 C 316.1 21.3 319.8 21.3 323.2 21.3 C 323.2 21.3 323.2 21.3 323.2 21.3 Z M 310.1 21.2 C 311.5 21.2 313.2 21.2 314.8 21.2 C 313.4 21.2 311.9 21.2 310.5 21.2 C 310.4 21.2 310.2 21.2 310.1 21.2 Z M 308.4 21.1 C 311.2 21.0 314.0 21.1 311.2 21.1 C 310.5 21.1 309.9 21.1 309.2 21.1 C 309.0 21.1 308.7 21.1 308.4 21.1 Z M 306.6 21.0 C 306.7 21.0 307.2 21.1 308.1 21.1 C 306.2 21.1 302.4 21.1 302.5 21.0 C 303.8 21.0 305.2 21.0 306.6 21.0 C 306.6 21.0 306.6 21.0 306.6 21.0 Z M 303.8 27.6 C 305.0 27.6 306.1 27.6 304.2 27.6 C 303.4 27.6 302.7 27.6 301.9 27.7 C 302.5 27.6 303.2 27.6 303.8 27.6 Z M 368.5 21.3 C 368.0 21.3 366.0 21.3 364.8 21.4 C 364.7 21.6 369.3 21.4 368.5 21.3 C 368.5 21.3 368.5 21.3 368.5 21.3 Z M 376.1 21.2 C 375.6 21.2 373.6 21.2 372.4 21.2 C 372.3 21.5 376.8 21.3 376.1 21.2 C 376.1 21.2 376.1 21.2 376.1 21.2 Z M 260.1 20.5 C 260.1 20.5 260.1 20.5 260.1 20.5 C 260.1 20.5 260.1 20.5 260.1 20.5 C 260.1 20.5 260.1 20.5 260.1 20.5 Z M 260.1 20.5 " fill="#00872A"></path><g><clipPath id="clip0x7fbcf967de70"><path d="M 588.0 372.0 L 947.0 372.0 L 947.0 170.0 L 588.0 170.0 Z M 588.1 371.7 "></path></clipPath><g clip-path="url(#clip0x7fbcf967de70)"><g><clipPath id="clip0x7fbcf9676c10"><path d="M 849.0 371.7 C 836.3 371.8 826.6 369.6 816.3 364.6 C 805.8 359.5 796.1 350.0 791.2 340.2 C 787.7 333.0 784.5 320.7 784.5 314.3 C 784.5 312.3 784.0 310.5 783.4 310.1 C 782.7 309.7 782.7 308.7 783.3 307.6 C 783.8 306.5 785.1 301.3 786.0 295.9 C 787.3 289.0 789.3 283.1 792.6 276.4 L 797.4 266.8 L 795.1 260.0 C 791.8 250.3 791.9 219.9 795.1 204.0 C 796.4 198.0 797.2 192.7 796.9 192.2 C 796.2 191.1 779.6 191.2 778.4 192.5 C 777.8 193.0 773.3 195.0 768.3 196.8 L 759.3 200.1 L 739.2 199.1 C 728.2 198.5 712.6 198.0 704.6 198.0 C 688.7 198.0 687.4 198.5 689.9 204.1 L 691.2 207.0 L 715.0 207.0 L 739.0 207.0 L 743.9 212.9 C 746.6 216.3 748.7 219.6 748.6 220.3 C 748.5 221.0 743.8 246.0 738.2 275.9 L 728.1 330.0 L 675.4 330.0 L 622.7 330.0 L 616.9 324.6 L 611.0 318.9 L 611.0 309.1 C 611.0 300.3 611.4 299.0 613.7 296.5 C 615.8 294.2 617.9 286.7 624.8 257.9 L 633.2 222.2 L 631.5 208.2 C 630.5 200.5 629.1 193.6 628.5 192.8 C 627.6 191.8 622.3 191.0 607.7 191.0 L 588.0 191.0 L 588.0 180.5 L 588.0 170.0 L 767.5 170.0 L 947.0 170.0 L 947.0 180.5 L 947.0 191.0 L 927.9 192.0 L 909.0 192.0 L 908.0 202.9 C 906.9 218.4 903.0 233.6 896.1 247.3 L 890.3 258.9 L 897.8 266.9 C 912.5 282.5 920.9 308.6 917.3 327.5 C 912.4 353.8 889.6 369.8 854.7 371.5 C 852.7 371.6 850.9 371.7 849.0 371.7 Z M 800.0 262.4 C 801.2 262.5 802.9 261.0 806.0 258.3 C 812.9 252.1 822.8 247.0 831.5 245.0 C 837.4 243.6 854.4 244.0 858.2 245.5 C 859.4 246.0 860.4 245.5 861.3 243.9 C 863.0 240.6 861.3 238.4 843.2 220.4 C 833.0 210.2 824.4 202.7 817.6 198.2 C 807.5 191.5 803.3 190.1 801.2 192.8 C 797.0 197.9 793.8 239.3 796.5 252.9 C 797.8 259.4 798.4 262.3 800.0 262.4 Z M 887.0 257.0 C 887.3 257.0 888.7 255.0 890.2 252.4 L 893.0 247.7 L 891.4 234.1 C 889.6 218.8 886.4 204.4 883.3 197.4 C 880.0 190.0 877.7 189.8 877.7 197.0 C 877.7 203.8 874.5 218.6 870.5 229.6 C 868.5 235.4 866.8 240.4 866.8 240.8 C 866.8 243.0 874.4 250.3 880.0 253.4 C 883.6 255.4 886.8 257.0 887.0 257.0 Z M 895.8 239.2 C 899.4 238.6 908.2 199.2 905.9 193.2 C 905.3 191.7 903.4 191.4 895.4 191.4 C 890.0 191.4 885.3 191.9 884.9 192.4 C 884.6 192.9 885.3 195.5 886.4 198.1 C 888.7 203.3 892.5 220.7 893.7 231.6 C 894.1 235.4 894.9 238.8 895.4 239.1 C 895.6 239.2 895.7 239.2 895.8 239.2 Z M 864.5 237.6 L 866.8 232.3 C 870.4 224.1 874.7 207.0 875.0 199.1 L 875.0 192.0 L 846.3 192.0 C 830.0 191.8 817.3 191.8 816.9 192.4 C 816.6 192.9 820.1 196.2 824.8 199.6 C 829.5 203.1 840.3 213.0 848.9 221.7 L 864.5 237.6 Z M 864.5 237.6 "></path></clipPath><g clip-path="url(#clip0x7fbcf9676c10)"><image xlink:href="../../37C8BF0A-2A12-4B15-9A67-C007327DFA8E/assets/FDF0D5FFD448EBA94CC13D24D2797038.jpeg" width="960.00" height="557.00" transform="matrix(0.38, 0.00, -0.00, -0.38, 584.0, 378.0)"></image></g></g></g></g><g><clipPath id="clip0x7fbcfa736760"><path d="M 787.0 385.0 L 955.0 385.0 L 955.0 252.0 L 787.0 252.0 Z M 786.6 385.1 "></path></clipPath><g clip-path="url(#clip0x7fbcfa736760)"><g><clipPath id="clip0x7fbcfa738570"><path d="M 897.4 254.7 C 896.6 256.7 896.7 259.6 897.7 262.7 C 898.9 266.8 898.8 267.8 897.1 269.1 C 896.0 269.9 894.1 272.5 892.9 274.8 C 891.3 277.8 889.5 279.2 886.3 279.8 C 878.4 281.3 877.0 280.4 876.8 273.8 C 876.7 270.6 876.6 267.2 876.5 266.3 C 876.2 263.9 871.2 261.6 869.3 263.1 C 866.5 265.4 859.9 265.7 855.5 263.9 C 853.1 262.9 850.5 262.4 849.8 262.9 C 849.1 263.3 847.1 262.9 845.3 262.0 C 842.9 260.6 840.0 260.6 832.7 261.6 C 821.9 263.2 818.7 261.8 819.3 256.2 C 819.6 253.2 819.3 253.0 814.4 253.5 C 808.8 254.1 807.4 254.8 807.4 257.2 C 807.4 258.1 806.4 258.8 805.2 258.8 C 802.9 258.8 795.9 264.7 796.9 265.7 C 798.1 266.9 794.8 271.3 793.5 270.4 C 792.6 269.9 792.4 270.5 792.9 272.3 C 793.4 273.9 793.1 275.4 792.1 276.0 C 791.2 276.6 790.4 277.9 790.4 278.8 C 790.4 279.7 789.8 280.4 789.1 280.3 C 787.5 280.2 785.9 284.6 786.9 286.3 C 787.3 287.0 787.5 298.5 787.4 312.0 C 787.3 335.4 787.4 336.6 790.1 339.5 C 791.7 341.2 793.0 343.2 793.0 344.0 C 793.0 344.7 793.9 346.8 794.9 348.6 C 797.7 353.5 797.7 355.4 794.9 356.1 C 793.5 356.5 792.4 357.6 792.4 358.5 C 792.4 359.8 794.8 360.4 800.6 360.7 C 807.1 361.0 808.7 361.5 808.4 363.1 C 808.3 364.2 811.3 368.2 815.1 372.0 C 821.1 378.0 822.9 379.0 827.9 379.4 C 837.0 380.0 843.7 381.6 844.3 383.3 C 844.9 384.9 866.5 385.1 868.1 383.5 C 868.5 383.1 869.7 382.7 870.6 382.7 C 871.6 382.7 876.6 378.6 881.7 373.5 C 886.9 368.5 891.6 364.4 892.2 364.4 C 894.9 364.4 896.0 368.8 894.4 373.3 C 893.2 376.9 895.5 380.8 900.2 383.3 C 903.6 385.1 917.5 385.2 921.3 383.4 C 922.8 382.8 925.0 383.1 926.9 384.1 C 929.6 385.5 930.4 385.5 932.5 383.6 C 933.8 382.4 935.3 381.8 935.8 382.3 C 936.3 382.8 937.7 383.3 939.0 383.5 C 940.2 383.6 942.7 384.1 944.5 384.6 C 947.2 385.3 948.1 384.8 949.3 382.1 C 950.2 380.2 950.3 378.5 949.7 378.1 C 949.0 377.6 949.0 376.3 949.8 374.9 C 950.7 373.2 950.7 372.1 949.7 371.5 C 948.8 371.0 949.0 369.6 950.4 367.6 C 953.2 363.2 952.9 361.9 948.9 360.3 C 946.3 359.3 945.8 358.7 946.9 357.5 C 948.8 355.6 948.9 350.6 947.2 347.3 C 946.3 345.7 946.3 344.6 947.2 344.0 C 947.9 343.6 948.5 342.1 948.5 340.8 C 948.5 339.5 949.9 337.5 951.7 336.3 C 955.9 333.6 955.9 333.0 951.3 327.3 C 948.5 323.7 947.7 321.5 948.0 317.8 C 948.2 315.1 948.9 312.2 949.6 311.4 C 950.2 310.6 951.1 308.1 951.5 305.8 C 952.1 302.7 951.6 301.1 949.6 299.2 C 947.4 297.2 947.0 295.8 947.7 291.0 C 948.1 287.9 949.1 284.5 949.9 283.5 C 951.2 282.0 951.6 277.3 951.2 268.6 C 951.1 267.5 951.5 264.4 951.9 261.8 C 952.6 257.2 952.4 256.9 948.9 256.1 C 946.9 255.7 943.6 254.5 941.6 253.5 C 939.6 252.5 937.7 252.2 937.4 252.8 C 937.0 253.4 932.0 253.7 926.2 253.4 C 920.4 253.2 915.4 253.5 915.0 254.2 C 914.6 254.8 913.5 255.1 912.5 254.7 C 911.4 254.3 910.5 255.4 910.0 258.0 C 909.1 262.6 910.0 266.0 912.9 268.1 C 914.6 269.4 914.4 269.8 911.9 271.1 C 909.3 272.5 908.9 272.3 907.0 267.7 C 902.4 256.5 900.0 251.5 899.3 251.5 C 898.9 251.5 898.0 253.0 897.4 254.7 "></path></clipPath><g clip-path="url(#clip0x7fbcfa738570)"><image xlink:href="../../062E5562-3193-4BEE-9837-0770314556C0/assets/057454308A6E1E8B786338ED34AABE01.png" width="152.00" height="121.00" transform="matrix(1.32, 0.00, -0.00, -1.31, 771.0, 402.0)"></image></g></g></g></g><text xml:space="preserve" font-family="Herculanum,Herculanum" font-size="72.0" fill="#000000" transform="matrix(1.00, 0.00, -0.00, -1.00, 813.3, 412.6)">?</text><text xml:space="preserve" font-family="Herculanum,Herculanum" font-size="72.0" fill="#000000" transform="matrix(1.00, 0.00, -0.00, -1.00, 887.5, 412.6)">?</text></g></svg>