<?xml version="1.0" encoding="UTF-8" standalone="no"?><svg xmlns="http://www.w3.org/2000/svg" xmlns:xlink="http://www.w3.org/1999/xlink" clip-rule="evenodd" stroke-miterlimit="10" viewBox="0 0 714 40"><desc>SVG generated by Keynote</desc><defs></defs><g transform="matrix(1.00, 0.00, -0.00, -1.00, 0.0, 40.0)"><text xml:space="preserve" font-family="MonacoForPowerline,Monaco for Powerline" font-size="36.0" fill="#FEFFFE" transform="matrix(1.00, 0.00, -0.00, -1.00, 1.8, 9.1)">M</text><text xml:space="preserve" font-family="MonacoForPowerline,Monaco for Powerline" font-size="36.0" fill="#FEFFFE" transform="matrix(1.00, 0.00, -0.00, -1.00, 23.4, 9.1)">S</text><text xml:space="preserve" font-family="MonacoForPowerline,Monaco for Powerline" font-size="36.0" fill="#FEFFFE" transform="matrix(1.00, 0.00, -0.00, -1.00, 45.0, 9.1)"> </text><text xml:space="preserve" font-family="MonacoForPowerline,Monaco for Powerline" font-size="36.0" fill="#FEFFFE" transform="matrix(1.00, 0.00, -0.00, -1.00, 66.6, 9.1)">i</text><text xml:space="preserve" font-family="MonacoForPowerline,Monaco for Powerline" font-size="36.0" fill="#FEFFFE" transform="matrix(1.00, 0.00, -0.00, -1.00, 88.2, 9.1)">n</text><text xml:space="preserve" font-family="MonacoForPowerline,Monaco for Powerline" font-size="36.0" fill="#FEFFFE" transform="matrix(1.00, 0.00, -0.00, -1.00, 109.8, 9.1)"> </text><text xml:space="preserve" font-family="MonacoForPowerline,Monaco for Powerline" font-size="36.0" fill="#FEFFFE" transform="matrix(1.00, 0.00, -0.00, -1.00, 131.4, 9.1)">C</text><text xml:space="preserve" font-family="MonacoForPowerline,Monaco for Powerline" font-size="36.0" fill="#FEFFFE" transform="matrix(1.00, 0.00, -0.00, -1.00, 153.0, 9.1)">o</text><text xml:space="preserve" font-family="MonacoForPowerline,Monaco for Powerline" font-size="36.0" fill="#FEFFFE" transform="matrix(1.00, 0.00, -0.00, -1.00, 174.6, 9.1)">m</text><text xml:space="preserve" font-family="MonacoForPowerline,Monaco for Powerline" font-size="36.0" fill="#FEFFFE" transform="matrix(1.00, 0.00, -0.00, -1.00, 196.3, 9.1)">p</text><text xml:space="preserve" font-family="MonacoForPowerline,Monaco for Powerline" font-size="36.0" fill="#FEFFFE" transform="matrix(1.00, 0.00, -0.00, -1.00, 217.9, 9.1)">u</text><text xml:space="preserve" font-family="MonacoForPowerline,Monaco for Powerline" font-size="36.0" fill="#FEFFFE" transform="matrix(1.00, 0.00, -0.00, -1.00, 239.5, 9.1)">t</text><text xml:space="preserve" font-family="MonacoForPowerline,Monaco for Powerline" font-size="36.0" fill="#FEFFFE" transform="matrix(1.00, 0.00, -0.00, -1.00, 261.1, 9.1)">e</text><text xml:space="preserve" font-family="MonacoForPowerline,Monaco for Powerline" font-size="36.0" fill="#FEFFFE" transform="matrix(1.00, 0.00, -0.00, -1.00, 282.7, 9.1)">r</text><text xml:space="preserve" font-family="MonacoForPowerline,Monaco for Powerline" font-size="36.0" fill="#FEFFFE" transform="matrix(1.00, 0.00, -0.00, -1.00, 304.3, 9.1)"> </text><text xml:space="preserve" font-family="MonacoForPowerline,Monaco for Powerline" font-size="36.0" fill="#FEFFFE" transform="matrix(1.00, 0.00, -0.00, -1.00, 325.9, 9.1)">S</text><text xml:space="preserve" font-family="MonacoForPowerline,Monaco for Powerline" font-size="36.0" fill="#FEFFFE" transform="matrix(1.00, 0.00, -0.00, -1.00, 347.5, 9.1)">c</text><text xml:space="preserve" font-family="MonacoForPowerline,Monaco for Powerline" font-size="36.0" fill="#FEFFFE" transform="matrix(1.00, 0.00, -0.00, -1.00, 369.1, 9.1)">i</text><text xml:space="preserve" font-family="MonacoForPowerline,Monaco for Powerline" font-size="36.0" fill="#FEFFFE" transform="matrix(1.00, 0.00, -0.00, -1.00, 390.7, 9.1)">e</text><text xml:space="preserve" font-family="MonacoForPowerline,Monaco for Powerline" font-size="36.0" fill="#FEFFFE" transform="matrix(1.00, 0.00, -0.00, -1.00, 412.3, 9.1)">n</text><text xml:space="preserve" font-family="MonacoForPowerline,Monaco for Powerline" font-size="36.0" fill="#FEFFFE" transform="matrix(1.00, 0.00, -0.00, -1.00, 433.9, 9.1)">c</text><text xml:space="preserve" font-family="MonacoForPowerline,Monaco for Powerline" font-size="36.0" fill="#FEFFFE" transform="matrix(1.00, 0.00, -0.00, -1.00, 455.5, 9.1)">e</text><text xml:space="preserve" font-family="MonacoForPowerline,Monaco for Powerline" font-size="36.0" fill="#FEFFFE" transform="matrix(1.00, 0.00, -0.00, -1.00, 477.1, 9.1)"> </text><text xml:space="preserve" font-family="MonacoForPowerline,Monaco for Powerline" font-size="36.0" fill="#FEFFFE" transform="matrix(1.00, 0.00, -0.00, -1.00, 498.7, 9.1)">#</text><text xml:space="preserve" font-family="MonacoForPowerline,Monaco for Powerline" font-size="36.0" fill="#FEFFFE" transform="matrix(1.00, 0.00, -0.00, -1.00, 520.3, 9.1)">2</text><text xml:space="preserve" font-family="MonacoForPowerline,Monaco for Powerline" font-size="36.0" fill="#FEFFFE" transform="matrix(1.00, 0.00, -0.00, -1.00, 541.9, 9.1)">0</text><text xml:space="preserve" font-family="MonacoForPowerline,Monaco for Powerline" font-size="36.0" fill="#FEFFFE" transform="matrix(1.00, 0.00, -0.00, -1.00, 563.5, 9.1)">1</text><text xml:space="preserve" font-family="MonacoForPowerline,Monaco for Powerline" font-size="36.0" fill="#FEFFFE" transform="matrix(1.00, 0.00, -0.00, -1.00, 585.1, 9.1)">1</text><text xml:space="preserve" font-family="MonacoForPowerline,Monaco for Powerline" font-size="36.0" fill="#FEFFFE" transform="matrix(1.00, 0.00, -0.00, -1.00, 606.7, 9.1)">-</text><text xml:space="preserve" font-family="MonacoForPowerline,Monaco for Powerline" font-size="36.0" fill="#FEFFFE" transform="matrix(1.00, 0.00, -0.00, -1.00, 628.3, 9.1)">2</text><text xml:space="preserve" font-family="MonacoForPowerline,Monaco for Powerline" font-size="36.0" fill="#FEFFFE" transform="matrix(1.00, 0.00, -0.00, -1.00, 649.9, 9.1)">0</text><text xml:space="preserve" font-family="MonacoForPowerline,Monaco for Powerline" font-size="36.0" fill="#FEFFFE" transform="matrix(1.00, 0.00, -0.00, -1.00, 671.5, 9.1)">1</text><text xml:space="preserve" font-family="MonacoForPowerline,Monaco for Powerline" font-size="36.0" fill="#FEFFFE" transform="matrix(1.00, 0.00, -0.00, -1.00, 693.1, 9.1)">3</text></g></svg>