<?xml version="1.0" encoding="UTF-8" standalone="no"?><svg xmlns="http://www.w3.org/2000/svg" xmlns:xlink="http://www.w3.org/1999/xlink" clip-rule="evenodd" stroke-miterlimit="10" viewBox="0 0 1024 768"><desc>SVG generated by Keynote</desc><defs></defs><g transform="matrix(1.00, 0.00, -0.00, -1.00, 0.0, 768.0)"><path d="M 0.0 768.0 L 1024.0 768.0 L 1024.0 0.0 L 0.0 0.0 Z M 0.0 768.0 " fill="#FEFFFF"></path><image xlink:href="../../A458083D-D69B-45C4-902F-6A2AFF5FFDFF/assets/67EC68E2567016468077500E22FE0557.png" width="1042.00" height="786.00" transform="matrix(1.00, 0.00, -0.00, -1.00, -9.0, 775.0)" opacity="0.50"></image><path d="M -6.0 774.0 L 1030.0 774.0 L 1030.0 -6.0 L -6.0 -6.0 Z M -6.0 774.0 " fill="#410198"></path><path d="M -0.1 -0.2 L 755.5 -0.2 L 756.9 -0.2 " fill="none" stroke="#FEFFFE" stroke-width="3.00" stroke-dasharray="18.0, 18.0" transform="matrix(0.00, -1.00, -1.00, 0.00, 909.3, 770.9)"></path><path d="M 0.0 0.0 L 3.0 5.0 L 6.0 0.0 M 3.0 0.0 L 3.0 5.0 " fill="none" stroke="#FEFFFE" stroke-width="1.36" stroke-linejoin="round" transform="matrix(2.20, 0.00, 0.00, -2.20, 902.9, 15.5)"></path><path d="M 190.2 417.8 L 190.0 602.4 C 190.0 609.1 195.6 614.0 202.2 614.0 L 821.8 614.0 C 828.4 614.0 834.0 609.1 834.0 602.4 L 834.0 417.8 C 834.0 411.2 828.4 406.0 821.8 406.0 L 202.2 406.0 C 195.6 406.0 190.2 411.2 190.2 417.8 Z M 190.2 417.8 " fill="#FEFFFE"></path><g><clipPath id="clip0x7fbcfa6e9340"><path d="M 743.9 654.9 L 912.6 654.9 L 912.6 727.1 L 743.9 727.1 Z M 743.9 654.9 "></path></clipPath><g clip-path="url(#clip0x7fbcfa6e9340)"><image xlink:href="../../14D55ACF-0F5D-4F44-970B-FFD4AC2D27E7/assets/F92D2E786F7A6415B5F2251EB4054455.png" width="167.00" height="70.00" transform="matrix(1.00, 0.00, -0.00, -1.00, 744.9, 726.1)" opacity="0.50"></image><path d="M 752.9 722.0 C 750.1 722.1 748.0 719.9 748.0 717.1 L 748.0 664.9 C 748.0 662.1 750.1 660.0 752.9 660.0 L 880.2 660.0 C 883.0 660.0 885.0 662.1 885.0 664.9 L 885.0 678.9 L 906.6 688.8 L 885.0 698.8 L 885.0 717.1 C 885.0 719.9 883.0 722.0 880.2 722.0 L 752.9 722.0 Z M 752.9 722.1 " fill="#FEFFFE"></path></g></g><g><clipPath id="clip0x7fbcfa6eafa0"><path d="M 763.9 658.2 L 861.7 658.2 L 861.7 721.2 L 763.9 721.2 Z M 763.9 658.2 "></path></clipPath><g clip-path="url(#clip0x7fbcfa6eafa0)"><text xml:space="preserve" font-family="MonacoForPowerline,Monaco for Powerline" font-size="32.0" fill="#52575F" transform="matrix(1.00, 0.00, -0.00, -1.00, 773.9, 678.8)">N</text><text xml:space="preserve" font-family="MonacoForPowerline,Monaco for Powerline" font-size="32.0" fill="#52575F" transform="matrix(1.00, 0.00, -0.00, -1.00, 793.1, 678.8)">T</text><text xml:space="preserve" font-family="MonacoForPowerline,Monaco for Powerline" font-size="32.0" fill="#52575F" transform="matrix(1.00, 0.00, -0.00, -1.00, 812.3, 678.8)">H</text><text xml:space="preserve" font-family="MonacoForPowerline,Monaco for Powerline" font-size="32.0" fill="#52575F" transform="matrix(1.00, 0.00, -0.00, -1.00, 831.5, 678.8)">U</text></g></g><path d="M -0.4 0.2 L 236.6 0.2 " fill="none" stroke="#FEFFFE" stroke-width="3.00" transform="matrix(0.00, 1.00, 1.00, 0.00, 776.3, 439.4)"></path><text xml:space="preserve" font-family="AvenirNext-Regular,Avenir Next" font-size="24.0" fill="#000000" transform="matrix(1.00, 0.00, -0.00, -1.00, 374.8, 441.3)">a</text><text xml:space="preserve" font-family="AvenirNext-Regular,Avenir Next" font-size="24.0" fill="#000000" transform="matrix(1.00, 0.00, -0.00, -1.00, 387.6, 441.3)"> </text><text xml:space="preserve" font-family="AvenirNext-Regular,Avenir Next" font-size="24.0" fill="#000000" transform="matrix(1.00, 0.00, -0.00, -1.00, 393.6, 441.3)">w</text><text xml:space="preserve" font-family="AvenirNext-Regular,Avenir Next" font-size="24.0" fill="#000000" transform="matrix(1.00, 0.00, -0.00, -1.00, 411.5, 441.3)">r</text><text xml:space="preserve" font-family="AvenirNext-Regular,Avenir Next" font-size="24.0" fill="#000000" transform="matrix(1.00, 0.00, -0.00, -1.00, 420.2, 441.3)">i</text><text xml:space="preserve" font-family="AvenirNext-Regular,Avenir Next" font-size="24.0" fill="#000000" transform="matrix(1.00, 0.00, -0.00, -1.00, 426.2, 441.3)">t</text><text xml:space="preserve" font-family="AvenirNext-Regular,Avenir Next" font-size="24.0" fill="#000000" transform="matrix(1.00, 0.00, -0.00, -1.00, 433.8, 441.3)">i</text><text xml:space="preserve" font-family="AvenirNext-Regular,Avenir Next" font-size="24.0" fill="#000000" transform="matrix(1.00, 0.00, -0.00, -1.00, 439.8, 441.3)">n</text><text xml:space="preserve" font-family="AvenirNext-Regular,Avenir Next" font-size="24.0" fill="#000000" transform="matrix(1.00, 0.00, -0.00, -1.00, 453.7, 441.3)">g</text><text xml:space="preserve" font-family="AvenirNext-Regular,Avenir Next" font-size="24.0" fill="#000000" transform="matrix(1.00, 0.00, -0.00, -1.00, 468.9, 441.3)"> </text><text xml:space="preserve" font-family="AvenirNext-Regular,Avenir Next" font-size="24.0" fill="#000000" transform="matrix(1.00, 0.00, -0.00, -1.00, 474.9, 441.3)">a</text><text xml:space="preserve" font-family="AvenirNext-Regular,Avenir Next" font-size="24.0" fill="#000000" transform="matrix(1.00, 0.00, -0.00, -1.00, 487.7, 441.3)">s</text><text xml:space="preserve" font-family="AvenirNext-Regular,Avenir Next" font-size="24.0" fill="#000000" transform="matrix(1.00, 0.00, -0.00, -1.00, 498.4, 441.3)">s</text><text xml:space="preserve" font-family="AvenirNext-Regular,Avenir Next" font-size="24.0" fill="#000000" transform="matrix(1.00, 0.00, -0.00, -1.00, 509.0, 441.3)">i</text><text xml:space="preserve" font-family="AvenirNext-Regular,Avenir Next" font-size="24.0" fill="#000000" transform="matrix(1.00, 0.00, -0.00, -1.00, 515.0, 441.3)">s</text><text xml:space="preserve" font-family="AvenirNext-Regular,Avenir Next" font-size="24.0" fill="#000000" transform="matrix(1.00, 0.00, -0.00, -1.00, 525.7, 441.3)">t</text><text xml:space="preserve" font-family="AvenirNext-Regular,Avenir Next" font-size="24.0" fill="#000000" transform="matrix(1.00, 0.00, -0.00, -1.00, 533.3, 441.3)">a</text><text xml:space="preserve" font-family="AvenirNext-Regular,Avenir Next" font-size="24.0" fill="#000000" transform="matrix(1.00, 0.00, -0.00, -1.00, 546.1, 441.3)">n</text><text xml:space="preserve" font-family="AvenirNext-Regular,Avenir Next" font-size="24.0" fill="#000000" transform="matrix(1.00, 0.00, -0.00, -1.00, 560.0, 441.3)">t</text><text xml:space="preserve" font-family="AvenirNext-Regular,Avenir Next" font-size="24.0" fill="#000000" transform="matrix(1.00, 0.00, -0.00, -1.00, 567.6, 441.3)"> </text><text xml:space="preserve" font-family="AvenirNext-Regular,Avenir Next" font-size="24.0" fill="#000000" transform="matrix(1.00, 0.00, -0.00, -1.00, 573.6, 441.3)">s</text><text xml:space="preserve" font-family="AvenirNext-Regular,Avenir Next" font-size="24.0" fill="#000000" transform="matrix(1.00, 0.00, -0.00, -1.00, 584.3, 441.3)">y</text><text xml:space="preserve" font-family="AvenirNext-Regular,Avenir Next" font-size="24.0" fill="#000000" transform="matrix(1.00, 0.00, -0.00, -1.00, 596.0, 441.3)">s</text><text xml:space="preserve" font-family="AvenirNext-Regular,Avenir Next" font-size="24.0" fill="#000000" transform="matrix(1.00, 0.00, -0.00, -1.00, 606.7, 441.3)">t</text><text xml:space="preserve" font-family="AvenirNext-Regular,Avenir Next" font-size="24.0" fill="#000000" transform="matrix(1.00, 0.00, -0.00, -1.00, 614.3, 441.3)">e</text><text xml:space="preserve" font-family="AvenirNext-Regular,Avenir Next" font-size="24.0" fill="#000000" transform="matrix(1.00, 0.00, -0.00, -1.00, 628.0, 441.3)">m</text><text xml:space="preserve" font-family="MonacoForPowerline,Monaco for Powerline" font-size="36.0" fill="#FEFFFE" transform="matrix(1.00, 0.00, -0.00, -1.00, 318.1, 324.5)">F</text><text xml:space="preserve" font-family="MonacoForPowerline,Monaco for Powerline" font-size="36.0" fill="#FEFFFE" transform="matrix(1.00, 0.00, -0.00, -1.00, 339.7, 324.5)">E</text><text xml:space="preserve" font-family="MonacoForPowerline,Monaco for Powerline" font-size="36.0" fill="#FEFFFE" transform="matrix(1.00, 0.00, -0.00, -1.00, 361.4, 324.5)">:</text><text xml:space="preserve" font-family="MonacoForPowerline,Monaco for Powerline" font-size="36.0" fill="#FEFFFE" transform="matrix(1.00, 0.00, -0.00, -1.00, 383.0, 324.5)"> </text><text xml:space="preserve" font-family="MonacoForPowerline,Monaco for Powerline" font-size="36.0" fill="#FEFFFE" transform="matrix(1.00, 0.00, -0.00, -1.00, 404.6, 324.5)">J</text><text xml:space="preserve" font-family="MonacoForPowerline,Monaco for Powerline" font-size="32.0" fill="#FEFFFE" transform="matrix(1.00, 0.00, -0.00, -1.00, 426.2, 324.5)">a</text><text xml:space="preserve" font-family="MonacoForPowerline,Monaco for Powerline" font-size="32.0" fill="#FEFFFE" transform="matrix(1.00, 0.00, -0.00, -1.00, 445.4, 324.5)">v</text><text xml:space="preserve" font-family="MonacoForPowerline,Monaco for Powerline" font-size="32.0" fill="#FEFFFE" transform="matrix(1.00, 0.00, -0.00, -1.00, 464.6, 324.5)">a</text><text xml:space="preserve" font-family="MonacoForPowerline,Monaco for Powerline" font-size="32.0" fill="#FEFFFE" transform="matrix(1.00, 0.00, -0.00, -1.00, 483.8, 324.5)">S</text><text xml:space="preserve" font-family="MonacoForPowerline,Monaco for Powerline" font-size="32.0" fill="#FEFFFE" transform="matrix(1.00, 0.00, -0.00, -1.00, 503.0, 324.5)">c</text><text xml:space="preserve" font-family="MonacoForPowerline,Monaco for Powerline" font-size="32.0" fill="#FEFFFE" transform="matrix(1.00, 0.00, -0.00, -1.00, 522.2, 324.5)">r</text><text xml:space="preserve" font-family="MonacoForPowerline,Monaco for Powerline" font-size="32.0" fill="#FEFFFE" transform="matrix(1.00, 0.00, -0.00, -1.00, 541.4, 324.5)">i</text><text xml:space="preserve" font-family="MonacoForPowerline,Monaco for Powerline" font-size="32.0" fill="#FEFFFE" transform="matrix(1.00, 0.00, -0.00, -1.00, 560.6, 324.5)">p</text><text xml:space="preserve" font-family="MonacoForPowerline,Monaco for Powerline" font-size="32.0" fill="#FEFFFE" transform="matrix(1.00, 0.00, -0.00, -1.00, 579.8, 324.5)">t</text><text xml:space="preserve" font-family="MonacoForPowerline,Monaco for Powerline" font-size="32.0" fill="#FEFFFE" transform="matrix(1.00, 0.00, -0.00, -1.00, 599.0, 324.5)">,</text><text xml:space="preserve" font-family="MonacoForPowerline,Monaco for Powerline" font-size="32.0" fill="#FEFFFE" transform="matrix(1.00, 0.00, -0.00, -1.00, 618.2, 324.5)"> </text><text xml:space="preserve" font-family="MonacoForPowerline,Monaco for Powerline" font-size="32.0" fill="#FEFFFE" transform="matrix(1.00, 0.00, -0.00, -1.00, 637.4, 324.5)">C</text><text xml:space="preserve" font-family="MonacoForPowerline,Monaco for Powerline" font-size="32.0" fill="#FEFFFE" transform="matrix(1.00, 0.00, -0.00, -1.00, 656.6, 324.5)">S</text><text xml:space="preserve" font-family="MonacoForPowerline,Monaco for Powerline" font-size="32.0" fill="#FEFFFE" transform="matrix(1.00, 0.00, -0.00, -1.00, 675.8, 324.5)">S</text><path d="M 0.4 -0.4 L 280.4 -0.4 " fill="none" stroke="#FEFFFE" stroke-width="3.00" transform="matrix(0.00, 1.00, 1.00, 0.00, 259.9, 148.6)"></path><text xml:space="preserve" font-family="MonacoForPowerline,Monaco for Powerline" font-size="36.0" fill="#FEFFFE" transform="matrix(1.00, 0.00, -0.00, -1.00, 317.9, 230.1)">B</text><text xml:space="preserve" font-family="MonacoForPowerline,Monaco for Powerline" font-size="36.0" fill="#FEFFFE" transform="matrix(1.00, 0.00, -0.00, -1.00, 339.5, 230.1)">E</text><text xml:space="preserve" font-family="MonacoForPowerline,Monaco for Powerline" font-size="36.0" fill="#FEFFFE" transform="matrix(1.00, 0.00, -0.00, -1.00, 361.1, 230.1)">:</text><text xml:space="preserve" font-family="MonacoForPowerline,Monaco for Powerline" font-size="36.0" fill="#FEFFFE" transform="matrix(1.00, 0.00, -0.00, -1.00, 382.7, 230.1)"> </text><text xml:space="preserve" font-family="MonacoForPowerline,Monaco for Powerline" font-size="32.0" fill="#FEFFFE" transform="matrix(1.00, 0.00, -0.00, -1.00, 404.3, 230.1)">p</text><text xml:space="preserve" font-family="MonacoForPowerline,Monaco for Powerline" font-size="32.0" fill="#FEFFFE" transform="matrix(1.00, 0.00, -0.00, -1.00, 423.5, 230.1)">y</text><text xml:space="preserve" font-family="MonacoForPowerline,Monaco for Powerline" font-size="32.0" fill="#FEFFFE" transform="matrix(1.00, 0.00, -0.00, -1.00, 442.7, 230.1)">t</text><text xml:space="preserve" font-family="MonacoForPowerline,Monaco for Powerline" font-size="32.0" fill="#FEFFFE" transform="matrix(1.00, 0.00, -0.00, -1.00, 461.9, 230.1)">h</text><text xml:space="preserve" font-family="MonacoForPowerline,Monaco for Powerline" font-size="32.0" fill="#FEFFFE" transform="matrix(1.00, 0.00, -0.00, -1.00, 481.1, 230.1)">o</text><text xml:space="preserve" font-family="MonacoForPowerline,Monaco for Powerline" font-size="32.0" fill="#FEFFFE" transform="matrix(1.00, 0.00, -0.00, -1.00, 500.3, 230.1)">n</text><text xml:space="preserve" font-family="MonacoForPowerline,Monaco for Powerline" font-size="32.0" fill="#FEFFFE" transform="matrix(1.00, 0.00, -0.00, -1.00, 519.6, 230.1)"> </text><text xml:space="preserve" font-family="MonacoForPowerline,Monaco for Powerline" font-size="32.0" fill="#FEFFFE" transform="matrix(1.00, 0.00, -0.00, -1.00, 538.8, 230.1)">(</text><text xml:space="preserve" font-family="MonacoForPowerline,Monaco for Powerline" font-size="32.0" fill="#FEFFFE" transform="matrix(1.00, 0.00, -0.00, -1.00, 558.0, 230.1)">D</text><text xml:space="preserve" font-family="MonacoForPowerline,Monaco for Powerline" font-size="32.0" fill="#FEFFFE" transform="matrix(1.00, 0.00, -0.00, -1.00, 577.2, 230.1)">j</text><text xml:space="preserve" font-family="MonacoForPowerline,Monaco for Powerline" font-size="32.0" fill="#FEFFFE" transform="matrix(1.00, 0.00, -0.00, -1.00, 596.4, 230.1)">a</text><text xml:space="preserve" font-family="MonacoForPowerline,Monaco for Powerline" font-size="32.0" fill="#FEFFFE" transform="matrix(1.00, 0.00, -0.00, -1.00, 615.6, 230.1)">n</text><text xml:space="preserve" font-family="MonacoForPowerline,Monaco for Powerline" font-size="32.0" fill="#FEFFFE" transform="matrix(1.00, 0.00, -0.00, -1.00, 634.8, 230.1)">g</text><text xml:space="preserve" font-family="MonacoForPowerline,Monaco for Powerline" font-size="32.0" fill="#FEFFFE" transform="matrix(1.00, 0.00, -0.00, -1.00, 654.0, 230.1)">o</text><text xml:space="preserve" font-family="MonacoForPowerline,Monaco for Powerline" font-size="32.0" fill="#FEFFFE" transform="matrix(1.00, 0.00, -0.00, -1.00, 673.2, 230.1)">,</text><text xml:space="preserve" font-family="MonacoForPowerline,Monaco for Powerline" font-size="32.0" fill="#FEFFFE" transform="matrix(1.00, 0.00, -0.00, -1.00, 692.4, 230.1)"> </text><text xml:space="preserve" font-family="MonacoForPowerline,Monaco for Powerline" font-size="32.0" fill="#FEFFFE" transform="matrix(1.00, 0.00, -0.00, -1.00, 711.6, 230.1)">M</text><text xml:space="preserve" font-family="MonacoForPowerline,Monaco for Powerline" font-size="32.0" fill="#FEFFFE" transform="matrix(1.00, 0.00, -0.00, -1.00, 730.8, 230.1)">a</text><text xml:space="preserve" font-family="MonacoForPowerline,Monaco for Powerline" font-size="32.0" fill="#FEFFFE" transform="matrix(1.00, 0.00, -0.00, -1.00, 750.0, 230.1)">x</text><text xml:space="preserve" font-family="MonacoForPowerline,Monaco for Powerline" font-size="32.0" fill="#FEFFFE" transform="matrix(1.00, 0.00, -0.00, -1.00, 769.2, 230.1)">E</text><text xml:space="preserve" font-family="MonacoForPowerline,Monaco for Powerline" font-size="32.0" fill="#FEFFFE" transform="matrix(1.00, 0.00, -0.00, -1.00, 788.4, 230.1)">n</text><text xml:space="preserve" font-family="MonacoForPowerline,Monaco for Powerline" font-size="32.0" fill="#FEFFFE" transform="matrix(1.00, 0.00, -0.00, -1.00, 807.6, 230.1)">t</text><text xml:space="preserve" font-family="MonacoForPowerline,Monaco for Powerline" font-size="32.0" fill="#FEFFFE" transform="matrix(1.00, 0.00, -0.00, -1.00, 826.9, 230.1)">)</text><path d="M 0.0 -0.1 L 43.0 -0.1 " fill="none" stroke="#FEFFFE" stroke-width="3.00" transform="matrix(-1.00, 0.00, 0.00, 1.00, 302.0, 243.6)"></path><path d="M 0.0 -0.3 L 43.0 -0.3 " fill="none" stroke="#FEFFFE" stroke-width="3.00" transform="matrix(-1.00, 0.00, 0.00, 1.00, 302.0, 336.8)"></path><path d="M 0.0 0.0 L 43.0 0.0 " fill="none" stroke="#FEFFFE" stroke-width="3.00" transform="matrix(-1.00, 0.00, 0.00, 1.00, 302.0, 150.5)"></path><text xml:space="preserve" font-family="MonacoForPowerline,Monaco for Powerline" font-size="36.0" fill="#FEFFFE" transform="matrix(1.00, 0.00, -0.00, -1.00, 318.1, 137.0)">D</text><text xml:space="preserve" font-family="MonacoForPowerline,Monaco for Powerline" font-size="36.0" fill="#FEFFFE" transform="matrix(1.00, 0.00, -0.00, -1.00, 339.7, 137.0)">B</text><text xml:space="preserve" font-family="MonacoForPowerline,Monaco for Powerline" font-size="36.0" fill="#FEFFFE" transform="matrix(1.00, 0.00, -0.00, -1.00, 361.4, 137.0)">:</text><text xml:space="preserve" font-family="MonacoForPowerline,Monaco for Powerline" font-size="36.0" fill="#FEFFFE" transform="matrix(1.00, 0.00, -0.00, -1.00, 383.0, 137.0)"> </text><text xml:space="preserve" font-family="MonacoForPowerline,Monaco for Powerline" font-size="32.0" fill="#FEFFFE" transform="matrix(1.00, 0.00, -0.00, -1.00, 404.6, 137.0)">s</text><text xml:space="preserve" font-family="MonacoForPowerline,Monaco for Powerline" font-size="32.0" fill="#FEFFFE" transform="matrix(1.00, 0.00, -0.00, -1.00, 423.8, 137.0)">q</text><text xml:space="preserve" font-family="MonacoForPowerline,Monaco for Powerline" font-size="32.0" fill="#FEFFFE" transform="matrix(1.00, 0.00, -0.00, -1.00, 443.0, 137.0)">l</text><text xml:space="preserve" font-family="MonacoForPowerline,Monaco for Powerline" font-size="32.0" fill="#FEFFFE" transform="matrix(1.00, 0.00, -0.00, -1.00, 462.2, 137.0)">i</text><text xml:space="preserve" font-family="MonacoForPowerline,Monaco for Powerline" font-size="32.0" fill="#FEFFFE" transform="matrix(1.00, 0.00, -0.00, -1.00, 481.4, 137.0)">t</text><text xml:space="preserve" font-family="MonacoForPowerline,Monaco for Powerline" font-size="32.0" fill="#FEFFFE" transform="matrix(1.00, 0.00, -0.00, -1.00, 500.6, 137.0)">e</text><g><clipPath id="clip0x7fbcfb11c060"><path d="M 410.0 582.0 L 614.0 582.0 L 614.0 482.0 L 410.0 482.0 Z M 410.0 582.0 "></path></clipPath><g clip-path="url(#clip0x7fbcfb11c060)"><image xlink:href="0411555FE183F0A51C7558C23EA9D122.png" width="800.00" height="160.00" transform="matrix(0.81, 0.00, -0.00, -0.81, 393.0, 604.0)"></image></g></g><image xlink:href="FCC405BBE7849231C8FFA6B52A6B584E.png" width="148.00" height="148.00" transform="matrix(0.44, 0.00, -0.00, -0.43, 745.0, 481.0)"></image></g></svg>