<?xml version="1.0" encoding="UTF-8" standalone="no"?><svg xmlns="http://www.w3.org/2000/svg" xmlns:xlink="http://www.w3.org/1999/xlink" clip-rule="evenodd" stroke-miterlimit="10" viewBox="0 0 1024 768"><desc>SVG generated by Keynote</desc><defs></defs><g transform="matrix(1.00, 0.00, -0.00, -1.00, 0.0, 768.0)"><path d="M 0.0 768.0 L 1024.0 768.0 L 1024.0 0.0 L 0.0 0.0 Z M 0.0 768.0 " fill="#FEFFFF"></path><image xlink:href="../../A458083D-D69B-45C4-902F-6A2AFF5FFDFF/assets/67EC68E2567016468077500E22FE0557.png" width="1042.00" height="786.00" transform="matrix(1.00, 0.00, -0.00, -1.00, -9.0, 775.0)" opacity="0.50"></image><path d="M -6.0 774.0 L 1030.0 774.0 L 1030.0 -6.0 L -6.0 -6.0 Z M -6.0 774.0 " fill="#410198"></path><path d="M -0.1 -0.2 L 755.5 -0.2 L 756.9 -0.2 " fill="none" stroke="#FEFFFE" stroke-width="3.00" stroke-dasharray="18.0, 18.0" transform="matrix(0.00, -1.00, -1.00, 0.00, 909.3, 770.9)"></path><path d="M 0.0 0.0 L 3.0 5.0 L 6.0 0.0 M 3.0 0.0 L 3.0 5.0 " fill="none" stroke="#FEFFFE" stroke-width="1.36" stroke-linejoin="round" transform="matrix(2.20, 0.00, 0.00, -2.20, 902.9, 15.5)"></path><image xlink:href="../../5EE5FC8D-FCB2-4075-9868-D0431D78C643/assets/1267BBA5A9E22EA22EA8333C26552A14.jpeg" width="2048.00" height="1137.00" transform="matrix(0.69, 0.00, -0.00, -0.69, -367.0, 1021.0)"></image><g opacity="0.34"><g><clipPath id="clip0x7fbcfa145770"><path d="M 189.0 481.0 L 671.0 481.0 L 671.0 648.0 L 189.0 648.0 Z M 189.0 481.0 "></path></clipPath><g clip-path="url(#clip0x7fbcfa145770)"><image xlink:href="../../5EE5FC8D-FCB2-4075-9868-D0431D78C643/assets/3075236433968C7AD2440A97D968B9A8.png" width="477.00" height="164.00" transform="matrix(1.00, 0.00, -0.00, -1.00, 192.7, 646.1)" opacity="0.50"></image><path d="M 195.7 499.1 L 196.0 629.2 C 196.0 636.3 201.5 642.0 208.6 642.0 L 652.1 642.0 C 659.2 642.0 665.0 636.3 665.0 629.2 L 665.0 499.1 C 665.0 492.0 659.2 486.0 652.1 486.0 L 208.6 486.0 C 201.5 486.0 195.7 492.0 195.7 499.1 Z M 195.7 499.1 " fill="#000000"></path></g></g></g><g><clipPath id="clip0x7fbcfa144c60"><path d="M -2.0 313.0 L 1026.0 313.0 L 1026.0 -28.0 L -2.0 -28.0 Z M -1.6 312.9 "></path></clipPath><g clip-path="url(#clip0x7fbcfa144c60)"><image xlink:href="../../5EE5FC8D-FCB2-4075-9868-D0431D78C643/assets/5C711E6D6724724A160BB9555292ECCB.jpeg" width="1024.00" height="768.00" transform="matrix(1.00, 0.00, -0.00, -1.00, -2.0, 442.0)"></image></g></g><image xlink:href="../../5EE5FC8D-FCB2-4075-9868-D0431D78C643/assets/38FD9361ED1F45C27B8338B6E7945B5D.png" width="262.00" height="272.00" transform="matrix(1.00, 0.00, -0.00, -1.00, 18.3, 698.2)" opacity="0.88"></image><image xlink:href="../../5EE5FC8D-FCB2-4075-9868-D0431D78C643/assets/117E289E87DE9C7A6F7E966390417073.jpeg" width="250.00" height="264.00" transform="matrix(0.68, 0.00, -0.00, -0.68, 53.0, 655.0)"></image><text xml:space="preserve" font-family="MonacoForPowerline,Monaco for Powerline" font-size="36.0" fill="#FEFFFE" transform="matrix(1.00, 0.00, -0.00, -1.00, 245.1, 591.2)">D</text><text xml:space="preserve" font-family="MonacoForPowerline,Monaco for Powerline" font-size="36.0" fill="#FEFFFE" transform="matrix(1.00, 0.00, -0.00, -1.00, 266.7, 591.2)">r</text><text xml:space="preserve" font-family="MonacoForPowerline,Monaco for Powerline" font-size="36.0" fill="#FEFFFE" transform="matrix(1.00, 0.00, -0.00, -1.00, 288.3, 591.2)">.</text><text xml:space="preserve" font-family="MonacoForPowerline,Monaco for Powerline" font-size="36.0" fill="#FEFFFE" transform="matrix(1.00, 0.00, -0.00, -1.00, 309.9, 591.2)"> </text><text xml:space="preserve" font-family="MonacoForPowerline,Monaco for Powerline" font-size="36.0" fill="#FEFFFE" transform="matrix(1.00, 0.00, -0.00, -1.00, 331.5, 591.2)">J</text><text xml:space="preserve" font-family="MonacoForPowerline,Monaco for Powerline" font-size="36.0" fill="#FEFFFE" transform="matrix(1.00, 0.00, -0.00, -1.00, 353.1, 591.2)">a</text><text xml:space="preserve" font-family="MonacoForPowerline,Monaco for Powerline" font-size="36.0" fill="#FEFFFE" transform="matrix(1.00, 0.00, -0.00, -1.00, 374.8, 591.2)">s</text><text xml:space="preserve" font-family="MonacoForPowerline,Monaco for Powerline" font-size="36.0" fill="#FEFFFE" transform="matrix(1.00, 0.00, -0.00, -1.00, 396.4, 591.2)">o</text><text xml:space="preserve" font-family="MonacoForPowerline,Monaco for Powerline" font-size="36.0" fill="#FEFFFE" transform="matrix(1.00, 0.00, -0.00, -1.00, 418.0, 591.2)">n</text><text xml:space="preserve" font-family="MonacoForPowerline,Monaco for Powerline" font-size="36.0" fill="#FEFFFE" transform="matrix(1.00, 0.00, -0.00, -1.00, 439.6, 591.2)"> </text><text xml:space="preserve" font-family="MonacoForPowerline,Monaco for Powerline" font-size="36.0" fill="#FEFFFE" transform="matrix(1.00, 0.00, -0.00, -1.00, 461.2, 591.2)">S</text><text xml:space="preserve" font-family="MonacoForPowerline,Monaco for Powerline" font-size="36.0" fill="#FEFFFE" transform="matrix(1.00, 0.00, -0.00, -1.00, 482.8, 591.2)">.</text><text xml:space="preserve" font-family="MonacoForPowerline,Monaco for Powerline" font-size="36.0" fill="#FEFFFE" transform="matrix(1.00, 0.00, -0.00, -1.00, 504.4, 591.2)"> </text><text xml:space="preserve" font-family="MonacoForPowerline,Monaco for Powerline" font-size="36.0" fill="#FEFFFE" transform="matrix(1.00, 0.00, -0.00, -1.00, 526.0, 591.2)">C</text><text xml:space="preserve" font-family="MonacoForPowerline,Monaco for Powerline" font-size="36.0" fill="#FEFFFE" transform="matrix(1.00, 0.00, -0.00, -1.00, 547.6, 591.2)">h</text><text xml:space="preserve" font-family="MonacoForPowerline,Monaco for Powerline" font-size="36.0" fill="#FEFFFE" transform="matrix(1.00, 0.00, -0.00, -1.00, 569.2, 591.2)">a</text><text xml:space="preserve" font-family="MonacoForPowerline,Monaco for Powerline" font-size="36.0" fill="#FEFFFE" transform="matrix(1.00, 0.00, -0.00, -1.00, 590.8, 591.2)">n</text><text xml:space="preserve" font-family="MonacoForPowerline,Monaco for Powerline" font-size="36.0" fill="#FEFFFE" transform="matrix(1.00, 0.00, -0.00, -1.00, 612.4, 591.2)">g</text><text xml:space="preserve" font-family="MonacoForPowerline,Monaco for Powerline" font-size="24.0" fill="#FEFFFE" transform="matrix(1.00, 0.00, -0.00, -1.00, 245.1, 539.2)">P</text><text xml:space="preserve" font-family="MonacoForPowerline,Monaco for Powerline" font-size="24.0" fill="#FEFFFE" transform="matrix(1.00, 0.00, -0.00, -1.00, 259.5, 539.2)">r</text><text xml:space="preserve" font-family="MonacoForPowerline,Monaco for Powerline" font-size="24.0" fill="#FEFFFE" transform="matrix(1.00, 0.00, -0.00, -1.00, 273.9, 539.2)">o</text><text xml:space="preserve" font-family="MonacoForPowerline,Monaco for Powerline" font-size="24.0" fill="#FEFFFE" transform="matrix(1.00, 0.00, -0.00, -1.00, 288.3, 539.2)">f</text><text xml:space="preserve" font-family="MonacoForPowerline,Monaco for Powerline" font-size="24.0" fill="#FEFFFE" transform="matrix(1.00, 0.00, -0.00, -1.00, 302.7, 539.2)">e</text><text xml:space="preserve" font-family="MonacoForPowerline,Monaco for Powerline" font-size="24.0" fill="#FEFFFE" transform="matrix(1.00, 0.00, -0.00, -1.00, 317.1, 539.2)">s</text><text xml:space="preserve" font-family="MonacoForPowerline,Monaco for Powerline" font-size="24.0" fill="#FEFFFE" transform="matrix(1.00, 0.00, -0.00, -1.00, 331.5, 539.2)">s</text><text xml:space="preserve" font-family="MonacoForPowerline,Monaco for Powerline" font-size="24.0" fill="#FEFFFE" transform="matrix(1.00, 0.00, -0.00, -1.00, 345.9, 539.2)">o</text><text xml:space="preserve" font-family="MonacoForPowerline,Monaco for Powerline" font-size="24.0" fill="#FEFFFE" transform="matrix(1.00, 0.00, -0.00, -1.00, 360.3, 539.2)">r</text><text xml:space="preserve" font-family="MonacoForPowerline,Monaco for Powerline" font-size="24.0" fill="#FEFFFE" transform="matrix(1.00, 0.00, -0.00, -1.00, 245.1, 507.2)">N</text><text xml:space="preserve" font-family="MonacoForPowerline,Monaco for Powerline" font-size="24.0" fill="#FEFFFE" transform="matrix(1.00, 0.00, -0.00, -1.00, 259.5, 507.2)">a</text><text xml:space="preserve" font-family="MonacoForPowerline,Monaco for Powerline" font-size="24.0" fill="#FEFFFE" transform="matrix(1.00, 0.00, -0.00, -1.00, 273.9, 507.2)">t</text><text xml:space="preserve" font-family="MonacoForPowerline,Monaco for Powerline" font-size="24.0" fill="#FEFFFE" transform="matrix(1.00, 0.00, -0.00, -1.00, 288.3, 507.2)">u</text><text xml:space="preserve" font-family="MonacoForPowerline,Monaco for Powerline" font-size="24.0" fill="#FEFFFE" transform="matrix(1.00, 0.00, -0.00, -1.00, 302.7, 507.2)">r</text><text xml:space="preserve" font-family="MonacoForPowerline,Monaco for Powerline" font-size="24.0" fill="#FEFFFE" transform="matrix(1.00, 0.00, -0.00, -1.00, 317.1, 507.2)">a</text><text xml:space="preserve" font-family="MonacoForPowerline,Monaco for Powerline" font-size="24.0" fill="#FEFFFE" transform="matrix(1.00, 0.00, -0.00, -1.00, 331.5, 507.2)">l</text><text xml:space="preserve" font-family="MonacoForPowerline,Monaco for Powerline" font-size="24.0" fill="#FEFFFE" transform="matrix(1.00, 0.00, -0.00, -1.00, 345.9, 507.2)"> </text><text xml:space="preserve" font-family="MonacoForPowerline,Monaco for Powerline" font-size="24.0" fill="#FEFFFE" transform="matrix(1.00, 0.00, -0.00, -1.00, 360.3, 507.2)">L</text><text xml:space="preserve" font-family="MonacoForPowerline,Monaco for Powerline" font-size="24.0" fill="#FEFFFE" transform="matrix(1.00, 0.00, -0.00, -1.00, 374.8, 507.2)">a</text><text xml:space="preserve" font-family="MonacoForPowerline,Monaco for Powerline" font-size="24.0" fill="#FEFFFE" transform="matrix(1.00, 0.00, -0.00, -1.00, 389.2, 507.2)">n</text><text xml:space="preserve" font-family="MonacoForPowerline,Monaco for Powerline" font-size="24.0" fill="#FEFFFE" transform="matrix(1.00, 0.00, -0.00, -1.00, 403.6, 507.2)">g</text><text xml:space="preserve" font-family="MonacoForPowerline,Monaco for Powerline" font-size="24.0" fill="#FEFFFE" transform="matrix(1.00, 0.00, -0.00, -1.00, 418.0, 507.2)">u</text><text xml:space="preserve" font-family="MonacoForPowerline,Monaco for Powerline" font-size="24.0" fill="#FEFFFE" transform="matrix(1.00, 0.00, -0.00, -1.00, 432.4, 507.2)">a</text><text xml:space="preserve" font-family="MonacoForPowerline,Monaco for Powerline" font-size="24.0" fill="#FEFFFE" transform="matrix(1.00, 0.00, -0.00, -1.00, 446.8, 507.2)">g</text><text xml:space="preserve" font-family="MonacoForPowerline,Monaco for Powerline" font-size="24.0" fill="#FEFFFE" transform="matrix(1.00, 0.00, -0.00, -1.00, 461.2, 507.2)">e</text><text xml:space="preserve" font-family="MonacoForPowerline,Monaco for Powerline" font-size="24.0" fill="#FEFFFE" transform="matrix(1.00, 0.00, -0.00, -1.00, 475.6, 507.2)"> </text><text xml:space="preserve" font-family="MonacoForPowerline,Monaco for Powerline" font-size="24.0" fill="#FEFFFE" transform="matrix(1.00, 0.00, -0.00, -1.00, 490.0, 507.2)">P</text><text xml:space="preserve" font-family="MonacoForPowerline,Monaco for Powerline" font-size="24.0" fill="#FEFFFE" transform="matrix(1.00, 0.00, -0.00, -1.00, 504.4, 507.2)">r</text><text xml:space="preserve" font-family="MonacoForPowerline,Monaco for Powerline" font-size="24.0" fill="#FEFFFE" transform="matrix(1.00, 0.00, -0.00, -1.00, 518.8, 507.2)">o</text><text xml:space="preserve" font-family="MonacoForPowerline,Monaco for Powerline" font-size="24.0" fill="#FEFFFE" transform="matrix(1.00, 0.00, -0.00, -1.00, 533.2, 507.2)">c</text><text xml:space="preserve" font-family="MonacoForPowerline,Monaco for Powerline" font-size="24.0" fill="#FEFFFE" transform="matrix(1.00, 0.00, -0.00, -1.00, 547.6, 507.2)">e</text><text xml:space="preserve" font-family="MonacoForPowerline,Monaco for Powerline" font-size="24.0" fill="#FEFFFE" transform="matrix(1.00, 0.00, -0.00, -1.00, 562.0, 507.2)">s</text><text xml:space="preserve" font-family="MonacoForPowerline,Monaco for Powerline" font-size="24.0" fill="#FEFFFE" transform="matrix(1.00, 0.00, -0.00, -1.00, 576.4, 507.2)">s</text><text xml:space="preserve" font-family="MonacoForPowerline,Monaco for Powerline" font-size="24.0" fill="#FEFFFE" transform="matrix(1.00, 0.00, -0.00, -1.00, 590.8, 507.2)">i</text><text xml:space="preserve" font-family="MonacoForPowerline,Monaco for Powerline" font-size="24.0" fill="#FEFFFE" transform="matrix(1.00, 0.00, -0.00, -1.00, 605.2, 507.2)">n</text><text xml:space="preserve" font-family="MonacoForPowerline,Monaco for Powerline" font-size="24.0" fill="#FEFFFE" transform="matrix(1.00, 0.00, -0.00, -1.00, 619.6, 507.2)">g</text></g></svg>