<?xml version="1.0" encoding="UTF-8" standalone="no"?><svg xmlns="http://www.w3.org/2000/svg" xmlns:xlink="http://www.w3.org/1999/xlink" clip-rule="evenodd" stroke-miterlimit="10" viewBox="0 0 713 41"><desc>SVG generated by Keynote</desc><defs></defs><g transform="matrix(1.00, 0.00, -0.00, -1.00, 0.0, 41.0)"><text xml:space="preserve" font-family="MonacoForPowerline,Monaco for Powerline" font-size="36.0" fill="#52575F" transform="matrix(1.00, 0.00, -0.00, -1.00, 1.9, 10.5)">M</text><text xml:space="preserve" font-family="MonacoForPowerline,Monaco for Powerline" font-size="36.0" fill="#52575F" transform="matrix(1.00, 0.00, -0.00, -1.00, 23.5, 10.5)">i</text><text xml:space="preserve" font-family="MonacoForPowerline,Monaco for Powerline" font-size="36.0" fill="#52575F" transform="matrix(1.00, 0.00, -0.00, -1.00, 45.1, 10.5)">c</text><text xml:space="preserve" font-family="MonacoForPowerline,Monaco for Powerline" font-size="36.0" fill="#52575F" transform="matrix(1.00, 0.00, -0.00, -1.00, 66.7, 10.5)">r</text><text xml:space="preserve" font-family="MonacoForPowerline,Monaco for Powerline" font-size="36.0" fill="#52575F" transform="matrix(1.00, 0.00, -0.00, -1.00, 88.3, 10.5)">o</text><text xml:space="preserve" font-family="MonacoForPowerline,Monaco for Powerline" font-size="36.0" fill="#52575F" transform="matrix(1.00, 0.00, -0.00, -1.00, 109.9, 10.5)">s</text><text xml:space="preserve" font-family="MonacoForPowerline,Monaco for Powerline" font-size="36.0" fill="#52575F" transform="matrix(1.00, 0.00, -0.00, -1.00, 131.5, 10.5)">o</text><text xml:space="preserve" font-family="MonacoForPowerline,Monaco for Powerline" font-size="36.0" fill="#52575F" transform="matrix(1.00, 0.00, -0.00, -1.00, 153.1, 10.5)">f</text><text xml:space="preserve" font-family="MonacoForPowerline,Monaco for Powerline" font-size="36.0" fill="#52575F" transform="matrix(1.00, 0.00, -0.00, -1.00, 174.7, 10.5)">t</text><text xml:space="preserve" font-family="MonacoForPowerline,Monaco for Powerline" font-size="36.0" fill="#52575F" transform="matrix(1.00, 0.00, -0.00, -1.00, 196.3, 10.5)"> </text><text xml:space="preserve" font-family="MonacoForPowerline,Monaco for Powerline" font-size="36.0" fill="#52575F" transform="matrix(1.00, 0.00, -0.00, -1.00, 218.0, 10.5)">R</text><text xml:space="preserve" font-family="MonacoForPowerline,Monaco for Powerline" font-size="36.0" fill="#52575F" transform="matrix(1.00, 0.00, -0.00, -1.00, 239.6, 10.5)">e</text><text xml:space="preserve" font-family="MonacoForPowerline,Monaco for Powerline" font-size="36.0" fill="#52575F" transform="matrix(1.00, 0.00, -0.00, -1.00, 261.2, 10.5)">s</text><text xml:space="preserve" font-family="MonacoForPowerline,Monaco for Powerline" font-size="36.0" fill="#52575F" transform="matrix(1.00, 0.00, -0.00, -1.00, 282.8, 10.5)">e</text><text xml:space="preserve" font-family="MonacoForPowerline,Monaco for Powerline" font-size="36.0" fill="#52575F" transform="matrix(1.00, 0.00, -0.00, -1.00, 304.4, 10.5)">a</text><text xml:space="preserve" font-family="MonacoForPowerline,Monaco for Powerline" font-size="36.0" fill="#52575F" transform="matrix(1.00, 0.00, -0.00, -1.00, 326.0, 10.5)">r</text><text xml:space="preserve" font-family="MonacoForPowerline,Monaco for Powerline" font-size="36.0" fill="#52575F" transform="matrix(1.00, 0.00, -0.00, -1.00, 347.6, 10.5)">c</text><text xml:space="preserve" font-family="MonacoForPowerline,Monaco for Powerline" font-size="36.0" fill="#52575F" transform="matrix(1.00, 0.00, -0.00, -1.00, 369.2, 10.5)">h</text><text xml:space="preserve" font-family="MonacoForPowerline,Monaco for Powerline" font-size="36.0" fill="#52575F" transform="matrix(1.00, 0.00, -0.00, -1.00, 390.8, 10.5)"> </text><text xml:space="preserve" font-family="MonacoForPowerline,Monaco for Powerline" font-size="36.0" fill="#52575F" transform="matrix(1.00, 0.00, -0.00, -1.00, 412.4, 10.5)">A</text><text xml:space="preserve" font-family="MonacoForPowerline,Monaco for Powerline" font-size="36.0" fill="#52575F" transform="matrix(1.00, 0.00, -0.00, -1.00, 434.0, 10.5)">s</text><text xml:space="preserve" font-family="MonacoForPowerline,Monaco for Powerline" font-size="36.0" fill="#52575F" transform="matrix(1.00, 0.00, -0.00, -1.00, 455.6, 10.5)">i</text><text xml:space="preserve" font-family="MonacoForPowerline,Monaco for Powerline" font-size="36.0" fill="#52575F" transform="matrix(1.00, 0.00, -0.00, -1.00, 477.2, 10.5)">a</text><text xml:space="preserve" font-family="MonacoForPowerline,Monaco for Powerline" font-size="36.0" fill="#52575F" transform="matrix(1.00, 0.00, -0.00, -1.00, 498.8, 10.5)"> </text><text xml:space="preserve" font-family="MonacoForPowerline,Monaco for Powerline" font-size="36.0" fill="#52575F" transform="matrix(1.00, 0.00, -0.00, -1.00, 520.5, 10.5)">(</text><text xml:space="preserve" font-family="MonacoForPowerline,Monaco for Powerline" font-size="36.0" fill="#52575F" transform="matrix(1.00, 0.00, -0.00, -1.00, 542.1, 10.5)">B</text><text xml:space="preserve" font-family="MonacoForPowerline,Monaco for Powerline" font-size="36.0" fill="#52575F" transform="matrix(1.00, 0.00, -0.00, -1.00, 563.7, 10.5)">e</text><text xml:space="preserve" font-family="MonacoForPowerline,Monaco for Powerline" font-size="36.0" fill="#52575F" transform="matrix(1.00, 0.00, -0.00, -1.00, 585.3, 10.5)">i</text><text xml:space="preserve" font-family="MonacoForPowerline,Monaco for Powerline" font-size="36.0" fill="#52575F" transform="matrix(1.00, 0.00, -0.00, -1.00, 606.9, 10.5)">j</text><text xml:space="preserve" font-family="MonacoForPowerline,Monaco for Powerline" font-size="36.0" fill="#52575F" transform="matrix(1.00, 0.00, -0.00, -1.00, 628.5, 10.5)">i</text><text xml:space="preserve" font-family="MonacoForPowerline,Monaco for Powerline" font-size="36.0" fill="#52575F" transform="matrix(1.00, 0.00, -0.00, -1.00, 650.1, 10.5)">n</text><text xml:space="preserve" font-family="MonacoForPowerline,Monaco for Powerline" font-size="36.0" fill="#52575F" transform="matrix(1.00, 0.00, -0.00, -1.00, 671.7, 10.5)">g</text><text xml:space="preserve" font-family="MonacoForPowerline,Monaco for Powerline" font-size="36.0" fill="#52575F" transform="matrix(1.00, 0.00, -0.00, -1.00, 693.3, 10.5)">)</text></g></svg>