<?xml version="1.0" encoding="UTF-8" standalone="no"?><svg xmlns="http://www.w3.org/2000/svg" xmlns:xlink="http://www.w3.org/1999/xlink" clip-rule="evenodd" stroke-miterlimit="10" viewBox="0 0 1024 768"><desc>SVG generated by Keynote</desc><defs></defs><g transform="matrix(1.00, 0.00, -0.00, -1.00, 0.0, 768.0)"><path d="M 0.0 768.0 L 1024.0 768.0 L 1024.0 0.0 L 0.0 0.0 Z M 0.0 768.0 " fill="#FEFFFF"></path><image xlink:href="../../A458083D-D69B-45C4-902F-6A2AFF5FFDFF/assets/67EC68E2567016468077500E22FE0557.png" width="1042.00" height="786.00" transform="matrix(1.00, 0.00, -0.00, -1.00, -9.0, 775.0)" opacity="0.50"></image><path d="M -6.0 774.0 L 1030.0 774.0 L 1030.0 -6.0 L -6.0 -6.0 Z M -6.0 774.0 " fill="#410198"></path><path d="M -0.1 -0.2 L 755.5 -0.2 L 756.9 -0.2 " fill="none" stroke="#FEFFFE" stroke-width="3.00" stroke-dasharray="18.0, 18.0" transform="matrix(0.00, -1.00, -1.00, 0.00, 909.3, 770.9)"></path><path d="M 0.0 0.0 L 3.0 5.0 L 6.0 0.0 M 3.0 0.0 L 3.0 5.0 " fill="none" stroke="#FEFFFE" stroke-width="1.36" stroke-linejoin="round" transform="matrix(2.20, 0.00, 0.00, -2.20, 902.9, 15.5)"></path><image xlink:href="71155D472FEEEDBBD794D4D62232D023.jpeg" width="1408.00" height="940.00" transform="matrix(0.73, 0.00, -0.00, -0.73, -1.0, 841.0)"></image><text xml:space="preserve" font-family="MonacoForPowerline,Monaco for Powerline" font-size="16.0" fill="#DCDDE0" transform="matrix(1.00, 0.00, -0.00, -1.00, 72.8, 209.2)">i</text><text xml:space="preserve" font-family="MonacoForPowerline,Monaco for Powerline" font-size="16.0" fill="#DCDDE0" transform="matrix(1.00, 0.00, -0.00, -1.00, 82.4, 209.2)">n</text><text xml:space="preserve" font-family="MonacoForPowerline,Monaco for Powerline" font-size="16.0" fill="#DCDDE0" transform="matrix(1.00, 0.00, -0.00, -1.00, 92.0, 209.2)">t</text><text xml:space="preserve" font-family="MonacoForPowerline,Monaco for Powerline" font-size="16.0" fill="#DCDDE0" transform="matrix(1.00, 0.00, -0.00, -1.00, 101.6, 209.2)">e</text><text xml:space="preserve" font-family="MonacoForPowerline,Monaco for Powerline" font-size="16.0" fill="#DCDDE0" transform="matrix(1.00, 0.00, -0.00, -1.00, 111.2, 209.2)">r</text><text xml:space="preserve" font-family="MonacoForPowerline,Monaco for Powerline" font-size="16.0" fill="#DCDDE0" transform="matrix(1.00, 0.00, -0.00, -1.00, 120.9, 209.2)">n</text><text xml:space="preserve" font-family="MonacoForPowerline,Monaco for Powerline" font-size="16.0" fill="#DCDDE0" transform="matrix(1.00, 0.00, -0.00, -1.00, 213.2, 237.7)">U</text><text xml:space="preserve" font-family="MonacoForPowerline,Monaco for Powerline" font-size="16.0" fill="#DCDDE0" transform="matrix(1.00, 0.00, -0.00, -1.00, 222.8, 237.7)">S</text><text xml:space="preserve" font-family="MonacoForPowerline,Monaco for Powerline" font-size="16.0" fill="#DCDDE0" transform="matrix(1.00, 0.00, -0.00, -1.00, 232.4, 237.7)">C</text><text xml:space="preserve" font-family="MonacoForPowerline,Monaco for Powerline" font-size="16.0" fill="#DCDDE0" transform="matrix(1.00, 0.00, -0.00, -1.00, 208.4, 216.7)">P</text><text xml:space="preserve" font-family="MonacoForPowerline,Monaco for Powerline" font-size="16.0" fill="#DCDDE0" transform="matrix(1.00, 0.00, -0.00, -1.00, 218.0, 216.7)">h</text><text xml:space="preserve" font-family="MonacoForPowerline,Monaco for Powerline" font-size="16.0" fill="#DCDDE0" transform="matrix(1.00, 0.00, -0.00, -1.00, 227.6, 216.7)">D</text><text xml:space="preserve" font-family="MonacoForPowerline,Monaco for Powerline" font-size="16.0" fill="#DCDDE0" transform="matrix(1.00, 0.00, -0.00, -1.00, 237.2, 216.7)">.</text><text xml:space="preserve" font-family="MonacoForPowerline,Monaco for Powerline" font-size="16.0" fill="#DCDDE0" transform="matrix(1.00, 0.00, -0.00, -1.00, 293.2, 237.7)">N</text><text xml:space="preserve" font-family="MonacoForPowerline,Monaco for Powerline" font-size="16.0" fill="#DCDDE0" transform="matrix(1.00, 0.00, -0.00, -1.00, 302.8, 237.7)">K</text><text xml:space="preserve" font-family="MonacoForPowerline,Monaco for Powerline" font-size="16.0" fill="#DCDDE0" transform="matrix(1.00, 0.00, -0.00, -1.00, 312.4, 237.7)">U</text><text xml:space="preserve" font-family="MonacoForPowerline,Monaco for Powerline" font-size="16.0" fill="#DCDDE0" transform="matrix(1.00, 0.00, -0.00, -1.00, 288.4, 216.7)">P</text><text xml:space="preserve" font-family="MonacoForPowerline,Monaco for Powerline" font-size="16.0" fill="#DCDDE0" transform="matrix(1.00, 0.00, -0.00, -1.00, 298.0, 216.7)">h</text><text xml:space="preserve" font-family="MonacoForPowerline,Monaco for Powerline" font-size="16.0" fill="#DCDDE0" transform="matrix(1.00, 0.00, -0.00, -1.00, 307.6, 216.7)">D</text><text xml:space="preserve" font-family="MonacoForPowerline,Monaco for Powerline" font-size="16.0" fill="#DCDDE0" transform="matrix(1.00, 0.00, -0.00, -1.00, 317.2, 216.7)">.</text><text xml:space="preserve" font-family="MonacoForPowerline,Monaco for Powerline" font-size="16.0" fill="#DCDDE0" transform="matrix(1.00, 0.00, -0.00, -1.00, 360.3, 237.7)">P</text><text xml:space="preserve" font-family="MonacoForPowerline,Monaco for Powerline" font-size="16.0" fill="#DCDDE0" transform="matrix(1.00, 0.00, -0.00, -1.00, 369.9, 237.7)">K</text><text xml:space="preserve" font-family="MonacoForPowerline,Monaco for Powerline" font-size="16.0" fill="#DCDDE0" transform="matrix(1.00, 0.00, -0.00, -1.00, 379.5, 237.7)">U</text><text xml:space="preserve" font-family="MonacoForPowerline,Monaco for Powerline" font-size="16.0" fill="#DCDDE0" transform="matrix(1.00, 0.00, -0.00, -1.00, 389.1, 237.7)"> </text><text xml:space="preserve" font-family="MonacoForPowerline,Monaco for Powerline" font-size="16.0" fill="#DCDDE0" transform="matrix(1.00, 0.00, -0.00, -1.00, 355.5, 216.7)">P</text><text xml:space="preserve" font-family="MonacoForPowerline,Monaco for Powerline" font-size="16.0" fill="#DCDDE0" transform="matrix(1.00, 0.00, -0.00, -1.00, 365.1, 216.7)">h</text><text xml:space="preserve" font-family="MonacoForPowerline,Monaco for Powerline" font-size="16.0" fill="#DCDDE0" transform="matrix(1.00, 0.00, -0.00, -1.00, 374.7, 216.7)">D</text><text xml:space="preserve" font-family="MonacoForPowerline,Monaco for Powerline" font-size="16.0" fill="#DCDDE0" transform="matrix(1.00, 0.00, -0.00, -1.00, 384.3, 216.7)">.</text><text xml:space="preserve" font-family="MonacoForPowerline,Monaco for Powerline" font-size="16.0" fill="#DCDDE0" transform="matrix(1.00, 0.00, -0.00, -1.00, 525.2, 234.8)">G</text><text xml:space="preserve" font-family="MonacoForPowerline,Monaco for Powerline" font-size="16.0" fill="#DCDDE0" transform="matrix(1.00, 0.00, -0.00, -1.00, 534.8, 234.8)">o</text><text xml:space="preserve" font-family="MonacoForPowerline,Monaco for Powerline" font-size="16.0" fill="#DCDDE0" transform="matrix(1.00, 0.00, -0.00, -1.00, 544.4, 234.8)">o</text><text xml:space="preserve" font-family="MonacoForPowerline,Monaco for Powerline" font-size="16.0" fill="#DCDDE0" transform="matrix(1.00, 0.00, -0.00, -1.00, 554.0, 234.8)">g</text><text xml:space="preserve" font-family="MonacoForPowerline,Monaco for Powerline" font-size="16.0" fill="#DCDDE0" transform="matrix(1.00, 0.00, -0.00, -1.00, 563.6, 234.8)">l</text><text xml:space="preserve" font-family="MonacoForPowerline,Monaco for Powerline" font-size="16.0" fill="#DCDDE0" transform="matrix(1.00, 0.00, -0.00, -1.00, 573.2, 234.8)">e</text><text xml:space="preserve" font-family="MonacoForPowerline,Monaco for Powerline" font-size="16.0" fill="#DCDDE0" transform="matrix(1.00, 0.00, -0.00, -1.00, 674.6, 230.7)">S</text><text xml:space="preserve" font-family="MonacoForPowerline,Monaco for Powerline" font-size="16.0" fill="#DCDDE0" transform="matrix(1.00, 0.00, -0.00, -1.00, 684.2, 230.7)">e</text><text xml:space="preserve" font-family="MonacoForPowerline,Monaco for Powerline" font-size="16.0" fill="#DCDDE0" transform="matrix(1.00, 0.00, -0.00, -1.00, 693.8, 230.7)">n</text><text xml:space="preserve" font-family="MonacoForPowerline,Monaco for Powerline" font-size="16.0" fill="#DCDDE0" transform="matrix(1.00, 0.00, -0.00, -1.00, 703.4, 230.7)">i</text><text xml:space="preserve" font-family="MonacoForPowerline,Monaco for Powerline" font-size="16.0" fill="#DCDDE0" transform="matrix(1.00, 0.00, -0.00, -1.00, 713.0, 230.7)">o</text><text xml:space="preserve" font-family="MonacoForPowerline,Monaco for Powerline" font-size="16.0" fill="#DCDDE0" transform="matrix(1.00, 0.00, -0.00, -1.00, 722.6, 230.7)">r</text><text xml:space="preserve" font-family="MonacoForPowerline,Monaco for Powerline" font-size="16.0" fill="#DCDDE0" transform="matrix(1.00, 0.00, -0.00, -1.00, 655.4, 209.7)">R</text><text xml:space="preserve" font-family="MonacoForPowerline,Monaco for Powerline" font-size="16.0" fill="#DCDDE0" transform="matrix(1.00, 0.00, -0.00, -1.00, 665.0, 209.7)">e</text><text xml:space="preserve" font-family="MonacoForPowerline,Monaco for Powerline" font-size="16.0" fill="#DCDDE0" transform="matrix(1.00, 0.00, -0.00, -1.00, 674.6, 209.7)">s</text><text xml:space="preserve" font-family="MonacoForPowerline,Monaco for Powerline" font-size="16.0" fill="#DCDDE0" transform="matrix(1.00, 0.00, -0.00, -1.00, 684.2, 209.7)">e</text><text xml:space="preserve" font-family="MonacoForPowerline,Monaco for Powerline" font-size="16.0" fill="#DCDDE0" transform="matrix(1.00, 0.00, -0.00, -1.00, 693.8, 209.7)">a</text><text xml:space="preserve" font-family="MonacoForPowerline,Monaco for Powerline" font-size="16.0" fill="#DCDDE0" transform="matrix(1.00, 0.00, -0.00, -1.00, 703.4, 209.7)">r</text><text xml:space="preserve" font-family="MonacoForPowerline,Monaco for Powerline" font-size="16.0" fill="#DCDDE0" transform="matrix(1.00, 0.00, -0.00, -1.00, 713.0, 209.7)">c</text><text xml:space="preserve" font-family="MonacoForPowerline,Monaco for Powerline" font-size="16.0" fill="#DCDDE0" transform="matrix(1.00, 0.00, -0.00, -1.00, 722.6, 209.7)">h</text><text xml:space="preserve" font-family="MonacoForPowerline,Monaco for Powerline" font-size="16.0" fill="#DCDDE0" transform="matrix(1.00, 0.00, -0.00, -1.00, 732.2, 209.7)">e</text><text xml:space="preserve" font-family="MonacoForPowerline,Monaco for Powerline" font-size="16.0" fill="#DCDDE0" transform="matrix(1.00, 0.00, -0.00, -1.00, 741.8, 209.7)">r</text><text xml:space="preserve" font-family="MonacoForPowerline,Monaco for Powerline" font-size="16.0" fill="#DCDDE0" transform="matrix(1.00, 0.00, -0.00, -1.00, 806.9, 222.7)">C</text><text xml:space="preserve" font-family="MonacoForPowerline,Monaco for Powerline" font-size="16.0" fill="#DCDDE0" transform="matrix(1.00, 0.00, -0.00, -1.00, 816.5, 222.7)">U</text><text xml:space="preserve" font-family="MonacoForPowerline,Monaco for Powerline" font-size="16.0" fill="#DCDDE0" transform="matrix(1.00, 0.00, -0.00, -1.00, 826.1, 222.7)">H</text><text xml:space="preserve" font-family="MonacoForPowerline,Monaco for Powerline" font-size="16.0" fill="#DCDDE0" transform="matrix(1.00, 0.00, -0.00, -1.00, 835.7, 222.7)">K</text><text xml:space="preserve" font-family="MonacoForPowerline,Monaco for Powerline" font-size="16.0" fill="#DCDDE0" transform="matrix(1.00, 0.00, -0.00, -1.00, 806.9, 201.7)">P</text><text xml:space="preserve" font-family="MonacoForPowerline,Monaco for Powerline" font-size="16.0" fill="#DCDDE0" transform="matrix(1.00, 0.00, -0.00, -1.00, 816.5, 201.7)">h</text><text xml:space="preserve" font-family="MonacoForPowerline,Monaco for Powerline" font-size="16.0" fill="#DCDDE0" transform="matrix(1.00, 0.00, -0.00, -1.00, 826.1, 201.7)">D</text><text xml:space="preserve" font-family="MonacoForPowerline,Monaco for Powerline" font-size="16.0" fill="#DCDDE0" transform="matrix(1.00, 0.00, -0.00, -1.00, 835.7, 201.7)">.</text><text xml:space="preserve" font-family="MonacoForPowerline,Monaco for Powerline" font-size="16.0" fill="#DCDDE0" transform="matrix(1.00, 0.00, -0.00, -1.00, 875.3, 222.7)">H</text><text xml:space="preserve" font-family="MonacoForPowerline,Monaco for Powerline" font-size="16.0" fill="#DCDDE0" transform="matrix(1.00, 0.00, -0.00, -1.00, 884.9, 222.7)">I</text><text xml:space="preserve" font-family="MonacoForPowerline,Monaco for Powerline" font-size="16.0" fill="#DCDDE0" transform="matrix(1.00, 0.00, -0.00, -1.00, 894.5, 222.7)">T</text><text xml:space="preserve" font-family="MonacoForPowerline,Monaco for Powerline" font-size="16.0" fill="#DCDDE0" transform="matrix(1.00, 0.00, -0.00, -1.00, 904.1, 222.7)"> </text><text xml:space="preserve" font-family="MonacoForPowerline,Monaco for Powerline" font-size="16.0" fill="#DCDDE0" transform="matrix(1.00, 0.00, -0.00, -1.00, 870.5, 201.7)">P</text><text xml:space="preserve" font-family="MonacoForPowerline,Monaco for Powerline" font-size="16.0" fill="#DCDDE0" transform="matrix(1.00, 0.00, -0.00, -1.00, 880.1, 201.7)">h</text><text xml:space="preserve" font-family="MonacoForPowerline,Monaco for Powerline" font-size="16.0" fill="#DCDDE0" transform="matrix(1.00, 0.00, -0.00, -1.00, 889.7, 201.7)">D</text><text xml:space="preserve" font-family="MonacoForPowerline,Monaco for Powerline" font-size="16.0" fill="#DCDDE0" transform="matrix(1.00, 0.00, -0.00, -1.00, 899.3, 201.7)">.</text><text xml:space="preserve" font-family="MonacoForPowerline,Monaco for Powerline" font-size="16.0" fill="#DCDDE0" transform="matrix(1.00, 0.00, -0.00, -1.00, 448.1, 212.2)">i</text><text xml:space="preserve" font-family="MonacoForPowerline,Monaco for Powerline" font-size="16.0" fill="#DCDDE0" transform="matrix(1.00, 0.00, -0.00, -1.00, 457.7, 212.2)">n</text><text xml:space="preserve" font-family="MonacoForPowerline,Monaco for Powerline" font-size="16.0" fill="#DCDDE0" transform="matrix(1.00, 0.00, -0.00, -1.00, 467.4, 212.2)">t</text><text xml:space="preserve" font-family="MonacoForPowerline,Monaco for Powerline" font-size="16.0" fill="#DCDDE0" transform="matrix(1.00, 0.00, -0.00, -1.00, 477.0, 212.2)">e</text><text xml:space="preserve" font-family="MonacoForPowerline,Monaco for Powerline" font-size="16.0" fill="#DCDDE0" transform="matrix(1.00, 0.00, -0.00, -1.00, 486.6, 212.2)">r</text><text xml:space="preserve" font-family="MonacoForPowerline,Monaco for Powerline" font-size="16.0" fill="#DCDDE0" transform="matrix(1.00, 0.00, -0.00, -1.00, 496.2, 212.2)">n</text><g opacity="0.34"><g><clipPath id="clip0x7fbcfd15e610"><path d="M 171.0 374.0 L 604.0 374.0 L 604.0 541.0 L 171.0 541.0 Z M 171.0 374.0 "></path></clipPath><g clip-path="url(#clip0x7fbcfd15e610)"><image xlink:href="E9A1E13B7BE444C7EB21D54BA86F171C.png" width="427.00" height="164.00" transform="matrix(1.00, 0.00, -0.00, -1.00, 174.6, 539.1)" opacity="0.50"></image><path d="M 177.6 392.1 L 178.0 522.1 C 178.0 529.3 183.4 535.0 190.6 535.0 L 584.1 535.0 C 591.2 535.0 597.0 529.3 597.0 522.1 L 597.0 392.1 C 597.0 384.9 591.2 379.0 584.1 379.0 L 190.6 379.0 C 183.4 379.0 177.6 384.9 177.6 392.1 Z M 177.6 392.1 " fill="#000000"></path></g></g></g><image xlink:href="5DC4393C7724F70774D95B14DB6C1094.png" width="304.00" height="304.00" transform="matrix(1.00, 0.00, -0.00, -1.00, -5.7, 607.3)" opacity="0.90"></image><image xlink:href="C1E66D88FD8DDF7CBFFDCD142E3C3D5B.jpeg" width="150.00" height="150.00" transform="matrix(1.13, 0.00, -0.00, -1.13, 35.0, 543.0)"></image><text xml:space="preserve" font-family="MonacoForPowerline,Monaco for Powerline" font-size="36.0" fill="#FEFFFE" transform="matrix(1.00, 0.00, -0.00, -1.00, 227.1, 484.1)">D</text><text xml:space="preserve" font-family="MonacoForPowerline,Monaco for Powerline" font-size="36.0" fill="#FEFFFE" transform="matrix(1.00, 0.00, -0.00, -1.00, 248.7, 484.1)">r</text><text xml:space="preserve" font-family="MonacoForPowerline,Monaco for Powerline" font-size="36.0" fill="#FEFFFE" transform="matrix(1.00, 0.00, -0.00, -1.00, 270.3, 484.1)">.</text><text xml:space="preserve" font-family="MonacoForPowerline,Monaco for Powerline" font-size="36.0" fill="#FEFFFE" transform="matrix(1.00, 0.00, -0.00, -1.00, 291.9, 484.1)"> </text><text xml:space="preserve" font-family="MonacoForPowerline,Monaco for Powerline" font-size="36.0" fill="#FEFFFE" transform="matrix(1.00, 0.00, -0.00, -1.00, 313.5, 484.1)">C</text><text xml:space="preserve" font-family="MonacoForPowerline,Monaco for Powerline" font-size="36.0" fill="#FEFFFE" transform="matrix(1.00, 0.00, -0.00, -1.00, 335.1, 484.1)">h</text><text xml:space="preserve" font-family="MonacoForPowerline,Monaco for Powerline" font-size="36.0" fill="#FEFFFE" transform="matrix(1.00, 0.00, -0.00, -1.00, 356.7, 484.1)">i</text><text xml:space="preserve" font-family="MonacoForPowerline,Monaco for Powerline" font-size="36.0" fill="#FEFFFE" transform="matrix(1.00, 0.00, -0.00, -1.00, 378.3, 484.1)">n</text><text xml:space="preserve" font-family="MonacoForPowerline,Monaco for Powerline" font-size="36.0" fill="#FEFFFE" transform="matrix(1.00, 0.00, -0.00, -1.00, 399.9, 484.1)">-</text><text xml:space="preserve" font-family="MonacoForPowerline,Monaco for Powerline" font-size="36.0" fill="#FEFFFE" transform="matrix(1.00, 0.00, -0.00, -1.00, 421.5, 484.1)">Y</text><text xml:space="preserve" font-family="MonacoForPowerline,Monaco for Powerline" font-size="36.0" fill="#FEFFFE" transform="matrix(1.00, 0.00, -0.00, -1.00, 443.1, 484.1)">e</text><text xml:space="preserve" font-family="MonacoForPowerline,Monaco for Powerline" font-size="36.0" fill="#FEFFFE" transform="matrix(1.00, 0.00, -0.00, -1.00, 464.7, 484.1)">w</text><text xml:space="preserve" font-family="MonacoForPowerline,Monaco for Powerline" font-size="36.0" fill="#FEFFFE" transform="matrix(1.00, 0.00, -0.00, -1.00, 486.3, 484.1)"> </text><text xml:space="preserve" font-family="MonacoForPowerline,Monaco for Powerline" font-size="36.0" fill="#FEFFFE" transform="matrix(1.00, 0.00, -0.00, -1.00, 508.0, 484.1)">L</text><text xml:space="preserve" font-family="MonacoForPowerline,Monaco for Powerline" font-size="36.0" fill="#FEFFFE" transform="matrix(1.00, 0.00, -0.00, -1.00, 529.6, 484.1)">i</text><text xml:space="preserve" font-family="MonacoForPowerline,Monaco for Powerline" font-size="36.0" fill="#FEFFFE" transform="matrix(1.00, 0.00, -0.00, -1.00, 551.2, 484.1)">n</text><text xml:space="preserve" font-family="MonacoForPowerline,Monaco for Powerline" font-size="24.0" fill="#FEFFFE" transform="matrix(1.00, 0.00, -0.00, -1.00, 227.1, 432.1)">P</text><text xml:space="preserve" font-family="MonacoForPowerline,Monaco for Powerline" font-size="24.0" fill="#FEFFFE" transform="matrix(1.00, 0.00, -0.00, -1.00, 241.5, 432.1)">r</text><text xml:space="preserve" font-family="MonacoForPowerline,Monaco for Powerline" font-size="24.0" fill="#FEFFFE" transform="matrix(1.00, 0.00, -0.00, -1.00, 255.9, 432.1)">i</text><text xml:space="preserve" font-family="MonacoForPowerline,Monaco for Powerline" font-size="24.0" fill="#FEFFFE" transform="matrix(1.00, 0.00, -0.00, -1.00, 270.3, 432.1)">n</text><text xml:space="preserve" font-family="MonacoForPowerline,Monaco for Powerline" font-size="24.0" fill="#FEFFFE" transform="matrix(1.00, 0.00, -0.00, -1.00, 284.7, 432.1)">c</text><text xml:space="preserve" font-family="MonacoForPowerline,Monaco for Powerline" font-size="24.0" fill="#FEFFFE" transform="matrix(1.00, 0.00, -0.00, -1.00, 299.1, 432.1)">i</text><text xml:space="preserve" font-family="MonacoForPowerline,Monaco for Powerline" font-size="24.0" fill="#FEFFFE" transform="matrix(1.00, 0.00, -0.00, -1.00, 313.5, 432.1)">p</text><text xml:space="preserve" font-family="MonacoForPowerline,Monaco for Powerline" font-size="24.0" fill="#FEFFFE" transform="matrix(1.00, 0.00, -0.00, -1.00, 327.9, 432.1)">a</text><text xml:space="preserve" font-family="MonacoForPowerline,Monaco for Powerline" font-size="24.0" fill="#FEFFFE" transform="matrix(1.00, 0.00, -0.00, -1.00, 342.3, 432.1)">l</text><text xml:space="preserve" font-family="MonacoForPowerline,Monaco for Powerline" font-size="24.0" fill="#FEFFFE" transform="matrix(1.00, 0.00, -0.00, -1.00, 356.7, 432.1)"> </text><text xml:space="preserve" font-family="MonacoForPowerline,Monaco for Powerline" font-size="24.0" fill="#FEFFFE" transform="matrix(1.00, 0.00, -0.00, -1.00, 371.1, 432.1)">R</text><text xml:space="preserve" font-family="MonacoForPowerline,Monaco for Powerline" font-size="24.0" fill="#FEFFFE" transform="matrix(1.00, 0.00, -0.00, -1.00, 385.5, 432.1)">e</text><text xml:space="preserve" font-family="MonacoForPowerline,Monaco for Powerline" font-size="24.0" fill="#FEFFFE" transform="matrix(1.00, 0.00, -0.00, -1.00, 399.9, 432.1)">s</text><text xml:space="preserve" font-family="MonacoForPowerline,Monaco for Powerline" font-size="24.0" fill="#FEFFFE" transform="matrix(1.00, 0.00, -0.00, -1.00, 414.3, 432.1)">e</text><text xml:space="preserve" font-family="MonacoForPowerline,Monaco for Powerline" font-size="24.0" fill="#FEFFFE" transform="matrix(1.00, 0.00, -0.00, -1.00, 428.7, 432.1)">a</text><text xml:space="preserve" font-family="MonacoForPowerline,Monaco for Powerline" font-size="24.0" fill="#FEFFFE" transform="matrix(1.00, 0.00, -0.00, -1.00, 443.1, 432.1)">r</text><text xml:space="preserve" font-family="MonacoForPowerline,Monaco for Powerline" font-size="24.0" fill="#FEFFFE" transform="matrix(1.00, 0.00, -0.00, -1.00, 457.5, 432.1)">c</text><text xml:space="preserve" font-family="MonacoForPowerline,Monaco for Powerline" font-size="24.0" fill="#FEFFFE" transform="matrix(1.00, 0.00, -0.00, -1.00, 471.9, 432.1)">h</text><text xml:space="preserve" font-family="MonacoForPowerline,Monaco for Powerline" font-size="24.0" fill="#FEFFFE" transform="matrix(1.00, 0.00, -0.00, -1.00, 486.3, 432.1)">e</text><text xml:space="preserve" font-family="MonacoForPowerline,Monaco for Powerline" font-size="24.0" fill="#FEFFFE" transform="matrix(1.00, 0.00, -0.00, -1.00, 500.7, 432.1)">r</text><text xml:space="preserve" font-family="MonacoForPowerline,Monaco for Powerline" font-size="24.0" fill="#FEFFFE" transform="matrix(1.00, 0.00, -0.00, -1.00, 227.1, 400.1)">K</text><text xml:space="preserve" font-family="MonacoForPowerline,Monaco for Powerline" font-size="24.0" fill="#FEFFFE" transform="matrix(1.00, 0.00, -0.00, -1.00, 241.5, 400.1)">n</text><text xml:space="preserve" font-family="MonacoForPowerline,Monaco for Powerline" font-size="24.0" fill="#FEFFFE" transform="matrix(1.00, 0.00, -0.00, -1.00, 255.9, 400.1)">o</text><text xml:space="preserve" font-family="MonacoForPowerline,Monaco for Powerline" font-size="24.0" fill="#FEFFFE" transform="matrix(1.00, 0.00, -0.00, -1.00, 270.3, 400.1)">w</text><text xml:space="preserve" font-family="MonacoForPowerline,Monaco for Powerline" font-size="24.0" fill="#FEFFFE" transform="matrix(1.00, 0.00, -0.00, -1.00, 284.7, 400.1)">l</text><text xml:space="preserve" font-family="MonacoForPowerline,Monaco for Powerline" font-size="24.0" fill="#FEFFFE" transform="matrix(1.00, 0.00, -0.00, -1.00, 299.1, 400.1)">e</text><text xml:space="preserve" font-family="MonacoForPowerline,Monaco for Powerline" font-size="24.0" fill="#FEFFFE" transform="matrix(1.00, 0.00, -0.00, -1.00, 313.5, 400.1)">d</text><text xml:space="preserve" font-family="MonacoForPowerline,Monaco for Powerline" font-size="24.0" fill="#FEFFFE" transform="matrix(1.00, 0.00, -0.00, -1.00, 327.9, 400.1)">g</text><text xml:space="preserve" font-family="MonacoForPowerline,Monaco for Powerline" font-size="24.0" fill="#FEFFFE" transform="matrix(1.00, 0.00, -0.00, -1.00, 342.3, 400.1)">e</text><text xml:space="preserve" font-family="MonacoForPowerline,Monaco for Powerline" font-size="24.0" fill="#FEFFFE" transform="matrix(1.00, 0.00, -0.00, -1.00, 356.7, 400.1)"> </text><text xml:space="preserve" font-family="MonacoForPowerline,Monaco for Powerline" font-size="24.0" fill="#FEFFFE" transform="matrix(1.00, 0.00, -0.00, -1.00, 371.1, 400.1)">M</text><text xml:space="preserve" font-family="MonacoForPowerline,Monaco for Powerline" font-size="24.0" fill="#FEFFFE" transform="matrix(1.00, 0.00, -0.00, -1.00, 385.5, 400.1)">i</text><text xml:space="preserve" font-family="MonacoForPowerline,Monaco for Powerline" font-size="24.0" fill="#FEFFFE" transform="matrix(1.00, 0.00, -0.00, -1.00, 399.9, 400.1)">n</text><text xml:space="preserve" font-family="MonacoForPowerline,Monaco for Powerline" font-size="24.0" fill="#FEFFFE" transform="matrix(1.00, 0.00, -0.00, -1.00, 414.3, 400.1)">i</text><text xml:space="preserve" font-family="MonacoForPowerline,Monaco for Powerline" font-size="24.0" fill="#FEFFFE" transform="matrix(1.00, 0.00, -0.00, -1.00, 428.7, 400.1)">n</text><text xml:space="preserve" font-family="MonacoForPowerline,Monaco for Powerline" font-size="24.0" fill="#FEFFFE" transform="matrix(1.00, 0.00, -0.00, -1.00, 443.1, 400.1)">g</text><text xml:space="preserve" font-family="MonacoForPowerline,Monaco for Powerline" font-size="24.0" fill="#FEFFFE" transform="matrix(1.00, 0.00, -0.00, -1.00, 457.5, 400.1)"> </text><image xlink:href="90E271EE4E237A7D58B088F894AA1B6C.png" width="1129.00" height="263.00" transform="matrix(1.00, 0.00, -0.00, -1.00, -49.2, 220.1)" opacity="0.88"></image><g><clipPath id="clip0x7fbcfd164dc0"><path d="M -2.0 170.0 L 1034.0 170.0 L 1034.0 -1.0 L -2.0 -1.0 Z M -2.5 169.8 "></path></clipPath><g clip-path="url(#clip0x7fbcfd164dc0)"><image xlink:href="DA851C34F5008E739ED7C91716175017.jpeg" width="1367.00" height="768.00" transform="matrix(0.76, 0.00, -0.00, -0.76, -13.0, 384.0)"></image></g></g><path d="M -0.3 -0.1 L 38.2 -0.1 L 38.7 -0.1 " fill="none" stroke="#FEFFFE" stroke-width="1.00" stroke-dasharray="6.0, 6.0" transform="matrix(0.00, 1.00, 1.00, 0.00, 227.6, 158.3)"></path><path d="M 0.0 0.0 L 3.0 5.0 L 6.0 0.0 M 3.0 0.0 L 3.0 5.0 " fill="none" stroke="#FEFFFE" stroke-width="1.00" stroke-linejoin="round" transform="matrix(-1.00, 0.00, 0.00, 1.00, 230.5, 196.5)"></path><path d="M 0.3 -0.1 L 29.5 -0.1 L 30.3 -0.1 " fill="none" stroke="#FEFFFE" stroke-width="1.00" stroke-dasharray="6.0, 6.0" transform="matrix(0.00, 1.00, 1.00, 0.00, 307.6, 163.7)"></path><path d="M 0.0 0.0 L 3.0 5.0 L 6.0 0.0 M 3.0 0.0 L 3.0 5.0 " fill="none" stroke="#FEFFFE" stroke-width="1.00" stroke-linejoin="round" transform="matrix(-1.00, 0.00, 0.00, 1.00, 310.5, 193.5)"></path><path d="M -0.3 0.5 L 45.9 0.5 L 46.7 0.5 " fill="none" stroke="#FEFFFE" stroke-width="1.00" stroke-dasharray="6.0, 6.0" transform="matrix(0.00, 1.00, 1.00, 0.00, 374.0, 148.3)"></path><path d="M 0.0 0.0 L 3.0 5.0 L 6.0 0.0 M 3.0 0.0 L 3.0 5.0 " fill="none" stroke="#FEFFFE" stroke-width="1.00" stroke-linejoin="round" transform="matrix(-1.00, 0.00, 0.00, 1.00, 377.5, 194.5)"></path><path d="M -0.1 -0.5 L 45.9 -0.5 L 45.9 -0.5 " fill="none" stroke="#FEFFFE" stroke-width="1.00" stroke-dasharray="6.0, 6.0" transform="matrix(0.00, 1.00, 1.00, 0.00, 476.9, 152.1)"></path><path d="M 0.0 0.0 L 3.0 5.0 L 6.0 0.0 M 3.0 0.0 L 3.0 5.0 " fill="none" stroke="#FEFFFE" stroke-width="1.00" stroke-linejoin="round" transform="matrix(-1.00, 0.00, 0.00, 1.00, 479.5, 197.5)"></path><path d="M -0.3 0.5 L 69.2 0.5 L 69.7 0.5 " fill="none" stroke="#FEFFFE" stroke-width="1.00" stroke-dasharray="6.0, 6.0" transform="matrix(0.00, 1.00, 1.00, 0.00, 554.0, 146.3)"></path><path d="M 0.0 0.0 L 3.0 5.0 L 6.0 0.0 M 3.0 0.0 L 3.0 5.0 " fill="none" stroke="#FEFFFE" stroke-width="1.00" stroke-linejoin="round" transform="matrix(-1.00, 0.00, 0.00, 1.00, 557.5, 215.5)"></path><path d="M -0.3 0.1 L 45.9 0.1 L 46.7 0.1 " fill="none" stroke="#FEFFFE" stroke-width="1.00" stroke-dasharray="6.0, 6.0" transform="matrix(0.00, 1.00, 1.00, 0.00, 703.4, 144.3)"></path><path d="M 0.0 0.0 L 3.0 5.0 L 6.0 0.0 M 3.0 0.0 L 3.0 5.0 " fill="none" stroke="#FEFFFE" stroke-width="1.00" stroke-linejoin="round" transform="matrix(-1.00, 0.00, 0.00, 1.00, 706.5, 190.5)"></path><path d="M 0.3 0.3 L 29.5 0.3 L 30.3 0.3 " fill="none" stroke="#FEFFFE" stroke-width="1.00" stroke-dasharray="6.0, 6.0" transform="matrix(0.00, 1.00, 1.00, 0.00, 827.2, 149.7)"></path><path d="M 0.0 0.0 L 3.0 5.0 L 6.0 0.0 M 3.0 0.0 L 3.0 5.0 " fill="none" stroke="#FEFFFE" stroke-width="1.00" stroke-linejoin="round" transform="matrix(-1.00, 0.00, 0.00, 1.00, 830.5, 179.5)"></path><path d="M 0.4 -0.2 L 45.9 -0.2 L 46.4 -0.2 " fill="none" stroke="#FEFFFE" stroke-width="1.00" stroke-dasharray="6.0, 6.0" transform="matrix(0.00, 1.00, 1.00, 0.00, 889.7, 133.6)"></path><path d="M 0.0 0.0 L 3.0 5.0 L 6.0 0.0 M 3.0 0.0 L 3.0 5.0 " fill="none" stroke="#FEFFFE" stroke-width="1.00" stroke-linejoin="round" transform="matrix(-1.00, 0.00, 0.00, 1.00, 892.5, 179.5)"></path><path d="M -0.3 -0.1 L 45.9 -0.1 L 46.7 -0.1 " fill="none" stroke="#FEFFFE" stroke-width="1.00" stroke-dasharray="6.0, 6.0" transform="matrix(0.00, 1.00, 1.00, 0.00, 101.6, 144.3)"></path><path d="M 0.0 0.0 L 3.0 5.0 L 6.0 0.0 M 3.0 0.0 L 3.0 5.0 " fill="none" stroke="#FEFFFE" stroke-width="1.00" stroke-linejoin="round" transform="matrix(-1.00, 0.00, 0.00, 1.00, 104.5, 190.5)"></path></g></svg>