<?xml version="1.0" encoding="UTF-8" standalone="no"?><svg xmlns="http://www.w3.org/2000/svg" xmlns:xlink="http://www.w3.org/1999/xlink" clip-rule="evenodd" stroke-miterlimit="10" viewBox="0 0 519 40"><desc>SVG generated by Keynote</desc><defs></defs><g transform="matrix(1.00, 0.00, -0.00, -1.00, 0.0, 40.0)"><text xml:space="preserve" font-family="MonacoForPowerline,Monaco for Powerline" font-size="36.0" fill="#FEFFFE" transform="matrix(1.00, 0.00, -0.00, -1.00, -0.2, 9.1)">3</text><text xml:space="preserve" font-family="MonacoForPowerline,Monaco for Powerline" font-size="36.0" fill="#FEFFFE" transform="matrix(1.00, 0.00, -0.00, -1.00, 21.4, 9.1)">-</text><text xml:space="preserve" font-family="MonacoForPowerline,Monaco for Powerline" font-size="36.0" fill="#FEFFFE" transform="matrix(1.00, 0.00, -0.00, -1.00, 43.0, 9.1)">m</text><text xml:space="preserve" font-family="MonacoForPowerline,Monaco for Powerline" font-size="36.0" fill="#FEFFFE" transform="matrix(1.00, 0.00, -0.00, -1.00, 64.6, 9.1)">o</text><text xml:space="preserve" font-family="MonacoForPowerline,Monaco for Powerline" font-size="36.0" fill="#FEFFFE" transform="matrix(1.00, 0.00, -0.00, -1.00, 86.2, 9.1)">n</text><text xml:space="preserve" font-family="MonacoForPowerline,Monaco for Powerline" font-size="36.0" fill="#FEFFFE" transform="matrix(1.00, 0.00, -0.00, -1.00, 107.8, 9.1)">t</text><text xml:space="preserve" font-family="MonacoForPowerline,Monaco for Powerline" font-size="36.0" fill="#FEFFFE" transform="matrix(1.00, 0.00, -0.00, -1.00, 129.4, 9.1)">h</text><text xml:space="preserve" font-family="MonacoForPowerline,Monaco for Powerline" font-size="36.0" fill="#FEFFFE" transform="matrix(1.00, 0.00, -0.00, -1.00, 151.0, 9.1)"> </text><text xml:space="preserve" font-family="MonacoForPowerline,Monaco for Powerline" font-size="36.0" fill="#FEFFFE" transform="matrix(1.00, 0.00, -0.00, -1.00, 172.6, 9.1)">i</text><text xml:space="preserve" font-family="MonacoForPowerline,Monaco for Powerline" font-size="36.0" fill="#FEFFFE" transform="matrix(1.00, 0.00, -0.00, -1.00, 194.3, 9.1)">n</text><text xml:space="preserve" font-family="MonacoForPowerline,Monaco for Powerline" font-size="36.0" fill="#FEFFFE" transform="matrix(1.00, 0.00, -0.00, -1.00, 215.9, 9.1)">t</text><text xml:space="preserve" font-family="MonacoForPowerline,Monaco for Powerline" font-size="36.0" fill="#FEFFFE" transform="matrix(1.00, 0.00, -0.00, -1.00, 237.5, 9.1)">e</text><text xml:space="preserve" font-family="MonacoForPowerline,Monaco for Powerline" font-size="36.0" fill="#FEFFFE" transform="matrix(1.00, 0.00, -0.00, -1.00, 259.1, 9.1)">r</text><text xml:space="preserve" font-family="MonacoForPowerline,Monaco for Powerline" font-size="36.0" fill="#FEFFFE" transform="matrix(1.00, 0.00, -0.00, -1.00, 280.7, 9.1)">n</text><text xml:space="preserve" font-family="MonacoForPowerline,Monaco for Powerline" font-size="36.0" fill="#FEFFFE" transform="matrix(1.00, 0.00, -0.00, -1.00, 302.3, 9.1)">s</text><text xml:space="preserve" font-family="MonacoForPowerline,Monaco for Powerline" font-size="36.0" fill="#FEFFFE" transform="matrix(1.00, 0.00, -0.00, -1.00, 323.9, 9.1)">h</text><text xml:space="preserve" font-family="MonacoForPowerline,Monaco for Powerline" font-size="36.0" fill="#FEFFFE" transform="matrix(1.00, 0.00, -0.00, -1.00, 345.5, 9.1)">i</text><text xml:space="preserve" font-family="MonacoForPowerline,Monaco for Powerline" font-size="36.0" fill="#FEFFFE" transform="matrix(1.00, 0.00, -0.00, -1.00, 367.1, 9.1)">p</text><text xml:space="preserve" font-family="MonacoForPowerline,Monaco for Powerline" font-size="36.0" fill="#FEFFFE" transform="matrix(1.00, 0.00, -0.00, -1.00, 388.7, 9.1)"> </text><text xml:space="preserve" font-family="MonacoForPowerline,Monaco for Powerline" font-size="36.0" fill="#FEFFFE" transform="matrix(1.00, 0.00, -0.00, -1.00, 410.3, 9.1)">#</text><text xml:space="preserve" font-family="MonacoForPowerline,Monaco for Powerline" font-size="36.0" fill="#FEFFFE" transform="matrix(1.00, 0.00, -0.00, -1.00, 431.9, 9.1)">2</text><text xml:space="preserve" font-family="MonacoForPowerline,Monaco for Powerline" font-size="36.0" fill="#FEFFFE" transform="matrix(1.00, 0.00, -0.00, -1.00, 453.5, 9.1)">0</text><text xml:space="preserve" font-family="MonacoForPowerline,Monaco for Powerline" font-size="36.0" fill="#FEFFFE" transform="matrix(1.00, 0.00, -0.00, -1.00, 475.1, 9.1)">1</text><text xml:space="preserve" font-family="MonacoForPowerline,Monaco for Powerline" font-size="36.0" fill="#FEFFFE" transform="matrix(1.00, 0.00, -0.00, -1.00, 496.8, 9.1)">2</text></g></svg>