<?xml version="1.0" encoding="UTF-8" standalone="no"?><svg xmlns="http://www.w3.org/2000/svg" xmlns:xlink="http://www.w3.org/1999/xlink" clip-rule="evenodd" stroke-miterlimit="10" viewBox="0 0 1024 768"><desc>SVG generated by Keynote</desc><defs></defs><g transform="matrix(1.00, 0.00, -0.00, -1.00, 0.0, 768.0)"><path d="M 0.0 768.0 L 1024.0 768.0 L 1024.0 0.0 L 0.0 0.0 Z M 0.0 768.0 " fill="#FEFFFF"></path><image xlink:href="../../A458083D-D69B-45C4-902F-6A2AFF5FFDFF/assets/67EC68E2567016468077500E22FE0557.png" width="1042.00" height="786.00" transform="matrix(1.00, 0.00, -0.00, -1.00, -9.0, 775.0)" opacity="0.50"></image><path d="M -6.0 774.0 L 1030.0 774.0 L 1030.0 -6.0 L -6.0 -6.0 Z M -6.0 774.0 " fill="#410198"></path><path d="M -0.1 -0.2 L 755.5 -0.2 L 756.9 -0.2 " fill="none" stroke="#FEFFFE" stroke-width="3.00" stroke-dasharray="18.0, 18.0" transform="matrix(0.00, -1.00, -1.00, 0.00, 909.3, 770.9)"></path><path d="M 0.0 0.0 L 3.0 5.0 L 6.0 0.0 M 3.0 0.0 L 3.0 5.0 " fill="none" stroke="#FEFFFE" stroke-width="1.36" stroke-linejoin="round" transform="matrix(2.20, 0.00, 0.00, -2.20, 902.9, 15.5)"></path><image xlink:href="../../3748B59F-E7E2-48BB-B7F1-02D3B6749A00/assets/89F44470AC5C019244A24BD91B073669.png" width="1025.00" height="797.00" transform="matrix(1.00, 0.00, -0.00, -1.00, 0.0, 769.0)"></image><image xlink:href="../../46F54C37-00C4-4B84-AA45-6E296C2B3596/assets/DF55B07B59292576A14B89A0F074E644.png" width="274.00" height="390.00" transform="matrix(1.00, 0.00, -0.00, -1.00, 823.9, 899.9)" opacity="0.74"></image><g><clipPath id="clip0x7fbcfa2db9e0"><path d="M 897.5 802.6 L 1057.2 642.9 L 1023.6 609.2 L 863.9 768.9 Z M 897.5 802.6 "></path></clipPath><g clip-path="url(#clip0x7fbcfa2db9e0)"><image xlink:href="../../46F54C37-00C4-4B84-AA45-6E296C2B3596/assets/1DCD970325A402F83F095B3789B6FDC2.png" width="600.00" height="600.00" transform="matrix(0.35, -0.35, -0.35, -0.35, 897.5, 802.6)"></image></g></g><g><clipPath id="clip0x7fbcf91e3dd0"><path d="M 895.1 805.0 L 1059.7 640.4 L 1025.4 606.1 L 860.8 770.7 Z M 895.1 805.0 "></path></clipPath><g clip-path="url(#clip0x7fbcf91e3dd0)"><text xml:space="preserve" font-family="MonacoForPowerline,Monaco for Powerline" font-size="24.0" fill="#FEFFFE" transform="matrix(0.71, -0.71, -0.71, -0.71, 913.3, 740.1)">2</text><text xml:space="preserve" font-family="MonacoForPowerline,Monaco for Powerline" font-size="24.0" fill="#FEFFFE" transform="matrix(0.71, -0.71, -0.71, -0.71, 923.5, 729.9)">0</text><text xml:space="preserve" font-family="MonacoForPowerline,Monaco for Powerline" font-size="24.0" fill="#FEFFFE" transform="matrix(0.71, -0.71, -0.71, -0.71, 933.7, 719.7)">1</text><text xml:space="preserve" font-family="MonacoForPowerline,Monaco for Powerline" font-size="24.0" fill="#FEFFFE" transform="matrix(0.71, -0.71, -0.71, -0.71, 943.9, 709.6)">3</text><text xml:space="preserve" font-family="MonacoForPowerline,Monaco for Powerline" font-size="24.0" fill="#FEFFFE" transform="matrix(0.71, -0.71, -0.71, -0.71, 954.1, 699.4)"> </text><text xml:space="preserve" font-family="MonacoForPowerline,Monaco for Powerline" font-size="24.0" fill="#FEFFFE" transform="matrix(0.71, -0.71, -0.71, -0.71, 964.2, 689.2)">A</text><text xml:space="preserve" font-family="MonacoForPowerline,Monaco for Powerline" font-size="24.0" fill="#FEFFFE" transform="matrix(0.71, -0.71, -0.71, -0.71, 974.4, 679.0)">C</text><text xml:space="preserve" font-family="MonacoForPowerline,Monaco for Powerline" font-size="24.0" fill="#FEFFFE" transform="matrix(0.71, -0.71, -0.71, -0.71, 984.6, 668.8)">L</text></g></g></g></svg>