<?xml version="1.0" encoding="UTF-8" standalone="no"?><svg xmlns="http://www.w3.org/2000/svg" xmlns:xlink="http://www.w3.org/1999/xlink" clip-rule="evenodd" stroke-miterlimit="10" viewBox="0 0 1024 768"><desc>SVG generated by Keynote</desc><defs></defs><g transform="matrix(1.00, 0.00, -0.00, -1.00, 0.0, 768.0)"><path d="M 0.0 768.0 L 1024.0 768.0 L 1024.0 0.0 L 0.0 0.0 Z M 0.0 768.0 " fill="#FEFFFF"></path><image xlink:href="../../A458083D-D69B-45C4-902F-6A2AFF5FFDFF/assets/67EC68E2567016468077500E22FE0557.png" width="1042.00" height="786.00" transform="matrix(1.00, 0.00, -0.00, -1.00, -9.0, 775.0)" opacity="0.50"></image><path d="M -6.0 774.0 L 1030.0 774.0 L 1030.0 -6.0 L -6.0 -6.0 Z M -6.0 774.0 " fill="#410198"></path><path d="M -0.1 -0.2 L 755.5 -0.2 L 756.9 -0.2 " fill="none" stroke="#FEFFFE" stroke-width="3.00" stroke-dasharray="18.0, 18.0" transform="matrix(0.00, -1.00, -1.00, 0.00, 909.3, 770.9)"></path><path d="M 0.0 0.0 L 3.0 5.0 L 6.0 0.0 M 3.0 0.0 L 3.0 5.0 " fill="none" stroke="#FEFFFE" stroke-width="1.36" stroke-linejoin="round" transform="matrix(2.20, 0.00, 0.00, -2.20, 902.9, 15.5)"></path><image xlink:href="E1C27E5AACD7998062AAF63BB590BE52.jpeg" width="720.00" height="482.00" transform="matrix(1.59, 0.00, -0.00, -1.59, -4.0, 768.0)"></image><g opacity="0.25"><g><clipPath id="clip0x7fbcf94785a0"><path d="M 0.0 0.0 L 1024.0 0.0 L 1024.0 768.0 L 0.0 768.0 Z M 0.0 0.0 "></path></clipPath><g clip-path="url(#clip0x7fbcf94785a0)"><image xlink:href="2DBDDD03CB65EE4462545AB9CF6031A2.png" width="1039.00" height="778.00" transform="matrix(1.00, 0.00, -0.00, -1.00, -6.6, 773.2)" opacity="0.50"></image><path d="M -4.0 769.0 L 1028.0 769.0 L 1028.0 -1.0 L -4.0 -1.0 Z M -3.6 769.2 " fill="#000000"></path></g></g></g><path d="M -0.5 0.2 L 76.2 0.2 L 77.5 0.2 " fill="none" stroke="#FEFFFE" stroke-width="3.00" stroke-dasharray="6.0, 6.0" transform="matrix(0.00, -1.00, -1.00, 0.00, 737.7, 549.5)"></path><path d="M 0.0 0.0 L 3.0 5.0 L 6.0 0.0 M 3.0 0.0 L 3.0 5.0 " fill="none" stroke="#FEFFFE" stroke-width="1.36" stroke-linejoin="round" transform="matrix(2.20, 0.00, 0.00, -2.20, 730.9, 473.5)"></path></g></svg>