<?xml version="1.0" encoding="UTF-8" standalone="no"?><svg xmlns="http://www.w3.org/2000/svg" xmlns:xlink="http://www.w3.org/1999/xlink" clip-rule="evenodd" stroke-miterlimit="10" viewBox="0 0 1024 768"><desc>SVG generated by Keynote</desc><defs></defs><g transform="matrix(1.00, 0.00, -0.00, -1.00, 0.0, 768.0)"><path d="M 0.0 768.0 L 1024.0 768.0 L 1024.0 0.0 L 0.0 0.0 Z M 0.0 768.0 " fill="#FEFFFF"></path><image xlink:href="../../98202970-C97C-4F04-B43C-DC7951857BA0/assets/47668603A0108E7B1C98D1B5E2317084.jpeg" width="1084.00" height="743.00" transform="matrix(1.04, 0.00, -0.00, -1.04, -1.0, 769.0)"></image><path d="M 317.0 628.0 L 804.0 628.0 L 804.0 141.0 L 317.0 141.0 Z M 317.0 628.0 " fill="#000000" fill-opacity="0.00"></path><g><g><clipPath id="clip0x7fbcfd990b90"><path d="M 0.0 0.0 L 1024.0 0.0 L 1024.0 768.0 L 0.0 768.0 Z M 0.0 0.0 "></path></clipPath><g clip-path="url(#clip0x7fbcfd990b90)"><g><g><clipPath id="clip0x7fbcfd9924a0"><path d="M 0.0 0.0 L 1024.0 0.0 L 1024.0 768.0 L 0.0 768.0 Z M 0.0 0.0 "></path></clipPath><g clip-path="url(#clip0x7fbcfd9924a0)"><path d="M 560.0 384.0 L 560.0 627.0 C 482.8 627.0 410.2 590.3 364.4 528.2 Z M 560.0 384.0 " fill="#892218"></path></g></g></g></g></g><g><clipPath id="clip0x7fbcfd991a80"><path d="M 0.0 0.0 L 1024.0 0.0 L 1024.0 768.0 L 0.0 768.0 Z M 0.0 0.0 "></path></clipPath><g clip-path="url(#clip0x7fbcfd991a80)"><g><g><clipPath id="clip0x7fbcfd9944a0"><path d="M 0.0 0.0 L 1024.0 0.0 L 1024.0 768.0 L 0.0 768.0 Z M 0.0 0.0 "></path></clipPath><g clip-path="url(#clip0x7fbcfd9944a0)"><path d="M 560.0 384.0 L 364.4 528.2 C 339.1 493.9 323.3 453.6 318.5 411.3 Z M 560.0 384.0 " fill="#BC5A06"></path></g></g></g></g></g><g><clipPath id="clip0x7fbcfd698670"><path d="M 0.0 0.0 L 1024.0 0.0 L 1024.0 768.0 L 0.0 768.0 Z M 0.0 0.0 "></path></clipPath><g clip-path="url(#clip0x7fbcfd698670)"><g><g><clipPath id="clip0x7fbcfd694af0"><path d="M 0.0 0.0 L 1024.0 0.0 L 1024.0 768.0 L 0.0 768.0 Z M 0.0 0.0 "></path></clipPath><g clip-path="url(#clip0x7fbcfd694af0)"><path d="M 560.0 384.0 L 318.5 411.3 C 310.6 341.5 333.4 271.6 380.9 219.8 Z M 560.0 384.0 " fill="#F0B14F"></path></g></g></g></g></g><g><clipPath id="clip0x7fbcfd698240"><path d="M 0.0 0.0 L 1024.0 0.0 L 1024.0 768.0 L 0.0 768.0 Z M 0.0 0.0 "></path></clipPath><g clip-path="url(#clip0x7fbcfd698240)"><g><g><clipPath id="clip0x7fbcfd698cc0"><path d="M 0.0 0.0 L 1024.0 0.0 L 1024.0 768.0 L 0.0 768.0 Z M 0.0 0.0 "></path></clipPath><g clip-path="url(#clip0x7fbcfd698cc0)"><path d="M 560.0 384.0 L 380.9 219.8 C 468.7 123.9 616.5 114.2 716.2 197.8 Z M 560.0 384.0 " fill="#6B6F39"></path></g></g></g></g></g><g><clipPath id="clip0x7fbcfd697970"><path d="M 0.0 0.0 L 1024.0 0.0 L 1024.0 768.0 L 0.0 768.0 Z M 0.0 0.0 "></path></clipPath><g clip-path="url(#clip0x7fbcfd697970)"><g><g><clipPath id="clip0x7fbcfd69bac0"><path d="M 0.0 0.0 L 1024.0 0.0 L 1024.0 768.0 L 0.0 768.0 Z M 0.0 0.0 "></path></clipPath><g clip-path="url(#clip0x7fbcfd69bac0)"><path d="M 560.0 384.0 L 716.2 197.8 C 819.0 284.1 832.4 437.3 746.2 540.2 C 700.0 595.2 631.9 627.0 560.0 627.0 Z M 560.0 384.0 " fill="#495F62"></path></g></g></g></g></g></g><g><image xlink:href="../../98202970-C97C-4F04-B43C-DC7951857BA0/assets/7D574789401C9E5FEC1FD30D2E7656BA.png" width="52.00" height="24.00" transform="matrix(1.00, 0.00, -0.00, -1.00, 461.0, 538.0)"></image><g><clipPath id="clip0x7fbcfd69e4e0"><path d="M 458.0 509.0 L 516.0 509.0 L 516.0 545.0 L 458.0 545.0 Z M 458.0 509.0 "></path></clipPath><g clip-path="url(#clip0x7fbcfd69e4e0)"><text xml:space="preserve" font-family="Helvetica-Light,Helvetica" font-size="26.0" fill="#FEFFFE" transform="matrix(1.00, 0.00, -0.00, -1.00, 460.9, 519.8)">1</text><text xml:space="preserve" font-family="Helvetica-Light,Helvetica" font-size="26.0" fill="#FEFFFE" transform="matrix(1.00, 0.00, -0.00, -1.00, 475.3, 519.8)">5</text><text xml:space="preserve" font-family="Helvetica-Light,Helvetica" font-size="26.0" fill="#FEFFFE" transform="matrix(1.00, 0.00, -0.00, -1.00, 489.8, 519.8)">%</text></g></g></g><g><image xlink:href="../../98202970-C97C-4F04-B43C-DC7951857BA0/assets/290623FAE0EC1C212C5584DB1F6ABC64.png" width="40.00" height="24.00" transform="matrix(1.00, 0.00, -0.00, -1.00, 388.0, 452.0)"></image><g><clipPath id="clip0x7fbcfd6a2e90"><path d="M 387.0 423.0 L 431.0 423.0 L 431.0 459.0 L 387.0 459.0 Z M 387.0 423.0 "></path></clipPath><g clip-path="url(#clip0x7fbcfd6a2e90)"><text xml:space="preserve" font-family="Helvetica-Light,Helvetica" font-size="26.0" fill="#FEFFFE" transform="matrix(1.00, 0.00, -0.00, -1.00, 390.0, 433.9)">8</text><text xml:space="preserve" font-family="Helvetica-Light,Helvetica" font-size="26.0" fill="#FEFFFE" transform="matrix(1.00, 0.00, -0.00, -1.00, 404.4, 433.9)">%</text></g></g></g><g><image xlink:href="../../98202970-C97C-4F04-B43C-DC7951857BA0/assets/260CDF7392D6F3276D1208F41979FA43.png" width="52.00" height="24.00" transform="matrix(1.00, 0.00, -0.00, -1.00, 380.0, 343.0)"></image><g><clipPath id="clip0x7fbcfd6a6ac0"><path d="M 376.0 314.0 L 435.0 314.0 L 435.0 350.0 L 376.0 350.0 Z M 376.0 314.0 "></path></clipPath><g clip-path="url(#clip0x7fbcfd6a6ac0)"><text xml:space="preserve" font-family="Helvetica-Light,Helvetica" font-size="26.0" fill="#FEFFFE" transform="matrix(1.00, 0.00, -0.00, -1.00, 379.5, 324.1)">1</text><text xml:space="preserve" font-family="Helvetica-Light,Helvetica" font-size="26.0" fill="#FEFFFE" transform="matrix(1.00, 0.00, -0.00, -1.00, 393.9, 324.1)">4</text><text xml:space="preserve" font-family="Helvetica-Light,Helvetica" font-size="26.0" fill="#FEFFFE" transform="matrix(1.00, 0.00, -0.00, -1.00, 408.4, 324.1)">%</text></g></g></g><g><image xlink:href="../../98202970-C97C-4F04-B43C-DC7951857BA0/assets/4B2C055501A95CBF9B00C4F9F6A6BA64.png" width="54.00" height="24.00" transform="matrix(1.00, 0.00, -0.00, -1.00, 522.0, 231.0)"></image><g><clipPath id="clip0x7fbcfd8f61e0"><path d="M 521.0 202.0 L 579.0 202.0 L 579.0 238.0 L 521.0 238.0 Z M 521.0 202.0 "></path></clipPath><g clip-path="url(#clip0x7fbcfd8f61e0)"><text xml:space="preserve" font-family="Helvetica-Light,Helvetica" font-size="26.0" fill="#FEFFFE" transform="matrix(1.00, 0.00, -0.00, -1.00, 523.6, 212.0)">2</text><text xml:space="preserve" font-family="Helvetica-Light,Helvetica" font-size="26.0" fill="#FEFFFE" transform="matrix(1.00, 0.00, -0.00, -1.00, 538.1, 212.0)">4</text><text xml:space="preserve" font-family="Helvetica-Light,Helvetica" font-size="26.0" fill="#FEFFFE" transform="matrix(1.00, 0.00, -0.00, -1.00, 552.6, 212.0)">%</text></g></g></g><g><image xlink:href="../../98202970-C97C-4F04-B43C-DC7951857BA0/assets/72D092D642A3A8D852B258C4E016C906.png" width="55.00" height="24.00" transform="matrix(1.00, 0.00, -0.00, -1.00, 685.0, 449.0)"></image><g><clipPath id="clip0x7fbcfd8f4c40"><path d="M 684.0 420.0 L 742.0 420.0 L 742.0 456.0 L 684.0 456.0 Z M 684.0 420.0 "></path></clipPath><g clip-path="url(#clip0x7fbcfd8f4c40)"><text xml:space="preserve" font-family="Helvetica-Light,Helvetica" font-size="26.0" fill="#FEFFFE" transform="matrix(1.00, 0.00, -0.00, -1.00, 687.3, 430.1)">3</text><text xml:space="preserve" font-family="Helvetica-Light,Helvetica" font-size="26.0" fill="#FEFFFE" transform="matrix(1.00, 0.00, -0.00, -1.00, 701.8, 430.1)">9</text><text xml:space="preserve" font-family="Helvetica-Light,Helvetica" font-size="26.0" fill="#FEFFFE" transform="matrix(1.00, 0.00, -0.00, -1.00, 716.2, 430.1)">%</text></g></g></g><text xml:space="preserve" font-family="MonacoForPowerline,Monaco for Powerline" font-size="24.0" fill="#FEFFFE" transform="matrix(1.00, 0.00, -0.00, -1.00, 568.4, 96.1)">C</text><text xml:space="preserve" font-family="MonacoForPowerline,Monaco for Powerline" font-size="24.0" fill="#FEFFFE" transform="matrix(1.00, 0.00, -0.00, -1.00, 582.8, 96.1)">S</text><text xml:space="preserve" font-family="MonacoForPowerline,Monaco for Powerline" font-size="24.0" fill="#FEFFFE" transform="matrix(1.00, 0.00, -0.00, -1.00, 597.2, 96.1)">S</text><text xml:space="preserve" font-family="MonacoForPowerline,Monaco for Powerline" font-size="24.0" fill="#FEFFFE" transform="matrix(1.00, 0.00, -0.00, -1.00, 377.4, 644.0)">J</text><text xml:space="preserve" font-family="MonacoForPowerline,Monaco for Powerline" font-size="24.0" fill="#FEFFFE" transform="matrix(1.00, 0.00, -0.00, -1.00, 391.8, 644.0)">a</text><text xml:space="preserve" font-family="MonacoForPowerline,Monaco for Powerline" font-size="24.0" fill="#FEFFFE" transform="matrix(1.00, 0.00, -0.00, -1.00, 406.2, 644.0)">v</text><text xml:space="preserve" font-family="MonacoForPowerline,Monaco for Powerline" font-size="24.0" fill="#FEFFFE" transform="matrix(1.00, 0.00, -0.00, -1.00, 420.6, 644.0)">a</text><text xml:space="preserve" font-family="MonacoForPowerline,Monaco for Powerline" font-size="24.0" fill="#FEFFFE" transform="matrix(1.00, 0.00, -0.00, -1.00, 435.0, 644.0)">S</text><text xml:space="preserve" font-family="MonacoForPowerline,Monaco for Powerline" font-size="24.0" fill="#FEFFFE" transform="matrix(1.00, 0.00, -0.00, -1.00, 449.4, 644.0)">c</text><text xml:space="preserve" font-family="MonacoForPowerline,Monaco for Powerline" font-size="24.0" fill="#FEFFFE" transform="matrix(1.00, 0.00, -0.00, -1.00, 463.8, 644.0)">r</text><text xml:space="preserve" font-family="MonacoForPowerline,Monaco for Powerline" font-size="24.0" fill="#FEFFFE" transform="matrix(1.00, 0.00, -0.00, -1.00, 478.2, 644.0)">i</text><text xml:space="preserve" font-family="MonacoForPowerline,Monaco for Powerline" font-size="24.0" fill="#FEFFFE" transform="matrix(1.00, 0.00, -0.00, -1.00, 492.6, 644.0)">p</text><text xml:space="preserve" font-family="MonacoForPowerline,Monaco for Powerline" font-size="24.0" fill="#FEFFFE" transform="matrix(1.00, 0.00, -0.00, -1.00, 507.0, 644.0)">t</text><text xml:space="preserve" font-family="MonacoForPowerline,Monaco for Powerline" font-size="24.0" fill="#FEFFFE" transform="matrix(1.00, 0.00, -0.00, -1.00, 231.7, 467.2)">S</text><text xml:space="preserve" font-family="MonacoForPowerline,Monaco for Powerline" font-size="24.0" fill="#FEFFFE" transform="matrix(1.00, 0.00, -0.00, -1.00, 246.1, 467.2)">h</text><text xml:space="preserve" font-family="MonacoForPowerline,Monaco for Powerline" font-size="24.0" fill="#FEFFFE" transform="matrix(1.00, 0.00, -0.00, -1.00, 260.5, 467.2)">e</text><text xml:space="preserve" font-family="MonacoForPowerline,Monaco for Powerline" font-size="24.0" fill="#FEFFFE" transform="matrix(1.00, 0.00, -0.00, -1.00, 274.9, 467.2)">l</text><text xml:space="preserve" font-family="MonacoForPowerline,Monaco for Powerline" font-size="24.0" fill="#FEFFFE" transform="matrix(1.00, 0.00, -0.00, -1.00, 289.4, 467.2)">l</text><text xml:space="preserve" font-family="MonacoForPowerline,Monaco for Powerline" font-size="24.0" fill="#FEFFFE" transform="matrix(1.00, 0.00, -0.00, -1.00, 196.8, 267.1)">O</text><text xml:space="preserve" font-family="MonacoForPowerline,Monaco for Powerline" font-size="24.0" fill="#FEFFFE" transform="matrix(1.00, 0.00, -0.00, -1.00, 211.2, 267.1)">t</text><text xml:space="preserve" font-family="MonacoForPowerline,Monaco for Powerline" font-size="24.0" fill="#FEFFFE" transform="matrix(1.00, 0.00, -0.00, -1.00, 225.6, 267.1)">h</text><text xml:space="preserve" font-family="MonacoForPowerline,Monaco for Powerline" font-size="24.0" fill="#FEFFFE" transform="matrix(1.00, 0.00, -0.00, -1.00, 240.0, 267.1)">e</text><text xml:space="preserve" font-family="MonacoForPowerline,Monaco for Powerline" font-size="24.0" fill="#FEFFFE" transform="matrix(1.00, 0.00, -0.00, -1.00, 254.4, 267.1)">r</text><text xml:space="preserve" font-family="MonacoForPowerline,Monaco for Powerline" font-size="20.0" fill="#FEFFFE" transform="matrix(1.00, 0.00, -0.00, -1.00, 172.8, 238.8)">(</text><text xml:space="preserve" font-family="MonacoForPowerline,Monaco for Powerline" font-size="20.0" fill="#FEFFFE" transform="matrix(1.00, 0.00, -0.00, -1.00, 184.8, 238.8)">J</text><text xml:space="preserve" font-family="MonacoForPowerline,Monaco for Powerline" font-size="20.0" fill="#FEFFFE" transform="matrix(1.00, 0.00, -0.00, -1.00, 196.8, 238.8)">a</text><text xml:space="preserve" font-family="MonacoForPowerline,Monaco for Powerline" font-size="20.0" fill="#FEFFFE" transform="matrix(1.00, 0.00, -0.00, -1.00, 208.8, 238.8)">v</text><text xml:space="preserve" font-family="MonacoForPowerline,Monaco for Powerline" font-size="20.0" fill="#FEFFFE" transform="matrix(1.00, 0.00, -0.00, -1.00, 220.8, 238.8)">a</text><text xml:space="preserve" font-family="MonacoForPowerline,Monaco for Powerline" font-size="20.0" fill="#FEFFFE" transform="matrix(1.00, 0.00, -0.00, -1.00, 232.8, 238.8)">,</text><text xml:space="preserve" font-family="MonacoForPowerline,Monaco for Powerline" font-size="20.0" fill="#FEFFFE" transform="matrix(1.00, 0.00, -0.00, -1.00, 244.8, 238.8)"> </text><text xml:space="preserve" font-family="MonacoForPowerline,Monaco for Powerline" font-size="20.0" fill="#FEFFFE" transform="matrix(1.00, 0.00, -0.00, -1.00, 256.8, 238.8)">C</text><text xml:space="preserve" font-family="MonacoForPowerline,Monaco for Powerline" font-size="20.0" fill="#FEFFFE" transform="matrix(1.00, 0.00, -0.00, -1.00, 268.8, 238.8)">+</text><text xml:space="preserve" font-family="MonacoForPowerline,Monaco for Powerline" font-size="20.0" fill="#FEFFFE" transform="matrix(1.00, 0.00, -0.00, -1.00, 280.8, 238.8)">+</text><text xml:space="preserve" font-family="MonacoForPowerline,Monaco for Powerline" font-size="20.0" fill="#FEFFFE" transform="matrix(1.00, 0.00, -0.00, -1.00, 292.8, 238.8)"> </text><text xml:space="preserve" font-family="MonacoForPowerline,Monaco for Powerline" font-size="20.0" fill="#FEFFFE" transform="matrix(1.00, 0.00, -0.00, -1.00, 160.8, 211.8)">M</text><text xml:space="preserve" font-family="MonacoForPowerline,Monaco for Powerline" font-size="20.0" fill="#FEFFFE" transform="matrix(1.00, 0.00, -0.00, -1.00, 172.8, 211.8)">a</text><text xml:space="preserve" font-family="MonacoForPowerline,Monaco for Powerline" font-size="20.0" fill="#FEFFFE" transform="matrix(1.00, 0.00, -0.00, -1.00, 184.8, 211.8)">t</text><text xml:space="preserve" font-family="MonacoForPowerline,Monaco for Powerline" font-size="20.0" fill="#FEFFFE" transform="matrix(1.00, 0.00, -0.00, -1.00, 196.8, 211.8)">l</text><text xml:space="preserve" font-family="MonacoForPowerline,Monaco for Powerline" font-size="20.0" fill="#FEFFFE" transform="matrix(1.00, 0.00, -0.00, -1.00, 208.8, 211.8)">a</text><text xml:space="preserve" font-family="MonacoForPowerline,Monaco for Powerline" font-size="20.0" fill="#FEFFFE" transform="matrix(1.00, 0.00, -0.00, -1.00, 220.8, 211.8)">b</text><text xml:space="preserve" font-family="MonacoForPowerline,Monaco for Powerline" font-size="20.0" fill="#FEFFFE" transform="matrix(1.00, 0.00, -0.00, -1.00, 232.8, 211.8)">,</text><text xml:space="preserve" font-family="MonacoForPowerline,Monaco for Powerline" font-size="20.0" fill="#FEFFFE" transform="matrix(1.00, 0.00, -0.00, -1.00, 244.8, 211.8)"> </text><text xml:space="preserve" font-family="MonacoForPowerline,Monaco for Powerline" font-size="20.0" fill="#FEFFFE" transform="matrix(1.00, 0.00, -0.00, -1.00, 256.8, 211.8)">T</text><text xml:space="preserve" font-family="MonacoForPowerline,Monaco for Powerline" font-size="20.0" fill="#FEFFFE" transform="matrix(1.00, 0.00, -0.00, -1.00, 268.8, 211.8)">e</text><text xml:space="preserve" font-family="MonacoForPowerline,Monaco for Powerline" font-size="20.0" fill="#FEFFFE" transform="matrix(1.00, 0.00, -0.00, -1.00, 280.8, 211.8)">X</text><text xml:space="preserve" font-family="MonacoForPowerline,Monaco for Powerline" font-size="20.0" fill="#FEFFFE" transform="matrix(1.00, 0.00, -0.00, -1.00, 292.8, 211.8)">)</text><text xml:space="preserve" font-family="MonacoForPowerline,Monaco for Powerline" font-size="24.0" fill="#FEFFFE" transform="matrix(1.00, 0.00, -0.00, -1.00, 816.9, 435.4)">P</text><text xml:space="preserve" font-family="MonacoForPowerline,Monaco for Powerline" font-size="24.0" fill="#FEFFFE" transform="matrix(1.00, 0.00, -0.00, -1.00, 831.3, 435.4)">y</text><text xml:space="preserve" font-family="MonacoForPowerline,Monaco for Powerline" font-size="24.0" fill="#FEFFFE" transform="matrix(1.00, 0.00, -0.00, -1.00, 845.7, 435.4)">t</text><text xml:space="preserve" font-family="MonacoForPowerline,Monaco for Powerline" font-size="24.0" fill="#FEFFFE" transform="matrix(1.00, 0.00, -0.00, -1.00, 860.1, 435.4)">h</text><text xml:space="preserve" font-family="MonacoForPowerline,Monaco for Powerline" font-size="24.0" fill="#FEFFFE" transform="matrix(1.00, 0.00, -0.00, -1.00, 874.5, 435.4)">o</text><text xml:space="preserve" font-family="MonacoForPowerline,Monaco for Powerline" font-size="24.0" fill="#FEFFFE" transform="matrix(1.00, 0.00, -0.00, -1.00, 888.9, 435.4)">n</text></g></svg>